<svg width="274" height="203" viewBox="0 0 274 203" fill="none" xmlns="http://www.w3.org/2000/svg">
<path d="M92.7151 189.15C85.6169 190.086 79.5098 188.997 74.7301 185.643C50.1411 168.386 69.9915 97.7093 119.067 27.7821C168.143 -42.1451 227.86 -84.8429 252.449 -67.586C257.229 -64.2315 260.33 -58.8586 261.863 -51.865" stroke="black" stroke-width="2"/>
<path d="M85.3856 107.588L83.9066 107.42C80.2903 107.009 76.7366 108.596 74.628 111.562L73.7657 112.775L73.9335 111.297C74.344 107.68 72.7574 104.126 69.7909 102.018L68.5777 101.156L70.0567 101.323C73.6729 101.734 77.2267 100.147 79.3353 97.1808L80.1976 95.9676L80.0298 97.4466C79.6193 101.063 81.2059 104.617 84.1724 106.725L85.3856 107.588Z" fill="black"/>
<path d="M47.8783 168.701C41.6692 164.343 38.0328 156.73 36.9213 146.466C35.81 136.204 37.2416 123.417 41.0442 108.939C48.6473 79.9899 65.6719 44.4921 90.3425 9.3393C115.013 -25.8135 142.608 -53.893 167.247 -70.8858C179.57 -79.3845 191.108 -85.0781 201.137 -87.5221C211.168 -89.9667 219.563 -89.1353 225.773 -84.7776C231.982 -80.4199 235.618 -72.8072 236.73 -62.5427C237.841 -52.2807 236.409 -39.4942 232.607 -25.0157C225.004 3.93328 207.979 39.431 183.308 74.5838C158.638 109.737 131.043 137.816 106.404 154.809C94.0805 163.308 82.5425 169.001 72.514 171.445C62.4831 173.89 54.0875 173.058 47.8783 168.701Z" stroke="black" stroke-width="2"/>
</svg>
