<svg width="866" height="718" viewBox="0 0 866 718" fill="none" xmlns="http://www.w3.org/2000/svg">
<path d="M711.129 108.218C728.246 113.591 740.972 122.518 748.288 135.19C785.926 200.38 666.148 339.996 480.758 447.032C295.367 554.067 114.567 587.989 76.9298 522.799C69.6137 510.127 68.2455 494.643 72.151 477.132" stroke="black" stroke-width="2"/>
<path d="M90.0934 423.242L94.6213 417.671L97.9513 420.378L93.4234 425.948L92.7926 426.724L93.5686 427.355L102.161 434.339L102.937 434.97L103.568 434.194L108.096 428.623L111.426 431.33L106.898 436.9L106.267 437.676L107.043 438.307L115.64 445.295L113.41 448.039L104.812 441.051L104.036 440.421L103.406 441.197L96.1042 450.179L95.4735 450.955L96.2495 451.586L104.847 458.574L102.616 461.318L94.019 454.33L93.243 453.699L92.6122 454.475L88.0843 460.046L84.7544 457.339L89.2822 451.769L89.913 450.993L89.137 450.362L80.5447 443.378L79.7687 442.747L79.138 443.523L74.6101 449.094L71.2801 446.387L75.808 440.817L76.4387 440.041L75.6627 439.41L67.0654 432.422L69.2959 429.678L77.8932 436.666L78.6692 437.296L79.3 436.521L86.6014 427.538L87.2322 426.762L86.4562 426.131L77.8588 419.143L80.0893 416.399L88.6867 423.387L89.4627 424.018L90.0934 423.242ZM100.076 438.49L100.706 437.714L99.9304 437.083L91.3381 430.099L90.5621 429.468L89.9314 430.244L82.63 439.227L81.9992 440.003L82.7752 440.634L91.3675 447.618L92.1435 448.249L92.7742 447.473L100.076 438.49Z" fill="black" stroke="#FFCB45" stroke-width="2"/>
<path d="M118.411 379.165L119.247 383.485C114.859 384.217 110.608 386.419 107.035 390.394C104.805 392.874 103.428 395.48 103.086 397.937C102.738 400.435 103.472 402.747 105.379 404.461C106.204 405.203 107.114 405.73 108.167 405.976C109.216 406.221 110.334 406.171 111.554 405.866C113.949 405.267 116.891 403.644 120.764 401.03L120.768 401.027C125.986 397.47 129.937 395.554 133.144 395.04C136.257 394.541 138.725 395.353 141.092 397.48C144.092 400.178 145.411 403.584 145.107 407.328C144.801 411.107 142.829 415.32 139.058 419.516C134.637 424.434 129.061 427.504 123.123 428.225L122.4 423.852C128 423.202 133.036 420.549 136.829 416.329C139.263 413.621 140.749 410.854 141.107 408.254C141.472 405.605 140.651 403.192 138.616 401.364C137.835 400.662 136.99 400.126 136.005 399.846C135.018 399.566 133.962 399.562 132.791 399.811C130.504 400.298 127.636 401.785 123.676 404.31C119.389 407 115.544 409.261 112.015 410.181C108.574 411.078 105.509 410.686 102.623 408.092C99.8205 405.573 98.6347 402.345 98.9583 398.804C99.2852 395.227 101.163 391.261 104.639 387.393C108.547 383.045 113.134 380.36 118.411 379.165Z" fill="black" stroke="#FFCB45" stroke-width="2"/>
<path d="M137.613 372.869L133.117 377.457L130.681 375.07L135.178 370.482L135.811 369.836L135.231 369.141L129.327 362.071L131.692 359.658L138.167 366.003L138.881 366.703L139.581 365.989L147.248 358.166L149.684 360.553L142.017 368.376L141.317 369.09L142.031 369.79L157.488 384.939C159.085 386.504 160.63 387.383 162.296 387.261C163.919 387.142 165.337 386.088 166.729 384.667C167.891 383.482 168.863 382.352 170.007 380.472L172.748 383.157C171.581 385.03 170.272 386.644 168.82 388.126C166.421 390.574 164.08 391.718 161.892 391.807C159.718 391.896 157.492 390.952 155.293 388.796L139.027 372.855L138.313 372.155L137.613 372.869Z" fill="black" stroke="#FFCB45" stroke-width="2"/>
<path d="M169.652 340.585C166.481 343.564 164.591 347.712 164.29 352.125L160.701 351.956C161.089 346.725 163.283 341.889 167.5 337.927C170.539 335.071 173.685 333.649 176.612 333.539C179.517 333.429 182.344 334.605 184.8 337.22L197.121 350.333C197.803 351.059 198.605 351.607 199.568 351.637C200.53 351.667 201.365 351.171 202.091 350.488L202.371 350.225L204.92 352.938C204.694 353.205 204.412 353.506 204.135 353.766C202.498 355.304 201.253 355.922 200.151 355.954C199.063 355.986 197.839 355.453 196.224 353.997L194.19 352.164L194.564 354.876C195.17 359.27 193.446 364.327 189.538 367.998C187.028 370.356 184.235 371.516 181.595 371.565C178.965 371.612 176.398 370.561 174.297 368.324C172.863 366.798 172.106 365.253 171.81 363.723C171.512 362.186 171.668 360.601 172.154 358.987C173.137 355.723 175.424 352.478 177.741 349.525L177.743 349.522L177.848 349.388C179.748 346.945 181.183 345.099 181.835 343.571C182.183 342.757 182.353 341.941 182.208 341.108C182.062 340.275 181.624 339.555 181 338.891C179.573 337.372 177.648 336.875 175.63 337.24C173.648 337.597 171.577 338.776 169.652 340.585ZM185.992 344.388L184.647 342.956L184.281 344.886C184.157 345.534 183.814 346.28 183.128 347.318C182.443 348.356 181.474 349.604 180.17 351.263L180.165 351.269L180.161 351.275C180.12 351.329 180.078 351.383 180.037 351.437C178.476 353.484 176.764 355.728 175.933 357.984C175.498 359.166 175.28 360.406 175.474 361.669C175.668 362.942 176.269 364.157 177.338 365.294C178.827 366.879 180.583 367.711 182.476 367.648C184.343 367.585 186.167 366.658 187.839 365.087C190.297 362.778 191.806 359.743 192.224 356.758C192.642 353.777 191.977 350.758 189.955 348.606L185.992 344.388Z" fill="black" stroke="#FFCB45" stroke-width="2"/>
<path d="M222.828 307.163L237.697 324.588L234.433 327.374L220.789 311.384C218.445 308.637 215.848 306.958 213.163 306.519C210.448 306.075 207.804 306.925 205.464 308.922C200.123 313.479 198.986 320.898 203.638 326.35L217.119 342.148L213.854 344.934L190.65 317.741L193.207 315.559L197.02 319.365L199.107 321.448L198.718 318.526C198.097 313.85 200.045 308.897 204.317 305.252C207.242 302.756 210.549 301.716 213.75 302.03C216.955 302.345 220.154 304.029 222.828 307.163Z" fill="black" stroke="#FFCB45" stroke-width="2"/>
<path d="M251.45 274.222L241.088 260.754L244.489 258.137L273.96 296.442L271.296 298.492L267.68 294.497L265.786 292.404L265.94 295.223C266.214 300.218 264.11 304.814 259.978 307.993C256.204 310.896 252.012 311.843 247.925 310.997C243.82 310.147 239.719 307.466 236.224 302.923C229.417 294.076 230.274 284.156 237.412 278.663C241.481 275.533 246.053 274.564 250.384 275.794L253.295 276.62L251.45 274.222ZM259.018 304.27C262.08 301.914 263.735 298.747 263.895 295.248C264.055 291.77 262.737 288.067 260.058 284.586C257.38 281.104 254.138 278.881 250.736 278.144C247.313 277.402 243.827 278.19 240.765 280.546C237.703 282.901 236.049 286.068 235.888 289.568C235.728 293.045 237.047 296.748 239.725 300.23C242.403 303.711 245.645 305.934 249.047 306.671C252.471 307.413 255.956 306.625 259.018 304.27Z" fill="black" stroke="#FFCB45" stroke-width="2"/>
<path d="M286.22 240.37L298.683 279.074L294.3 282.04L257.643 251.527L261.442 248.956L291.4 273.848L294.063 276.061L292.99 272.769L280.925 235.774L285.723 232.528L315.821 257.626L318.468 259.833L317.414 256.552L305.412 219.206L309.004 216.776L323.693 262.152L319.204 265.19L287.808 239.292L285.173 237.118L286.22 240.37Z" fill="black" stroke="#FFCB45" stroke-width="2"/>
<path d="M318.795 214.547L316.178 210.232L320.493 207.616L323.11 211.93L318.795 214.547ZM341.563 251.361L323.026 220.795L326.695 218.57L345.232 249.136L341.563 251.361Z" fill="black" stroke="#FFCB45" stroke-width="2"/>
<path d="M348.88 209.559L343.281 212.708L341.609 209.735L347.208 206.586L347.997 206.143L347.634 205.314L343.939 196.876L346.885 195.219L351.329 203.121L351.82 203.992L352.691 203.502L362.238 198.133L363.91 201.105L354.363 206.475L353.492 206.965L353.982 207.837L364.591 226.7C365.688 228.649 366.926 229.924 368.56 230.273C370.151 230.612 371.806 229.996 373.54 229.021C374.987 228.207 376.236 227.394 377.86 225.908L379.741 229.252C378.098 230.724 376.391 231.908 374.582 232.926C371.595 234.606 369.027 235.05 366.902 234.525C364.79 234.003 362.916 232.475 361.406 229.79L350.242 209.94L349.751 209.069L348.88 209.559Z" fill="black" stroke="#FFCB45" stroke-width="2"/>
<path d="M410.535 187.714L420.874 208.154L417.045 210.091L407.558 191.335C405.928 188.112 403.8 185.868 401.294 184.807C398.761 183.736 395.991 183.938 393.246 185.327C387.087 188.442 384.241 195.387 387.473 201.776L396.847 220.308L393.017 222.245L371.203 179.118L375.032 177.181L382.759 192.457L384.09 195.087L384.634 192.19C385.453 187.834 388.322 183.854 392.997 181.49C396.428 179.754 399.887 179.523 402.924 180.584C405.964 181.646 408.675 184.037 410.535 187.714Z" fill="black" stroke="#FFCB45" stroke-width="2"/>
<path d="M452.256 194.717C447.041 197.013 442.093 197.21 437.92 195.622C433.749 194.035 430.234 190.621 427.966 185.471L416.603 159.671L420.761 157.84L432.124 183.64C433.855 187.57 436.531 190.36 439.817 191.715C443.109 193.073 446.892 192.94 450.729 191.25C454.566 189.56 457.218 186.859 458.439 183.514C459.658 180.175 459.406 176.317 457.675 172.387L446.313 146.587L450.47 144.756L461.833 170.556C464.101 175.705 464.247 180.603 462.602 184.752C460.956 188.902 457.47 192.42 452.256 194.717Z" fill="black" stroke="#FFCB45" stroke-width="2"/>
<path d="M491.494 139.831L495.665 138.245L492.751 154.967L492.449 156.698L494.091 156.074L499.743 153.925L504.44 166.281C504.722 167.022 505.236 167.617 505.936 167.932C506.637 168.247 507.423 168.235 508.165 167.954L508.524 167.817L509.78 171.123L507.892 171.84C506.196 172.485 504.767 172.456 503.643 171.952C502.52 171.447 501.549 170.399 500.904 168.702L497.372 159.41L497.016 158.476L496.082 158.831L481.027 164.554L480.092 164.909L480.448 165.844L485.905 180.199L481.894 181.724L464.72 136.548L468.731 135.023L478.391 160.434L478.746 161.369L479.681 161.013L488.032 157.839L488.57 157.634L488.663 157.066L491.494 139.831Z" fill="black" stroke="#FFCB45" stroke-width="2"/>
<path d="M528.162 126.681C528.67 126.512 529.198 126.389 529.759 126.278L531.095 130.283C530.06 130.572 529.018 130.919 527.875 131.301L527.849 131.309C521.431 133.451 517.671 139.742 519.86 146.304L526.314 165.646L522.243 167.004L510.929 133.094L514.118 132.03L516.225 136.989L517.378 139.702L518.114 136.848C519.292 132.276 522.959 128.417 528.162 126.681Z" fill="black" stroke="#FFCB45" stroke-width="2"/>
<path d="M555.36 122.117C551.18 123.326 547.61 126.16 545.333 129.953L542.214 128.169C544.941 123.687 549.095 120.38 554.654 118.771C558.659 117.611 562.108 117.777 564.764 119.011C567.4 120.235 569.383 122.569 570.38 126.015L575.382 143.299C575.659 144.256 576.124 145.109 576.968 145.574C577.811 146.038 578.781 145.976 579.738 145.699L580.107 145.592L581.141 149.167C580.819 149.302 580.431 149.442 580.066 149.547C577.908 150.172 576.518 150.156 575.523 149.683C574.539 149.216 573.692 148.184 572.916 146.153L571.939 143.595L571.038 146.18C569.578 150.369 565.741 154.086 560.591 155.577C557.283 156.534 554.268 156.296 551.895 155.138C549.532 153.983 547.724 151.878 546.871 148.931C546.289 146.919 546.318 145.199 546.751 143.702C547.185 142.198 548.045 140.858 549.213 139.641C551.574 137.183 555.087 135.334 558.494 133.759L558.497 133.757L558.652 133.685C561.455 132.375 563.573 131.385 564.849 130.321C565.529 129.755 566.052 129.105 566.302 128.297C566.552 127.489 566.489 126.649 566.236 125.774C565.656 123.771 564.168 122.453 562.205 121.859C560.277 121.275 557.897 121.382 555.36 122.117ZM568.179 132.94L567.633 131.053L566.428 132.604C566.024 133.125 565.378 133.633 564.295 134.246C563.213 134.858 561.782 135.528 559.865 136.412L559.859 136.415L559.852 136.418C559.791 136.448 559.73 136.477 559.668 136.507C557.346 137.619 554.801 138.838 553.034 140.469C552.109 141.323 551.351 142.328 550.948 143.54C550.542 144.763 550.524 146.118 550.958 147.617C551.563 149.706 552.748 151.246 554.462 152.051C556.153 152.845 558.2 152.849 560.403 152.212C563.642 151.274 566.368 149.259 568.099 146.791C569.827 144.327 570.609 141.336 569.788 138.499L568.179 132.94Z" fill="black" stroke="#FFCB45" stroke-width="2"/>
<path d="M582.703 104.083L581.478 99.1873L586.374 97.9626L587.599 102.858L582.703 104.083ZM593.575 145.981L584.899 111.302L589.062 110.26L597.738 144.939L593.575 145.981Z" fill="black" stroke="#FFCB45" stroke-width="2"/>
<path d="M643.751 111.344L648.432 133.767L644.231 134.644L639.936 114.068C639.198 110.533 637.725 107.813 635.581 106.139C633.412 104.447 630.684 103.923 627.673 104.552C620.801 105.987 616.242 111.95 617.706 118.965L621.95 139.295L617.749 140.172L610.445 105.178L613.735 104.492L615.253 109.661L616.084 112.49L617.146 109.74C618.845 105.34 622.931 101.929 628.429 100.782C632.193 99.9961 635.593 100.671 638.251 102.483C640.911 104.298 642.909 107.31 643.751 111.344Z" fill="black" stroke="#FFCB45" stroke-width="2"/>
<path d="M663.051 114.24L661.955 114.413L662.241 115.485C663.232 119.211 665.151 122.172 667.834 124.046C670.524 125.926 673.895 126.65 677.66 126.054C683.432 125.14 686.789 122.621 688.63 119.549L691.986 121.624C689.814 125.074 685.576 128.381 678.338 129.527C672.545 130.444 667.786 129.185 664.274 126.453C660.752 123.713 658.386 119.416 657.542 114.087C656.672 108.591 657.768 103.742 660.299 100.081C662.828 96.4232 666.836 93.8815 671.929 93.075C677.028 92.2677 681.449 93.414 684.813 96.089C688.186 98.7712 690.588 103.065 691.482 108.712C691.543 109.098 691.594 109.422 691.626 109.715L663.051 114.24ZM661.544 110.247L661.556 111.406L662.701 111.225L685.692 107.584L686.816 107.406L686.495 106.315C685.479 102.858 683.66 100.119 681.217 98.3736C678.764 96.6211 675.749 95.9231 672.462 96.4435C669.005 96.991 666.232 98.5942 664.342 101.029C662.459 103.455 661.508 106.633 661.544 110.247Z" fill="black" stroke="#FFCB45" stroke-width="2"/>
<path d="M641.608 301.288L652.372 307.861C655.478 309.758 659.369 309.818 662.532 308.017L673.492 301.777L666.918 312.54C665.021 315.646 664.962 319.538 666.762 322.7L673.003 333.66L662.239 327.087C659.133 325.19 655.242 325.13 652.079 326.931L641.119 333.171L647.693 322.408C649.59 319.302 649.65 315.41 647.849 312.248L641.608 301.288Z" fill="black"/>
<path d="M792.709 201.305C802.509 218.279 802.633 239.911 794.235 264.64C785.837 289.367 768.955 317.068 744.951 346.028C696.948 403.942 620.608 466.719 527.298 520.592C433.987 574.465 341.451 609.189 267.295 621.803C230.212 628.111 197.781 628.881 172.168 623.79C146.553 618.699 127.881 607.776 118.081 590.801C108.281 573.827 108.157 552.195 116.556 527.466C124.953 502.739 141.835 475.038 165.839 446.078C213.842 388.164 290.182 325.387 383.492 271.514C476.803 217.641 569.339 182.917 643.496 170.302C680.578 163.995 713.009 163.225 738.622 168.316C764.237 173.407 782.909 184.33 792.709 201.305Z" stroke="black" stroke-width="2"/>
</svg>
