<svg width="402" height="325" viewBox="0 0 402 325" fill="none" xmlns="http://www.w3.org/2000/svg">
<path d="M136.089 304.314C125.67 305.688 116.705 304.09 109.69 299.166C73.5969 273.836 102.734 170.094 174.769 67.4523C246.804 -35.1894 334.459 -97.8626 370.552 -72.5324C377.568 -67.6085 382.119 -59.722 384.369 -49.4566" stroke="black" stroke-width="2"/>
<path d="M125.33 184.594L120.417 184.036C116.801 183.625 113.247 185.212 111.139 188.179L108.274 192.209L108.832 187.296C109.242 183.679 107.656 180.126 104.689 178.017L100.659 175.152L105.572 175.71C109.188 176.121 112.742 174.534 114.851 171.568L117.715 167.537L117.158 172.45C116.747 176.067 118.334 179.62 121.3 181.729L125.33 184.594Z" fill="black"/>
<path d="M70.0059 274.681C60.7413 268.179 55.366 256.853 53.7263 241.711C52.0869 226.571 54.2009 207.742 59.7907 186.458C70.9682 143.9 95.9863 91.7444 132.222 40.1125C168.458 -11.5193 209 -52.7795 245.223 -77.761C263.338 -90.2541 280.327 -98.6441 295.122 -102.25C309.92 -105.856 322.398 -104.652 331.663 -98.1498C340.927 -91.6478 346.303 -80.3223 347.942 -65.18C349.582 -50.0402 347.468 -31.2108 341.878 -9.92742C330.7 32.6313 305.682 84.7864 269.447 136.418C233.211 188.05 192.669 229.31 156.446 254.292C138.331 266.785 121.342 275.175 106.547 278.781C91.7488 282.387 79.2704 281.183 70.0059 274.681Z" stroke="black" stroke-width="2"/>
</svg>
