<svg width="60" height="206" viewBox="0 0 60 206" fill="none" xmlns="http://www.w3.org/2000/svg">
<path d="M59.1952 196.749C54.6631 197.347 50.7638 196.651 47.7121 194.51C32.0123 183.491 44.6865 138.365 76.0207 93.7179C107.355 49.0705 145.483 21.8086 161.183 32.8269C164.235 34.9686 166.214 38.3992 167.193 42.8645" stroke="black" stroke-width="1.27697"/>
<path d="M54.517 144.672L53.5727 144.565C51.2637 144.303 48.9947 145.316 47.6484 147.21L47.0978 147.985L47.205 147.041C47.4671 144.732 46.4541 142.463 44.56 141.116L43.7854 140.566L44.7297 140.673C47.0386 140.935 49.3077 139.922 50.6539 138.028L51.2045 137.253L51.0973 138.198C50.8353 140.507 51.8483 142.776 53.7423 144.122L54.517 144.672Z" fill="black"/>
<path d="M30.568 183.692C26.6036 180.91 24.2818 176.049 23.5721 169.496C22.8626 162.944 23.7766 154.78 26.2045 145.535C31.059 127.052 41.9289 104.387 57.6808 81.9425C73.4326 59.4979 91.0514 41.5696 106.783 30.72C114.651 25.2937 122.018 21.6584 128.421 20.0979C134.826 18.5371 140.186 19.068 144.151 21.8503C148.115 24.6326 150.437 29.4932 151.147 36.0469C151.856 42.599 150.942 50.763 148.514 60.0073C143.66 78.4908 132.79 101.156 117.038 123.6C101.286 146.045 83.6674 163.973 67.9355 174.823C60.0674 180.249 52.7005 183.884 46.2975 185.445C39.893 187.005 34.5325 186.475 30.568 183.692Z" stroke="black" stroke-width="1.27697"/>
</svg>
