<svg width="37" height="37" viewBox="0 0 37 37" fill="none" xmlns="http://www.w3.org/2000/svg">
<g id="Group 37837">
<g id="Group 6">
<path id="Vector" d="M18.5 37C28.7173 37 37 28.7173 37 18.5C37 8.28273 28.7173 0 18.5 0C8.28273 0 0 8.28273 0 18.5C0 28.7173 8.28273 37 18.5 37Z" fill="#FFCB45"/>
</g>
<g id="XMLID_834_">
<path id="XMLID_835_" d="M14.1727 19.464H16.1161V27.4647C16.1161 27.6227 16.2441 27.7507 16.402 27.7507H19.6971C19.8551 27.7507 19.9831 27.6227 19.9831 27.4647V19.5017H22.2172C22.3625 19.5017 22.4847 19.3927 22.5013 19.2484L22.8406 16.303C22.8499 16.2219 22.8242 16.1408 22.77 16.08C22.7157 16.0191 22.6381 15.9843 22.5566 15.9843H19.9832V14.138C19.9832 13.5814 20.2829 13.2991 20.874 13.2991C20.9583 13.2991 22.5566 13.2991 22.5566 13.2991C22.7145 13.2991 22.8425 13.1711 22.8425 13.0132V10.3096C22.8425 10.1516 22.7145 10.0236 22.5566 10.0236H20.2378C20.2214 10.0228 20.1851 10.0215 20.1316 10.0215C19.7292 10.0215 18.3307 10.1005 17.226 11.1167C16.002 12.2429 16.1722 13.5914 16.2128 13.8252V15.9843H14.1727C14.0147 15.9843 13.8867 16.1123 13.8867 16.2702V19.178C13.8867 19.336 14.0147 19.464 14.1727 19.464Z" fill="black"/>
</g>
</g>
</svg>
