<svg width="159" height="73" viewBox="0 0 159 73" fill="none" xmlns="http://www.w3.org/2000/svg">
<g id="Logo">
<g id="Logo_2">
<rect id="mid" width="122.814" height="36.8871" fill="black"/>
<g id="The Residence of freedom">
<path d="M68.0693 43.9958V45.159H65.3762V51.6167H64.0994V45.159H61.4062V43.9958H68.0693Z" fill="black"/>
<path d="M74.4531 43.9958H75.7099V51.6167H74.4531V48.2876H70.6627V51.6167H69.4059V43.9958H70.6627V47.1244H74.4531V43.9958Z" fill="black"/>
<path d="M79.2409 50.4936H83.3106V51.6167H77.9841V43.9958H83.2108V45.1189H79.2409V47.1645H82.3131V48.2475H79.2409V50.4936Z" fill="black"/>
<path d="M92.8463 51.6167L91.0709 48.6486H89.2754V51.6167H88.0386V43.9958H91.1706C92.8264 43.9958 93.8638 44.8983 93.8638 46.3222C93.8638 47.365 93.3052 48.1271 92.3676 48.4681L94.2827 51.6167H92.8463ZM89.2754 45.0988V47.6057H91.0509C92.0683 47.6057 92.567 47.1645 92.567 46.3422C92.567 45.52 92.0683 45.0988 91.0509 45.0988H89.2754Z" fill="black"/>
<path d="M97.0357 50.4936H101.105V51.6167H95.7789V43.9958H101.006V45.1189H97.0357V47.1645H100.108V48.2475H97.0357V50.4936Z" fill="black"/>
<path d="M104.956 51.717C103.779 51.717 102.681 51.3359 101.903 50.614L102.641 49.6513C103.28 50.273 104.158 50.614 105.055 50.614C106.093 50.614 106.711 50.2129 106.711 49.551C106.711 48.9895 106.252 48.7488 104.995 48.3878C103.559 47.9667 102.183 47.5255 102.183 46.0615C102.183 44.7378 103.32 43.8955 105.055 43.8955C106.113 43.8955 107.01 44.1963 107.788 44.798L107.09 45.7606C106.532 45.2994 105.813 44.9985 104.976 44.9985C104.038 44.9985 103.439 45.3996 103.439 46.0013C103.439 46.5628 103.938 46.8436 105.235 47.1845C106.97 47.6258 107.968 48.1672 107.968 49.4307C107.968 50.8346 106.831 51.717 104.956 51.717Z" fill="black"/>
<path d="M109.584 51.6167V43.9958H110.841V51.6167H109.584Z" fill="black"/>
<path d="M115.888 43.9958C118.302 43.9958 119.638 45.4999 119.638 47.8063C119.638 50.0524 118.242 51.6167 115.888 51.6167H113.115V43.9958H115.888ZM115.888 50.5137C117.424 50.5137 118.342 49.4708 118.342 47.8063C118.342 46.1417 117.424 45.0988 115.888 45.0988H114.372V50.5137H115.888Z" fill="black"/>
<path d="M122.591 50.4936H126.66V51.6167H121.334V43.9958H126.561V45.1189H122.591V47.1645H125.663V48.2475H122.591V50.4936Z" fill="black"/>
<path d="M133.343 43.9958H134.54V51.6167H133.323L129.393 45.9812V51.6167H128.196V43.9958H129.433L133.343 49.5912V43.9958Z" fill="black"/>
<path d="M139.847 51.717C137.652 51.717 136.236 50.1728 136.236 47.8063C136.236 45.4799 137.712 43.8955 139.847 43.8955C141.403 43.8955 142.58 44.6977 143.019 46.1417L141.842 46.5628C141.543 45.52 140.844 44.9985 139.827 44.9985C138.45 44.9985 137.533 46.1016 137.533 47.8063C137.533 49.551 138.411 50.614 139.827 50.614C140.844 50.614 141.543 50.0925 141.842 49.0497L143.019 49.4708C142.58 50.8747 141.403 51.717 139.847 51.717Z" fill="black"/>
<path d="M145.792 50.4936H149.861V51.6167H144.535V43.9958H149.762V45.1189H145.792V47.1645H148.864V48.2475H145.792V50.4936Z" fill="black"/>
<path d="M65.4161 64.5523C63.2017 64.5523 61.7653 63.008 61.7653 60.6415C61.7653 58.3151 63.2615 56.7308 65.4161 56.7308C67.6304 56.7308 69.0668 58.275 69.0668 60.6415C69.0668 62.9679 67.5706 64.5523 65.4161 64.5523ZM65.4161 63.4492C66.8524 63.4492 67.7701 62.3261 67.7701 60.6415C67.7701 58.9569 66.8524 57.8338 65.4161 57.8338C63.9797 57.8338 63.062 58.9569 63.062 60.6415C63.062 62.3261 63.9797 63.4492 65.4161 63.4492Z" fill="black"/>
<path d="M76.0091 57.9742H72.0193V60.0399H75.1114V61.1429H72.0193V64.452H70.7625V56.831H76.0091V57.9742Z" fill="black"/>
<path d="M85.8042 57.9742H81.8144V60.0399H84.9065V61.1429H81.8144V64.452H80.5576V56.831H85.8042V57.9742Z" fill="black"/>
<path d="M91.9686 64.452L90.1931 61.4838H88.3976V64.452H87.1608V56.831H90.2928C91.9486 56.831 92.986 57.7335 92.986 59.1574C92.986 60.2003 92.4274 60.9624 91.4898 61.3033L93.4049 64.452H91.9686ZM88.3976 57.9341V60.441H90.1731C91.1905 60.441 91.6893 59.9998 91.6893 59.1775C91.6893 58.3552 91.1905 57.9341 90.1731 57.9341H88.3976Z" fill="black"/>
<path d="M96.1579 63.3289H100.228V64.452H94.9011V56.831H100.128V57.9541H96.1579V59.9998H99.2301V61.0827H96.1579V63.3289Z" fill="black"/>
<path d="M103.02 63.3289H107.09V64.452H101.764V56.831H106.99V57.9541H103.02V59.9998H106.093V61.0827H103.02V63.3289Z" fill="black"/>
<path d="M111.501 56.831C113.915 56.831 115.252 58.3352 115.252 60.6415C115.252 62.8877 113.855 64.452 111.501 64.452H108.728V56.831H111.501ZM111.501 63.349C113.037 63.349 113.955 62.3061 113.955 60.6415C113.955 58.9769 113.037 57.9341 111.501 57.9341H109.985V63.349H111.501Z" fill="black"/>
<path d="M120.02 64.5523C117.805 64.5523 116.369 63.008 116.369 60.6415C116.369 58.3151 117.865 56.7308 120.02 56.7308C122.234 56.7308 123.67 58.275 123.67 60.6415C123.67 62.9679 122.174 64.5523 120.02 64.5523ZM120.02 63.4492C121.456 63.4492 122.374 62.3261 122.374 60.6415C122.374 58.9569 121.456 57.8338 120.02 57.8338C118.583 57.8338 117.666 58.9569 117.666 60.6415C117.666 62.3261 118.583 63.4492 120.02 63.4492Z" fill="black"/>
<path d="M133.825 56.831V64.452H132.608V58.275L130.294 64.452H128.897L126.583 58.275V64.452H125.366V56.831H127.301L129.615 62.9679L131.909 56.831H133.825Z" fill="black"/>
</g>
<g id="Ukraine">
<path d="M18.966 26.1898C14.8892 26.1898 12.4277 23.7543 12.4277 19.9832V11.0661H15.7353V19.8654C15.7353 21.9866 16.8891 23.2044 18.966 23.2044C21.0429 23.2044 22.1967 21.9866 22.1967 19.8654V11.0661H25.5043V19.9832C25.5043 23.7543 23.0428 26.1898 18.966 26.1898Z" fill="white"/>
<path d="M40.6192 22.2616C40.6192 22.6544 40.8884 22.9294 41.273 22.9294H41.8115V25.9934H40.1192C38.3116 25.9934 37.3116 25.0113 37.3116 23.2044V19.9439H32.5425V25.9934H29.2349V11.0661H32.5425V16.9585H34.7348L38.1962 11.0661H41.8115L38.0808 16.9585H40.6192V22.2616Z" fill="white"/>
<path d="M56.6956 22.9294H57.2341V25.9934H55.5418C53.7727 25.9934 52.7342 25.0113 52.7342 23.2044V20.4939H47.8498V25.9934H44.5422V11.0661H51.3112C54.6572 11.0661 56.6572 12.6374 56.6572 15.23C56.6572 17.2334 55.1957 18.5298 53.5803 19.0404H56.0418V22.2616C56.0418 22.6544 56.311 22.9294 56.6956 22.9294ZM50.8112 13.8159H47.8498V17.9012H50.8112C52.5035 17.9012 53.3496 17.2727 53.3496 15.8586C53.3496 14.4837 52.5035 13.8159 50.8112 13.8159Z" fill="white"/>
<path d="M69.926 25.9934L68.8876 23.0472H62.5032L61.4647 25.9934H58.0033L63.6954 11.0661H67.7722L73.4644 25.9934H69.926ZM63.5416 20.1403H67.8492L65.6954 14.0123L63.5416 20.1403Z" fill="white"/>
<path d="M75.6182 25.9934V11.0661H78.9257V25.9934H75.6182Z" fill="white"/>
<path d="M92.5023 11.0661H95.6945V25.9934H92.6176L86.0409 16.4871V25.9934H82.8487V11.0661H85.964L92.5023 20.5724V11.0661Z" fill="white"/>
<path d="M102.848 23.0472H110.386V25.9934H99.6174V11.0661H110.194V14.0123H102.848V16.9192H108.463V19.7475H102.848V23.0472Z" fill="white"/>
</g>
<path id="dowm" fill-rule="evenodd" clip-rule="evenodd" d="M157.539 36.8871H53.3664V70.8232H157.539V36.8871ZM51.9043 35.4116V72.2987H159.001V35.4116H51.9043Z" fill="black"/>
</g>
</g>
</svg>
