<svg width="45" height="8" viewBox="0 0 45 8" fill="none" xmlns="http://www.w3.org/2000/svg">
<path fill-rule="evenodd" clip-rule="evenodd" d="M12.2871 0.237458C12.45 0.183146 12.8061 0.116766 13.0716 0.0926277C13.3371 0.0684893 13.7837 0.0684893 14.0673 0.0926277C14.3509 0.116766 14.713 0.183146 14.882 0.237458C15.0449 0.291769 15.3587 0.424529 15.5759 0.539187C15.7932 0.647809 16.1492 0.91333 16.3665 1.11851C16.5898 1.32972 16.8794 1.67369 17.0182 1.89093C17.157 2.10818 17.3199 2.44611 17.3863 2.64525C17.4527 2.8444 17.5372 3.21251 17.5734 3.45992C17.6096 3.71338 17.6217 4.08752 17.6036 4.30476C17.5794 4.52201 17.5312 4.8177 17.4949 4.96857C17.4648 5.11943 17.326 5.46944 17.1872 5.75306C16.9941 6.16341 16.8492 6.36256 16.457 6.7548C16.0708 7.14102 15.8656 7.29188 15.4553 7.49102C15.1716 7.62378 14.7311 7.78068 14.4777 7.82896C14.2182 7.88327 13.8018 7.92551 13.5544 7.92551C13.3069 7.92551 12.8906 7.88327 12.6371 7.82896C12.3776 7.78068 11.9492 7.62982 11.6836 7.50309C11.3879 7.3643 11.05 7.13498 10.8147 6.91774C10.6035 6.72463 10.3017 6.37462 10.1509 6.14531C9.99396 5.916 9.80085 5.51771 9.72241 5.2703C9.58964 4.87805 9.57154 4.70908 9.57154 3.97286C9.57154 3.26078 9.58964 3.06768 9.7043 2.73577C9.77672 2.51853 9.96982 2.13835 10.1328 1.89093C10.2897 1.64351 10.5974 1.28144 10.8147 1.08833C11.0259 0.895227 11.3759 0.647809 11.5931 0.539187C11.8104 0.430564 12.1181 0.291769 12.2871 0.237458ZM2.84298 0.315907C3.02402 0.243492 3.28351 0.165043 3.41627 0.140904C3.54903 0.110731 4.06197 0.0926277 4.56284 0.104697C5.29906 0.122801 5.54044 0.152973 5.86027 0.255561C6.07752 0.334011 6.42752 0.496944 6.64477 0.623671C6.86201 0.756431 7.1034 0.91333 7.33875 1.09437L6.28269 2.3737L5.99303 2.16852C5.83614 2.0599 5.60079 1.90904 5.46803 1.84266C5.33527 1.77628 5.03354 1.68576 4.80422 1.64955C4.56887 1.60731 4.23697 1.5892 4.0499 1.61334C3.86886 1.63748 3.5792 1.71593 3.41627 1.79438C3.2473 1.87283 2.98178 2.07197 2.81885 2.2349C2.64384 2.40387 2.4447 2.6875 2.33608 2.91681C2.16108 3.28492 2.14901 3.3513 2.14901 4.00303C2.14901 4.6608 2.16108 4.71512 2.34211 5.10133C2.45074 5.33064 2.65591 5.62634 2.80074 5.76513C2.94557 5.90996 3.19299 6.091 3.35592 6.16945C3.52489 6.2479 3.83266 6.33842 4.0499 6.37462C4.33353 6.41687 4.56284 6.41687 4.87664 6.36859C5.11802 6.32635 5.46803 6.22376 5.987 5.96427L5.98097 4.84788H4.29128V3.39958H7.6103V6.7186L7.44737 6.85739C7.35082 6.92981 7.11547 7.09274 6.91633 7.21343C6.71718 7.33412 6.36114 7.50913 6.13183 7.59361C5.90252 7.68413 5.51027 7.79275 5.27492 7.84103C5.03354 7.8893 4.61715 7.92551 4.35163 7.92551C4.08611 7.92551 3.65765 7.88327 3.4042 7.83499C3.12057 7.78068 2.72833 7.64792 2.42056 7.49102C2.02832 7.29792 1.799 7.12895 1.449 6.78498C1.11106 6.441 0.936057 6.21169 0.779158 5.87375C0.658467 5.62634 0.513637 5.22805 0.459325 4.99874C0.380876 4.67287 0.362772 4.40735 0.38691 3.822C0.411049 3.23061 0.447256 2.98319 0.561913 2.67543C0.640363 2.45818 0.779158 2.15645 0.869677 1.99352C0.960196 1.83662 1.20158 1.52886 1.40675 1.30558C1.61796 1.08833 1.94987 0.798673 2.14901 0.671947C2.34815 0.545221 2.66195 0.382287 2.84298 0.315907ZM29.1839 0.454702C29.1055 0.629705 28.3693 2.30732 27.5486 4.18407C27.2714 4.82261 27.0089 5.42692 26.7822 5.94876L26.7628 5.99345L26.7625 5.99398L26.7615 5.99626L26.7615 5.99633L26.7591 6.00198C26.3319 6.98519 26.0374 7.66312 26.0218 7.70223C25.9856 7.80482 26.0339 7.81085 26.6735 7.79275L27.3554 7.77465L28.1098 6.02462H31.7607L32.5029 7.80482C33.8547 7.80482 33.8607 7.80482 33.8305 7.66602C33.8185 7.59361 33.4383 6.69446 32.9857 5.66254C32.6811 4.95855 32.2444 3.96246 31.8578 3.08049L31.8572 3.0792C31.6773 2.66886 31.5083 2.28326 31.3684 1.96335L30.5719 0.140904H29.3288L29.1839 0.454702ZM36.6789 5.52375C36.7151 5.43323 37.1315 4.18407 37.6082 2.74784L38.4651 0.13487L39.5936 0.140904L40.5108 2.91681C41.0177 4.44356 41.4462 5.69272 41.4643 5.69272C41.4824 5.69272 41.6514 5.20995 41.8445 4.61856C42.0376 4.03321 42.4419 2.79612 43.2747 0.195216H43.9686C44.3488 0.195216 44.6626 0.207285 44.6626 0.213319C44.6626 0.218915 44.3565 1.11168 43.9656 2.25181L43.8721 2.52456C43.4376 3.78579 42.8462 5.49358 42.0315 7.83499L40.891 7.8712L40.4746 6.67635L40.2827 6.11061L40.2824 6.1097C40.0678 5.47692 39.8036 4.69791 39.6177 4.1539C39.3703 3.42372 39.1349 2.74784 39.0927 2.65732C39.0505 2.56077 39.0082 2.48836 38.9901 2.48836C38.972 2.48836 38.622 3.4901 38.2056 4.70908C37.7953 5.92807 37.3849 7.12895 37.1375 7.82896L36.003 7.8712L35.8702 7.52119C35.8099 7.36033 35.6658 6.94819 35.5217 6.53596L35.4357 6.29014C35.2728 5.81341 34.7538 4.30476 34.2831 2.94095C33.8185 1.58317 33.4081 0.406426 33.3176 0.195216L34.7901 0.225388L35.1944 1.49265C35.3347 1.92105 35.5361 2.54834 35.7307 3.1546L35.7317 3.15774C35.8547 3.54102 35.975 3.91575 36.0754 4.22631C36.3349 5.02891 36.5582 5.69272 36.5763 5.69272C36.5944 5.69272 36.6366 5.6203 36.6789 5.52375ZM19.3777 4.00303V7.80482H24.7485V6.5979L20.7355 6.56773L20.7053 0.20125H19.3777V4.00303ZM13.0414 1.65553C12.8905 1.68571 12.6491 1.77019 12.4983 1.84864C12.3534 1.92106 12.1121 2.09606 11.9733 2.24089C11.8284 2.37968 11.6233 2.67538 11.5207 2.90469C11.3517 3.24866 11.3215 3.38746 11.3034 3.85212C11.2853 4.22023 11.3095 4.50386 11.3758 4.72713C11.4241 4.90817 11.5569 5.1918 11.6655 5.35473C11.7741 5.51766 11.9733 5.74698 12.106 5.8556C12.2388 5.96422 12.4681 6.12112 12.619 6.19354C12.8543 6.30819 12.9871 6.3263 13.5845 6.3263C14.2242 6.3263 14.3026 6.31423 14.5983 6.16336C14.7673 6.06681 15.0388 5.86767 15.1897 5.71077C15.3406 5.54784 15.5337 5.28835 15.6121 5.11938C15.6966 4.95645 15.7871 4.63058 15.8233 4.39523C15.8656 4.10557 15.8656 3.84609 15.8173 3.58056C15.7871 3.36332 15.6845 3.03745 15.594 2.85642C15.5035 2.67538 15.3104 2.40382 15.1595 2.25296C15.0026 2.10209 14.7612 1.91502 14.6104 1.84261C14.4595 1.77019 14.188 1.68571 14.0069 1.6495C13.8259 1.61329 13.5905 1.58915 13.494 1.59519C13.3974 1.60122 13.1922 1.62536 13.0414 1.65553ZM29.8235 1.96933C29.7934 2.04175 29.5218 2.68141 29.2201 3.38746C28.9184 4.08747 28.6709 4.69093 28.6709 4.72713C28.6709 4.76334 29.1356 4.78748 29.9382 4.78748C30.6322 4.78748 31.2055 4.76938 31.2055 4.74524C31.2055 4.71507 30.9279 4.05126 30.5899 3.26073C30.246 2.4702 29.9503 1.83054 29.9201 1.83054C29.896 1.83054 29.8537 1.89088 29.8235 1.96933Z" fill="black"/>
</svg>
