<svg width="118" height="22" viewBox="0 0 118 22" fill="none" xmlns="http://www.w3.org/2000/svg">
<path fill-rule="evenodd" clip-rule="evenodd" d="M24.1502 21.0301L12.162 0.96991L0.173828 21.0301H24.1502ZM4.76142 18.514L12.1331 6.17886L19.5047 18.514H4.76142Z" fill="black"/>
<path fill-rule="evenodd" clip-rule="evenodd" d="M99.869 4.06235C99.869 4.75478 99.3026 5.31611 98.604 5.31611C97.9053 5.31611 97.3389 4.75478 97.3389 4.06235C97.3389 3.36992 97.9053 2.80859 98.604 2.80859C99.3026 2.80859 99.869 3.36992 99.869 4.06235ZM43.375 7.9134C42.6834 7.53448 41.899 7.34503 41.0219 7.34503C40.4034 7.34503 39.8383 7.4509 39.3267 7.66265C38.815 7.87439 38.3849 8.19201 38.0363 8.6155V7.38563H36.029V20.9883H38.1375V15.2855C38.846 16.0879 39.8074 16.4891 41.0219 16.4891C41.899 16.4891 42.6834 16.2997 43.375 15.9207C44.0665 15.5418 44.6091 15.0041 45.0027 14.3076C45.3963 13.611 45.5931 12.8114 45.5931 11.9087C45.5931 11.006 45.3963 10.2092 45.0027 9.51821C44.6091 8.82725 44.0665 8.29232 43.375 7.9134ZM28.4648 16.2001C29.162 16.3932 29.8761 16.4897 30.607 16.4897C31.8665 16.4897 32.8617 16.2342 33.5926 15.7232C34.3236 15.2122 34.689 14.5309 34.689 13.6792C34.689 13.032 34.5232 12.5324 34.1914 12.1803C33.8597 11.8283 33.4633 11.5785 33.0023 11.4309C32.5412 11.2833 31.9508 11.1527 31.2312 11.0391C30.5115 10.9142 30.0881 10.8027 29.7576 10.6389C29.4272 10.475 29.2488 10.2998 29.2432 9.91496C29.2432 9.62491 29.5264 9.41995 29.7576 9.29985C29.9888 9.17975 30.4696 9.05095 31.0287 9.05095C31.9846 9.05095 32.828 9.30258 33.5926 9.7568L34.4023 8.13867C34.0087 7.9002 33.5027 7.71001 32.8842 7.56806C32.2657 7.42612 31.6472 7.35515 31.0287 7.35515C29.8143 7.35515 28.9705 7.61348 28.2564 8.13015C27.5423 8.64682 27.1853 9.15415 27.1853 10.0172C27.1853 10.6758 27.3568 11.1896 27.6998 11.5586C28.0427 11.9277 28.4476 12.186 28.9142 12.3336C29.3809 12.4813 29.8649 12.6118 30.607 12.7254C31.3155 12.839 31.8746 12.9593 32.1504 13.0831C32.4263 13.2069 32.6312 13.4482 32.6312 13.7474C32.6312 14.3687 32.0015 14.7523 30.742 14.7523C30.191 14.7523 29.6315 14.67 29.0636 14.5053C28.4958 14.3407 28.0094 14.1221 27.6046 13.8496L26.7949 15.4677C27.211 15.7629 27.7676 16.0071 28.4648 16.2001ZM40.7855 14.6985C41.5614 14.6985 42.1995 14.4421 42.6999 13.9295C43.2004 13.4168 43.4506 12.7426 43.4506 11.9068C43.4506 11.0709 43.2004 10.3967 42.6999 9.88403C42.1995 9.37138 41.5614 9.11506 40.7855 9.11506C40.2794 9.11506 39.824 9.22929 39.4192 9.45776C39.0143 9.68622 38.6938 10.0122 38.4577 10.4357C38.2215 10.8592 38.1035 11.3495 38.1035 11.9068C38.1035 12.464 38.2215 12.9543 38.4577 13.3778C38.6938 13.8013 39.0143 14.1273 39.4192 14.3558C39.824 14.5842 40.2794 14.6985 40.7855 14.6985ZM54.0966 16.4318H56.1039V7.38563H53.9954V8.53192C53.6355 8.14186 53.211 7.84653 52.7219 7.64593C52.2327 7.44533 51.6957 7.34503 51.111 7.34503C50.2339 7.34503 49.4495 7.53448 48.7579 7.9134C48.0663 8.29232 47.5266 8.82446 47.1386 9.50985C46.7507 10.1952 46.5567 10.9949 46.5567 11.9087C46.5567 12.8226 46.7507 13.625 47.1386 14.3159C47.5266 15.0069 48.0663 15.5418 48.7579 15.9207C49.4495 16.2997 50.2339 16.4891 51.111 16.4891C51.7295 16.4891 52.2945 16.3832 52.8062 16.1715C53.3179 15.9597 53.748 15.6421 54.0966 15.2186V16.4318ZM51.3476 14.6985C52.1235 14.6985 52.7645 14.4421 53.2705 13.9295C53.7765 13.4168 54.0296 12.7426 54.0296 11.9068C54.0296 11.0709 53.7765 10.3967 53.2705 9.88403C52.7645 9.37138 52.1235 9.11506 51.3476 9.11506C50.5716 9.11506 49.9335 9.37138 49.4331 9.88403C48.9327 10.3967 48.6825 11.0709 48.6825 11.9068C48.6825 12.7426 48.9327 13.4168 49.4331 13.9295C49.9335 14.4421 50.5716 14.6985 51.3476 14.6985ZM60.0076 15.904C60.7498 16.2941 61.5876 16.4891 62.5209 16.4891C63.3981 16.4891 64.1712 16.308 64.8403 15.9458C65.5094 15.5836 66.0182 15.0682 66.3668 14.3995L64.7475 13.4634C64.4888 13.8757 64.1656 14.185 63.7776 14.3912C63.3896 14.5973 62.9651 14.7004 62.5041 14.7004C61.7057 14.7004 61.0506 14.4469 60.539 13.9398C60.0273 13.4327 59.7715 12.7557 59.7715 11.9087C59.7715 11.0617 60.0301 10.3847 60.5474 9.87762C61.0647 9.37054 61.7169 9.11701 62.5041 9.11701C62.9651 9.11701 63.3896 9.22009 63.7776 9.42627C64.1656 9.63244 64.4888 9.9417 64.7475 10.3541L66.3668 9.41791C66.0294 8.74924 65.5262 8.23659 64.8571 7.87997C64.188 7.52334 63.4093 7.34503 62.5209 7.34503C61.5763 7.34503 60.7358 7.54006 59.9992 7.93012C59.2626 8.32018 58.6863 8.86068 58.2703 9.55164C57.8542 10.2426 57.6461 11.0283 57.6461 11.9087C57.6461 12.7891 57.8542 13.5776 58.2703 14.2741C58.6863 14.9707 59.2655 15.514 60.0076 15.904ZM76.4003 11.9589C76.4003 12.1037 76.389 12.3099 76.3665 12.5774H69.2989C69.4226 13.2349 69.7459 13.7559 70.2688 14.1404C70.7917 14.5249 71.4411 14.7171 72.2171 14.7171C73.2066 14.7171 74.0219 14.3939 74.6629 13.7476L75.793 15.0348C75.3882 15.514 74.8765 15.8762 74.2581 16.1213C73.6396 16.3665 72.9424 16.4891 72.1665 16.4891C71.1769 16.4891 70.3054 16.2941 69.5519 15.904C68.7985 15.514 68.2166 14.9707 67.8061 14.2741C67.3957 13.5776 67.1904 12.7891 67.1904 11.9087C67.1904 11.0394 67.39 10.2565 67.7893 9.56C68.1885 8.86347 68.7423 8.32018 69.4507 7.93012C70.1592 7.54006 70.9576 7.34503 71.846 7.34503C72.7231 7.34503 73.5074 7.53727 74.199 7.92176C74.8906 8.30625 75.4304 8.84675 75.8183 9.54329C76.2063 10.2398 76.4003 11.045 76.4003 11.9589ZM70.0133 9.60873C70.48 9.21309 71.0507 9.01528 71.7254 9.01528C72.4114 9.01528 72.9849 9.21588 73.4459 9.61709C73.907 10.0183 74.1825 10.5421 74.2724 11.1885H69.1615C69.2627 10.5309 69.5466 10.0044 70.0133 9.60873ZM80.9764 16.4904C80.2454 16.4904 79.5314 16.3939 78.8342 16.2008C78.1369 16.0078 77.5803 15.7637 77.1642 15.4684L77.9739 13.8503C78.3787 14.1228 78.8651 14.3414 79.433 14.5061C80.0008 14.6707 80.5603 14.753 81.1113 14.753C82.3708 14.753 83.0005 14.3694 83.0005 13.7481C83.0005 13.4489 82.7956 13.2076 82.5198 13.0838C82.2439 12.96 81.6848 12.8397 80.9764 12.7261C80.2342 12.6126 79.7502 12.482 79.2836 12.3344C78.8169 12.1867 78.2898 11.79 78.1039 11.5565C77.7798 11.1641 77.5546 10.6396 77.5546 10.0179C77.5546 9.39618 77.9116 8.64754 78.6257 8.13087C79.3398 7.6142 80.1836 7.35587 81.3981 7.35587C82.0165 7.35587 82.382 7.40166 83.0005 7.5436C83.619 7.68555 84.0662 7.89866 84.5306 8.13939L83.7812 9.63811C83.1596 9.30057 82.2764 9.05167 81.3981 9.05167C80.8389 9.05167 80.3582 9.18047 80.1269 9.30057C79.8957 9.42067 79.6125 9.62564 79.6125 9.91568C79.6181 10.3005 79.7965 10.4757 80.1269 10.6396C80.4574 10.8035 80.8808 10.9149 81.6005 11.0399C82.3202 11.1534 82.9105 11.284 83.3716 11.4316C83.8326 11.5792 84.229 11.8291 84.5608 12.1811C84.8925 12.5331 85.0584 13.0327 85.0584 13.68C85.0584 14.5316 84.6929 15.2129 83.962 15.7239C83.231 16.2349 82.2358 16.4904 80.9764 16.4904ZM93.7349 7.9134C93.0433 7.53448 92.259 7.34503 91.3818 7.34503C90.7633 7.34503 90.1983 7.4509 89.6866 7.66265C89.1749 7.87439 88.7448 8.19201 88.3962 8.6155V7.38563H86.389V20.9883H88.4974V15.2855C89.2059 16.0879 90.1673 16.4891 91.3818 16.4891C92.259 16.4891 93.0433 16.2997 93.7349 15.9207C94.4265 15.5418 94.969 15.0041 95.3626 14.3076C95.7562 13.611 95.953 12.8114 95.953 11.9087C95.953 11.006 95.7562 10.2092 95.3626 9.51821C94.969 8.82725 94.4265 8.29232 93.7349 7.9134ZM91.0854 14.6985C91.8613 14.6985 92.4994 14.4421 92.9999 13.9295C93.5003 13.4168 93.7505 12.7426 93.7505 11.9068C93.7505 11.0709 93.5003 10.3967 92.9999 9.88403C92.4994 9.37138 91.8613 9.11506 91.0854 9.11506C90.5793 9.11506 90.1239 9.22929 89.7191 9.45776C89.3142 9.68622 88.9938 10.0122 88.7576 10.4357C88.5215 10.8592 88.4034 11.3495 88.4034 11.9068C88.4034 12.464 88.5215 12.9543 88.7576 13.3778C88.9938 13.8013 89.3142 14.1273 89.7191 14.3558C90.1239 14.5842 90.5793 14.6985 91.0854 14.6985ZM99.6874 7.40577H97.5789V16.4519H99.6874V7.40577ZM107.143 7.34503C105.614 7.34503 104.545 7.81309 103.938 8.74924V7.38563H101.931V16.4318H104.039V12.0424C104.039 11.1509 104.27 10.4683 104.731 9.99464C105.192 9.52099 105.833 9.28418 106.654 9.28418C106.8 9.28418 106.963 9.30089 107.143 9.33433V7.34503ZM117.002 11.9589C117.002 12.1037 116.991 12.3099 116.968 12.5774H109.901C110.024 13.2349 110.348 13.7559 110.87 14.1404C111.393 14.5249 112.043 14.7171 112.819 14.7171C113.808 14.7171 114.623 14.3939 115.264 13.7476L116.395 15.0348C115.99 15.514 115.478 15.8762 114.86 16.1213C114.241 16.3665 113.544 16.4891 112.768 16.4891C111.778 16.4891 110.907 16.2941 110.154 15.904C109.4 15.514 108.818 14.9707 108.408 14.2741C107.997 13.5776 107.792 12.7891 107.792 11.9087C107.792 11.0394 107.992 10.2565 108.391 9.56C108.79 8.86347 109.344 8.32018 110.052 7.93012C110.761 7.54006 111.559 7.34503 112.448 7.34503C113.325 7.34503 114.109 7.53727 114.801 7.92176C115.492 8.30625 116.032 8.84675 116.42 9.54329C116.808 10.2398 117.002 11.045 117.002 11.9589ZM110.916 9.60882C111.383 9.21318 111.954 9.01537 112.629 9.01537C113.314 9.01537 113.888 9.21597 114.349 9.61718C114.81 10.0184 115.086 10.5422 115.176 11.1886H110.065C110.166 10.531 110.45 10.0044 110.916 9.60882Z" fill="black"/>
<ellipse cx="2.46303" cy="5.0889" rx="2.2892" ry="2.26871" fill="black"/>
</svg>
