<svg width="120" height="34" viewBox="0 0 120 34" fill="none" xmlns="http://www.w3.org/2000/svg">
<path fill-rule="evenodd" clip-rule="evenodd" d="M20.307 6.09098H16.4654C13.4557 6.09098 11.0058 8.55491 11.0058 11.5459C11.0058 14.5369 13.4557 17 16.4654 17H20.307V22.4541H16.4654C14.0418 22.4542 11.6863 21.6573 9.76599 20.1878C7.84578 18.7184 6.46873 16.6588 5.84953 14.3302C5.44379 15.9371 5.41128 17.6148 5.75449 19.2361C6.0977 20.8574 6.80762 22.3798 7.8305 23.6881C8.85335 24.9964 10.1624 26.0562 11.6584 26.7874C13.1544 27.5185 14.7983 27.9017 16.4654 27.9081H20.307V33.3631H16.4654C7.37821 33.3544 0 26.0316 0 17C0 8.06488 7.2205 0.803977 16.1716 0.641208C16.2695 0.636902 20.307 0.636902 20.307 0.636902V6.09098ZM31.2844 14.7904V19.2076C31.2844 22.3389 33.191 24.1329 36.7129 24.1346C38.2069 24.1346 39.4461 23.7445 40.4098 22.9427C41.3734 22.1409 41.8648 20.9292 41.8648 19.3075V19.112H38.797V19.3075C38.797 20.7733 37.8334 21.3598 36.5161 21.3598C35.0608 21.3598 34.3332 20.7147 34.3332 19.4246V14.5777C34.3332 13.2876 35.0608 12.6425 36.5161 12.6425C37.7944 12.6425 38.797 13.2876 38.797 14.6949V14.8903H41.8648V14.6949C41.8648 13.0706 41.3734 11.8795 40.4098 11.0777C39.4461 10.2759 38.2069 9.86599 36.7129 9.86599C33.191 9.86599 31.2844 11.6633 31.2844 14.7904ZM43.6331 17.1176C43.6331 14.8698 45.2657 13.3282 48.1758 13.3282C51.0858 13.3282 52.6994 14.8724 52.6994 17.1176V20.2644C52.6994 22.5114 51.0867 24.0753 48.1758 24.0753C45.2649 24.0753 43.6331 22.5122 43.6331 20.2644V17.1176ZM49.9064 20.1662V17.2588C49.9064 16.4183 49.2772 15.8318 48.1731 15.8318C47.0128 15.8318 46.4226 16.457 46.4226 17.2588V20.1706C46.4226 20.9724 47.0128 21.5778 48.1731 21.5778C49.2772 21.5735 49.9064 20.968 49.9064 20.1662ZM54.8827 13.5608V23.8411H57.6758V13.5608H54.8827ZM60.3158 23.8406V13.5603H61.9085L62.6755 14.518C63.0727 14.1312 63.5432 13.8266 64.0596 13.6219C64.5761 13.4171 65.1284 13.3163 65.6844 13.3252C67.9462 13.3252 69.2833 14.8306 69.2833 17.3324V23.8406H66.4868V17.4883C66.4868 16.3937 65.8967 15.827 65.0508 15.827C64.3229 15.827 63.6738 16.1595 63.1036 16.8045V23.8406H60.3158ZM71.1854 20.3023C71.2053 21.4167 71.6377 22.315 72.4636 23.0195C73.3138 23.7222 74.4109 24.0744 75.7862 24.0779C78.4406 24.0779 80.1123 22.8076 80.1123 20.6769C80.1123 19.2111 79.3063 18.2535 77.6936 17.8436L74.9794 17.1589C74.4291 17.0228 74.1535 16.8075 74.1535 16.5336C74.1535 16.0453 74.5868 15.7913 75.4534 15.7913C76.437 15.7913 77.0463 16.1625 77.2629 16.9049H79.9571C79.8766 14.7165 78.1676 13.3282 75.6302 13.3282C72.975 13.3282 71.441 14.5959 71.441 16.6869C71.441 18.1131 72.2869 19.0311 73.9585 19.4618L76.496 20.1068C77.1052 20.2636 77.4006 20.5177 77.4006 20.8888C77.4006 21.3383 76.8894 21.6122 76.0436 21.6122C74.7844 21.6122 74.0729 21.1817 73.8996 20.3023H71.1854ZM82.4137 23.8402V10.159H88.5894C91.0481 10.159 92.5224 11.8203 92.5224 14.459C92.5224 17.0978 91.0498 18.7392 88.5894 18.7392H85.4645V23.8402H82.4137ZM85.4628 16.1005H88.0188C88.7858 16.1005 89.4353 15.5536 89.4353 14.459C89.4353 13.3644 88.7858 12.7978 88.0188 12.7978H85.4645L85.4628 16.1005ZM99.9981 22.8824L100.765 23.8401H102.377V16.8824C102.377 14.7129 100.862 13.3247 98.0891 13.3247C95.3174 13.3247 93.8615 14.7129 93.8615 16.8427H96.5954C96.5954 16.1589 97.0863 15.8265 98.0891 15.8265C99.0927 15.8265 99.5844 16.2373 99.5844 17.0778V17.6445H97.5587C94.7862 17.6445 93.3899 18.8562 93.3899 20.986C93.3891 21.9632 93.7239 22.7256 94.3927 23.2733C95.0615 23.8004 95.8872 24.0743 96.8698 24.0743C98.1092 24.0743 99.1523 23.6833 99.9981 22.8824ZM99.5844 19.5986V20.732C99.0339 21.3382 98.3257 21.6311 97.4606 21.6311C96.6156 21.6311 96.1817 21.2176 96.1817 20.6148C96.1817 19.931 96.6349 19.5986 97.5587 19.5986H99.5844ZM104.913 23.8411V13.5608H107.706V23.8411H104.913ZM116.753 22.8821L117.52 23.8398L119.11 23.8407V10.0613H116.317V14.1649C115.645 13.5982 114.78 13.3244 113.718 13.3244C112.655 13.3244 111.77 13.6378 111.082 14.282C110.397 14.9082 110.042 15.846 110.042 17.0775V20.302C110.042 22.7823 111.596 24.0741 113.72 24.0741C114.28 24.0836 114.836 23.9833 115.357 23.7788C115.877 23.5742 116.352 23.2695 116.753 22.8821ZM116.32 16.8054V20.5948C115.671 21.2398 114.983 21.5723 114.295 21.5705C114.101 21.5723 113.91 21.5355 113.731 21.4623C113.553 21.3892 113.391 21.2811 113.255 21.1446C113.12 21.0079 113.013 20.8457 112.942 20.6674C112.87 20.4891 112.836 20.2984 112.84 20.1065V17.292C112.836 17.1002 112.87 16.9095 112.942 16.7312C113.013 16.5529 113.12 16.3907 113.255 16.2542C113.391 16.1177 113.553 16.0096 113.732 15.9364C113.91 15.8631 114.101 15.8263 114.295 15.828C114.983 15.828 115.671 16.1604 116.32 16.8054Z" fill="black"/>
</svg>
