<svg width="40" height="18" viewBox="0 0 40 18" fill="none" xmlns="http://www.w3.org/2000/svg">
<path d="M5.61257 6.04894C5.61257 5.48719 5.5027 4.99199 5.27986 4.56178C5.05856 4.13312 4.7568 3.79576 4.37302 3.5497C3.98923 3.30365 3.55283 3.1814 3.06072 3.1814C2.75122 3.1814 2.4541 3.24175 2.16936 3.36091C1.88461 3.48007 1.6432 3.63636 1.44667 3.8298C1.39096 3.88397 1.34299 3.93968 1.3012 3.99539L1.28882 3.27579H0.0136719V11.1511H1.32132V8.16593C1.34453 8.19069 1.36465 8.217 1.38941 8.24176C1.59678 8.44603 1.84902 8.61007 2.14924 8.73697C2.44791 8.86386 2.75896 8.92731 3.08239 8.92731C3.56057 8.92731 3.99078 8.80196 4.37456 8.55281C4.7568 8.30366 5.06011 7.96321 5.2814 7.52991C5.50115 7.09815 5.61257 6.60449 5.61257 6.04894ZM4.15172 6.94495C4.02173 7.20493 3.84067 7.4092 3.60854 7.55621C3.37642 7.70323 3.11334 7.77751 2.81776 7.77751C2.50826 7.77751 2.23899 7.70323 2.01151 7.55621C1.78248 7.4092 1.60142 7.20493 1.46833 6.94495C1.33525 6.68496 1.26871 6.38629 1.26871 6.04894C1.26871 5.71158 1.33525 5.41291 1.46833 5.15293C1.60142 4.89294 1.78248 4.69022 2.01151 4.5463C2.24054 4.40238 2.50826 4.32965 2.81776 4.32965C3.11953 4.32965 3.38725 4.40393 3.61937 4.55094C3.8515 4.69796 4.03101 4.90068 4.15636 5.15757C4.28326 5.41446 4.34671 5.71158 4.34671 6.04894C4.34671 6.38629 4.28171 6.68496 4.15172 6.94495Z" fill="black"/>
<path d="M8.09085 1.03174H6.7832V8.83275H8.09085V1.03174Z" fill="black"/>
<path d="M13.5287 8.5635C13.9651 8.31435 14.3071 7.9708 14.5563 7.53595C14.8054 7.09955 14.9308 6.60435 14.9308 6.05034C14.9308 5.49478 14.8054 4.99958 14.5563 4.56318C14.3071 4.12678 13.9636 3.78478 13.5287 3.53563C13.0923 3.28648 12.6017 3.16113 12.0524 3.16113C11.4968 3.16113 11.0016 3.28648 10.5652 3.53563C10.1288 3.78478 9.78528 4.12833 9.53149 4.56318C9.27924 4.99958 9.15234 5.49478 9.15234 6.05034C9.15234 6.6059 9.27924 7.1011 9.53149 7.53595C9.78373 7.97235 10.1288 8.31435 10.5652 8.5635C11.0016 8.81265 11.4968 8.938 12.0524 8.938C12.6017 8.938 13.0939 8.81265 13.5287 8.5635ZM10.672 6.93552C10.5389 6.67553 10.4724 6.37996 10.4724 6.05034C10.4724 5.72072 10.5389 5.4236 10.672 5.15897C10.8051 4.89589 10.9939 4.68853 11.2353 4.53687C11.4783 4.38522 11.7506 4.31093 12.0524 4.31093C12.3541 4.31093 12.6234 4.38676 12.8586 4.53687C13.0939 4.68853 13.2796 4.89435 13.4173 5.15433C13.555 5.41431 13.6185 5.71298 13.6123 6.05034C13.6185 6.38151 13.555 6.67553 13.4173 6.93552C13.2796 7.1955 13.0939 7.40286 12.8586 7.55761C12.6234 7.71237 12.3541 7.78974 12.0524 7.78974C11.7506 7.78974 11.4783 7.71237 11.2353 7.55761C10.9939 7.40286 10.8066 7.1955 10.672 6.93552Z" fill="black"/>
<path d="M23.2074 8.83289H24.5151V5.48098C24.5151 4.97494 24.4454 4.54937 24.3046 4.20583C24.1638 3.86228 23.9533 3.60539 23.6717 3.43671C23.39 3.26804 23.0388 3.18447 22.6178 3.18447C22.4275 3.18447 22.2372 3.21232 22.0437 3.26958C21.8503 3.32529 21.6661 3.40886 21.4897 3.51718C21.3133 3.62551 21.1554 3.74931 21.0146 3.88549C20.8924 4.00465 20.7949 4.13774 20.7206 4.28166C20.6494 4.08667 20.5612 3.91644 20.4513 3.77407C20.2935 3.5698 20.0969 3.42124 19.8602 3.32529C19.6249 3.23089 19.3557 3.18292 19.0539 3.18292C18.8496 3.18292 18.65 3.21697 18.4535 3.28351C18.2569 3.35005 18.0697 3.44136 17.8948 3.55742C17.7184 3.67348 17.5683 3.80966 17.4414 3.96906C17.4136 4.00465 17.3872 4.04024 17.3609 4.07738L17.3455 3.27887H16.0703V8.83444H17.378V5.50264C17.378 5.33396 17.4105 5.17921 17.4724 5.03839C17.5358 4.89757 17.624 4.77531 17.7354 4.67008C17.8484 4.56485 17.9815 4.48283 18.1362 4.42248C18.291 4.36213 18.4566 4.33272 18.6314 4.33272C18.8419 4.33272 19.0214 4.3807 19.1684 4.47509C19.3154 4.56949 19.4284 4.70722 19.5058 4.88673C19.5832 5.06624 19.6219 5.28909 19.6219 5.55681V8.83598H20.9295V5.51502C20.9295 5.34634 20.9604 5.19159 21.0239 5.05077C21.0873 4.90995 21.1756 4.78614 21.287 4.67627C21.3999 4.56794 21.5346 4.48283 21.6924 4.42403C21.8503 4.36367 22.0174 4.33427 22.1938 4.33427C22.4182 4.33427 22.607 4.3776 22.7571 4.46581C22.9088 4.55402 23.0202 4.68865 23.0945 4.87126C23.1687 5.05386 23.2043 5.28599 23.2043 5.56764V8.83289H23.2074Z" fill="black"/>
<path d="M30.3164 8.56348C30.6986 8.31433 31.0004 7.97078 31.217 7.53593C31.4352 7.09953 31.5436 6.60123 31.5436 6.03949C31.5436 5.48393 31.4321 4.98873 31.2108 4.55233C30.9895 4.11593 30.6878 3.77548 30.304 3.52942C29.9202 3.28337 29.4807 3.16111 28.9809 3.16111C28.7565 3.16111 28.5352 3.19826 28.317 3.27099C28.0988 3.34527 27.8992 3.44276 27.7166 3.56656C27.5339 3.69036 27.3807 3.82655 27.2585 3.9782C27.2569 3.9813 27.2554 3.98284 27.2538 3.98594V1.03174H25.957V8.81108H27.2121L27.2275 8.14256C27.3482 8.28338 27.4922 8.41183 27.6655 8.52634C27.8558 8.65324 28.0678 8.75383 28.3031 8.82656C28.5383 8.90084 28.7797 8.93643 29.0258 8.93643C29.5039 8.93798 29.9341 8.81263 30.3164 8.56348ZM27.9502 7.57307C27.7181 7.42142 27.5355 7.21405 27.4024 6.95097C27.2693 6.68789 27.2028 6.38304 27.2028 6.03949C27.2028 5.70213 27.2693 5.40346 27.4024 5.14348C27.5355 4.8835 27.7181 4.67922 27.9502 4.53221C28.1824 4.3852 28.4485 4.31092 28.7518 4.31092C29.0536 4.31092 29.3213 4.3852 29.5535 4.53221C29.7856 4.67922 29.9666 4.8835 30.0966 5.14348C30.2266 5.40346 30.2916 5.70213 30.2916 6.03949C30.2916 6.38458 30.2251 6.68789 30.092 6.95097C29.9589 7.21405 29.7763 7.42142 29.5442 7.57307C29.312 7.72473 29.049 7.80056 28.7534 7.80056C28.4501 7.79901 28.1824 7.72318 27.9502 7.57307Z" fill="black"/>
<path d="M33.4838 0.589294C33.2316 0.589294 33.0304 0.658933 32.8834 0.799756C32.7364 0.94058 32.6621 1.12319 32.6621 1.34758C32.6621 1.58589 32.7348 1.77159 32.8788 1.90158C33.0227 2.03158 33.2254 2.09657 33.4854 2.09657C33.7454 2.09657 33.9496 2.02693 34.0967 1.88611C34.2437 1.74529 34.3179 1.56577 34.3179 1.34912C34.3179 1.10307 34.2452 0.915819 34.1013 0.785828C33.9574 0.654289 33.7516 0.589294 33.4838 0.589294Z" fill="black"/>
<path d="M34.1503 3.27722H32.8535V8.83279H34.1503V3.27722Z" fill="black"/>
<path d="M39.0989 3.19208C38.9905 3.17042 38.876 3.16113 38.7569 3.16113C38.483 3.16113 38.2214 3.22613 37.9707 3.35612C37.7216 3.48611 37.5018 3.66408 37.3115 3.88846C37.2217 3.99524 37.1444 4.10821 37.0809 4.22737L37.0701 3.27565H35.7949V8.83122H37.1026V5.86928C37.1026 5.67275 37.1351 5.49478 37.2032 5.33694C37.2697 5.17909 37.3626 5.03981 37.4817 4.92065C37.6009 4.8015 37.7401 4.70865 37.898 4.64056C38.0558 4.57401 38.223 4.53997 38.3994 4.53997C38.5124 4.53997 38.6238 4.55389 38.7367 4.58175C38.8497 4.6096 38.9441 4.6452 39.0215 4.68698L39.3697 3.26327C39.2969 3.23851 39.2072 3.21375 39.0989 3.19208Z" fill="black"/>
<path d="M9.60296 12.4804C9.37393 12.242 9.10466 12.0532 8.79207 11.914C8.47947 11.7762 8.14366 11.7066 7.78464 11.7066C7.37609 11.7066 7.00005 11.7778 6.6565 11.9202C6.31295 12.0625 6.01892 12.2637 5.77287 12.5221C5.52681 12.7821 5.33492 13.0885 5.19565 13.4414C5.05637 13.7942 4.98828 14.1857 4.98828 14.6159C4.98828 15.156 5.11053 15.6357 5.35659 16.0551C5.60264 16.4745 5.94619 16.8057 6.38568 17.0471C6.82518 17.29 7.33276 17.4107 7.90844 17.4107C8.16532 17.4107 8.42376 17.3767 8.68838 17.307C8.95146 17.2374 9.20216 17.143 9.44202 17.0208C9.68034 16.9001 9.89389 16.7515 10.0811 16.5797L9.44666 15.6961C9.19751 15.9112 8.96539 16.0598 8.75028 16.1433C8.53518 16.2269 8.29996 16.2687 8.04307 16.2687C7.67631 16.2687 7.35598 16.1975 7.08207 16.0551C6.80816 15.9127 6.59769 15.71 6.44758 15.4469C6.347 15.2705 6.28355 15.0724 6.25105 14.8542H10.287L10.2978 14.407C10.304 14.0186 10.2467 13.6611 10.126 13.3315C10.0069 13.0034 9.83199 12.7187 9.60296 12.4804ZM6.92731 13.0359C7.15944 12.9044 7.44573 12.8378 7.78464 12.8378C8.00593 12.8378 8.20865 12.8843 8.39281 12.9787C8.57696 13.0715 8.72707 13.2 8.84468 13.3624C8.96229 13.5249 9.03193 13.7137 9.05205 13.9288V13.9814H6.27891C6.30831 13.8422 6.34854 13.7153 6.40271 13.6023C6.52032 13.3563 6.69519 13.1675 6.92731 13.0359Z" fill="black"/>
<path d="M13.6108 15.6126L12.1701 11.8305H10.7773L13.0847 17.3072H14.041L16.4614 11.8305H15.1011L13.6108 15.6126Z" fill="black"/>
<path d="M21.3237 12.4804C21.0946 12.242 20.8254 12.0532 20.5128 11.914C20.2002 11.7762 19.8644 11.7066 19.5053 11.7066C19.0968 11.7066 18.7208 11.7778 18.3772 11.9202C18.0337 12.0625 17.7396 12.2637 17.4936 12.5221C17.2475 12.7821 17.0556 13.0885 16.9164 13.4414C16.7771 13.7942 16.709 14.1857 16.709 14.6159C16.709 15.156 16.8312 15.6357 17.0773 16.0551C17.3233 16.4745 17.6669 16.8057 18.1064 17.0471C18.5459 17.29 19.0535 17.4107 19.6291 17.4107C19.886 17.4107 20.1445 17.3767 20.4091 17.307C20.6722 17.2374 20.9229 17.143 21.1627 17.0208C21.401 16.9001 21.6146 16.7515 21.8018 16.5797L21.1674 15.6961C20.9182 15.9112 20.6861 16.0598 20.471 16.1433C20.2559 16.2269 20.0207 16.2687 19.7638 16.2687C19.397 16.2687 19.0767 16.1975 18.8028 16.0551C18.5289 15.9127 18.3184 15.71 18.1683 15.4469C18.0677 15.2705 18.0043 15.0724 17.9718 14.8542H22.0108L22.0216 14.407C22.0278 14.0186 21.9705 13.6611 21.8498 13.3315C21.7276 13.0034 21.5527 12.7187 21.3237 12.4804ZM18.648 13.0359C18.8801 12.9044 19.1664 12.8378 19.5053 12.8378C19.7266 12.8378 19.9294 12.8843 20.1135 12.9787C20.2977 13.0715 20.4478 13.2 20.5654 13.3624C20.683 13.5249 20.7526 13.7137 20.7728 13.9288V13.9814H17.9996C18.029 13.8422 18.0692 13.7153 18.1234 13.6023C18.241 13.3563 18.4159 13.1675 18.648 13.0359Z" fill="black"/>
<path d="M27.2026 11.9652C26.9225 11.7996 26.5743 11.716 26.158 11.716C25.8671 11.716 25.5823 11.7779 25.3053 11.9033C25.0283 12.0286 24.7885 12.1926 24.5888 12.3969C24.5238 12.4635 24.4681 12.5331 24.4155 12.6043L24.4016 11.8305H23.1543V17.3072C23.2441 17.3072 23.3431 17.3072 23.4499 17.3072C23.5567 17.3072 23.6727 17.3072 23.7981 17.3072H24.4325V14.0017C24.4325 13.8361 24.465 13.6829 24.5316 13.5436C24.5966 13.4043 24.6879 13.2821 24.8024 13.1753C24.9169 13.0685 25.0515 12.985 25.2078 12.9262C25.3641 12.8674 25.5359 12.8379 25.7216 12.8379C25.9507 12.8318 26.1441 12.8704 26.3035 12.9571C26.4629 13.0438 26.5805 13.1784 26.6563 13.3626C26.7321 13.5467 26.7708 13.7773 26.7708 14.0543V17.3072H28.0491V13.9614C28.0491 13.4631 27.9779 13.0469 27.8355 12.7141C27.6947 12.3814 27.4827 12.1323 27.2026 11.9652Z" fill="black"/>
<path d="M31.3541 10.4377H30.0759V11.8305H28.9941V13.0159H30.0759V17.3072H31.3541V13.0159H32.5488V11.8305H31.3541V10.4377Z" fill="black"/>
</svg>
