<svg width="56" height="10" viewBox="0 0 56 10" fill="none" xmlns="http://www.w3.org/2000/svg">
<path fill-rule="evenodd" clip-rule="evenodd" d="M11.9721 9.68881L6.36787 0.311157L0.763672 9.68881H11.9721ZM2.90826 8.51262L6.35433 2.74621L9.80041 8.51262H2.90826Z" fill="black"/>
<path fill-rule="evenodd" clip-rule="evenodd" d="M47.3698 1.75682C47.3698 2.08051 47.1051 2.34292 46.7784 2.34292C46.4518 2.34292 46.187 2.08051 46.187 1.75682C46.187 1.43312 46.4518 1.17072 46.7784 1.17072C47.1051 1.17072 47.3698 1.43312 47.3698 1.75682ZM20.9599 3.55712C20.6366 3.37999 20.27 3.29142 19.8599 3.29142C19.5708 3.29142 19.3067 3.34091 19.0675 3.4399C18.8283 3.53889 18.6272 3.68737 18.4642 3.88534V3.3104H17.5259V9.66934H18.5115V7.00341C18.8427 7.37852 19.2922 7.56607 19.8599 7.56607C20.27 7.56607 20.6366 7.4775 20.9599 7.30037C21.2832 7.12323 21.5369 6.87186 21.7209 6.54625C21.9049 6.22063 21.9969 5.84683 21.9969 5.42484C21.9969 5.00284 21.9049 4.63034 21.7209 4.30733C21.5369 3.98432 21.2832 3.73426 20.9599 3.55712ZM13.9896 7.43091C14.3156 7.52115 14.6494 7.56627 14.9911 7.56627C15.5798 7.56627 16.0451 7.44684 16.3868 7.20796C16.7285 6.96908 16.8993 6.65059 16.8993 6.25246C16.8993 5.94988 16.8218 5.71632 16.6667 5.55176C16.5116 5.3872 16.3263 5.27041 16.1108 5.20141C15.8952 5.1324 15.6193 5.07135 15.2828 5.01827C14.9464 4.95988 14.7485 4.90776 14.594 4.83115C14.4395 4.75454 14.3561 4.67265 14.3535 4.49274C14.3535 4.35715 14.4859 4.26134 14.594 4.20519C14.7021 4.14905 14.9268 4.08884 15.1882 4.08884C15.635 4.08884 16.0293 4.20647 16.3868 4.41881L16.7653 3.66237C16.5813 3.55089 16.3447 3.46198 16.0556 3.39562C15.7664 3.32927 15.4773 3.29609 15.1882 3.29609C14.6205 3.29609 14.226 3.41685 13.8922 3.65839C13.5584 3.89992 13.3915 4.13708 13.3915 4.54052C13.3915 4.8484 13.4716 5.0886 13.632 5.26113C13.7923 5.43365 13.9816 5.55441 14.1997 5.62342C14.4179 5.69243 14.6441 5.75347 14.9911 5.80656C15.3222 5.85964 15.5836 5.91591 15.7126 5.97377C15.8415 6.03163 15.9373 6.14443 15.9373 6.28431C15.9373 6.57474 15.6429 6.7541 15.0541 6.7541C14.7966 6.7541 14.535 6.71561 14.2696 6.63864C14.0041 6.56167 13.7767 6.45948 13.5875 6.33208L13.209 7.08852C13.4035 7.22654 13.6637 7.34067 13.9896 7.43091ZM19.7494 6.72893C20.1121 6.72893 20.4104 6.6091 20.6444 6.36945C20.8783 6.1298 20.9953 5.81461 20.9953 5.42387C20.9953 5.03313 20.8783 4.71794 20.6444 4.47829C20.4104 4.23864 20.1121 4.11882 19.7494 4.11882C19.5128 4.11882 19.2999 4.17222 19.1107 4.27902C18.9214 4.38582 18.7716 4.5382 18.6612 4.73618C18.5508 4.93415 18.4956 5.16338 18.4956 5.42387C18.4956 5.68436 18.5508 5.91359 18.6612 6.11157C18.7716 6.30954 18.9214 6.46193 19.1107 6.56873C19.2999 6.67553 19.5128 6.72893 19.7494 6.72893ZM25.9723 7.53927H26.9107V3.3104H25.925V3.84627C25.7568 3.66392 25.5583 3.52586 25.3296 3.43209C25.101 3.33831 24.85 3.29142 24.5766 3.29142C24.1666 3.29142 23.7999 3.37999 23.4766 3.55712C23.1533 3.73426 22.901 3.98302 22.7196 4.30343C22.5382 4.62383 22.4476 4.99763 22.4476 5.42484C22.4476 5.85204 22.5382 6.22715 22.7196 6.55016C22.901 6.87317 23.1533 7.12323 23.4766 7.30037C23.7999 7.4775 24.1666 7.56607 24.5766 7.56607C24.8657 7.56607 25.1299 7.51658 25.3691 7.41759C25.6083 7.3186 25.8093 7.17012 25.9723 6.97215V7.53927ZM24.6858 6.72893C25.0485 6.72893 25.3481 6.6091 25.5847 6.36945C25.8213 6.1298 25.9395 5.81461 25.9395 5.42387C25.9395 5.03313 25.8213 4.71794 25.5847 4.47829C25.3481 4.23864 25.0485 4.11882 24.6858 4.11882C24.3231 4.11882 24.0247 4.23864 23.7908 4.47829C23.5569 4.71794 23.4399 5.03313 23.4399 5.42387C23.4399 5.81461 23.5569 6.1298 23.7908 6.36945C24.0247 6.6091 24.3231 6.72893 24.6858 6.72893ZM28.7356 7.29255C29.0826 7.4749 29.4742 7.56607 29.9105 7.56607C30.3206 7.56607 30.682 7.48141 30.9948 7.31209C31.3075 7.14277 31.5454 6.90182 31.7084 6.58923L30.9514 6.15161C30.8305 6.34437 30.6793 6.48894 30.498 6.58532C30.3166 6.6817 30.1182 6.72989 29.9026 6.72989C29.5294 6.72989 29.2232 6.61137 28.984 6.37432C28.7448 6.13728 28.6252 5.82078 28.6252 5.42484C28.6252 5.02889 28.7461 4.7124 28.9879 4.47535C29.2298 4.2383 29.5347 4.11978 29.9026 4.11978C30.1182 4.11978 30.3166 4.16797 30.498 4.26435C30.6793 4.36073 30.8305 4.50531 30.9514 4.69807L31.7084 4.26045C31.5507 3.94785 31.3154 3.70821 31.0026 3.54149C30.6899 3.37478 30.3258 3.29142 29.9105 3.29142C29.4689 3.29142 29.076 3.38259 28.7317 3.56494C28.3873 3.74728 28.1179 3.99995 27.9234 4.32296C27.7289 4.64597 27.6317 5.01326 27.6317 5.42484C27.6317 5.83641 27.7289 6.205 27.9234 6.53062C28.1179 6.85623 28.3887 7.11021 28.7356 7.29255ZM36.3982 5.44828C36.3982 5.51601 36.3929 5.61239 36.3824 5.73743H33.0785C33.1363 6.04481 33.2874 6.28836 33.5319 6.4681C33.7763 6.64784 34.0799 6.73771 34.4426 6.73771C34.9052 6.73771 35.2864 6.58663 35.586 6.28446L36.1143 6.88619C35.9251 7.11021 35.6859 7.27953 35.3968 7.39414C35.1076 7.50876 34.7817 7.56607 34.419 7.56607C33.9564 7.56607 33.549 7.4749 33.1968 7.29255C32.8445 7.11021 32.5725 6.85623 32.3806 6.53062C32.1888 6.205 32.0928 5.83641 32.0928 5.42484C32.0928 5.01847 32.1861 4.65248 32.3727 4.32687C32.5594 4.00126 32.8183 3.74728 33.1494 3.56494C33.4806 3.38259 33.8539 3.29142 34.2692 3.29142C34.6792 3.29142 35.0459 3.38129 35.3692 3.56103C35.6925 3.74077 35.9448 3.99344 36.1262 4.31906C36.3075 4.64467 36.3982 5.02107 36.3982 5.44828ZM33.4121 4.34959C33.6303 4.16464 33.897 4.07216 34.2125 4.07216C34.5331 4.07216 34.8012 4.16594 35.0168 4.35349C35.2323 4.54105 35.3611 4.78591 35.4031 5.08808H33.0139C33.0612 4.7807 33.1939 4.53454 33.4121 4.34959ZM38.5376 7.56665C38.1959 7.56665 37.8621 7.52153 37.5362 7.43129C37.2103 7.34105 36.9501 7.22692 36.7556 7.0889L37.1341 6.33246C37.3233 6.45986 37.5507 6.56205 37.8161 6.63902C38.0816 6.71599 38.3431 6.75448 38.6007 6.75448C39.1895 6.75448 39.4839 6.57512 39.4839 6.28469C39.4839 6.14481 39.3881 6.03201 39.2591 5.97415C39.1302 5.91629 38.8688 5.86002 38.5376 5.80694C38.1907 5.75385 37.9645 5.69281 37.7463 5.6238C37.5281 5.55479 37.2817 5.36934 37.1948 5.26014C37.0433 5.07673 36.938 4.83153 36.938 4.5409C36.938 4.25027 37.1049 3.9003 37.4388 3.65877C37.7726 3.41724 38.167 3.29647 38.7348 3.29647C39.0239 3.29647 39.1947 3.31788 39.4839 3.38423C39.773 3.45059 39.9821 3.55021 40.1992 3.66275L39.8488 4.36337C39.5583 4.20557 39.1454 4.08922 38.7348 4.08922C38.4734 4.08922 38.2486 4.14943 38.1406 4.20557C38.0325 4.26172 37.9001 4.35753 37.9001 4.49312C37.9027 4.67303 37.9861 4.75492 38.1406 4.83153C38.295 4.90814 38.493 4.96026 38.8294 5.01865C39.1658 5.07173 39.4418 5.13278 39.6573 5.20179C39.8729 5.2708 40.0582 5.38758 40.2133 5.55214C40.3683 5.7167 40.4459 5.95026 40.4459 6.25284C40.4459 6.65097 40.275 6.96946 39.9333 7.20834C39.5916 7.44722 39.1264 7.56665 38.5376 7.56665ZM44.5013 3.55712C44.178 3.37999 43.8113 3.29142 43.4013 3.29142C43.1122 3.29142 42.848 3.34091 42.6088 3.4399C42.3696 3.53889 42.1686 3.68737 42.0056 3.88534V3.3104H41.0672V9.66934H42.0529V7.00341C42.3841 7.37852 42.8335 7.56607 43.4013 7.56607C43.8113 7.56607 44.178 7.4775 44.5013 7.30037C44.8246 7.12323 45.0782 6.87186 45.2622 6.54625C45.4462 6.22063 45.5382 5.84683 45.5382 5.42484C45.5382 5.00284 45.4462 4.63034 45.2622 4.30733C45.0782 3.98432 44.8246 3.73426 44.5013 3.55712ZM43.2629 6.72893C43.6257 6.72893 43.924 6.6091 44.1579 6.36945C44.3919 6.1298 44.5088 5.81461 44.5088 5.42387C44.5088 5.03313 44.3919 4.71794 44.1579 4.47829C43.924 4.23864 43.6257 4.11882 43.2629 4.11882C43.0264 4.11882 42.8135 4.17222 42.6242 4.27902C42.435 4.38582 42.2852 4.5382 42.1748 4.73618C42.0644 4.93415 42.0092 5.16338 42.0092 5.42387C42.0092 5.68436 42.0644 5.91359 42.1748 6.11157C42.2852 6.30954 42.435 6.46193 42.6242 6.56873C42.8135 6.67553 43.0264 6.72893 43.2629 6.72893ZM47.2839 3.31977H46.2983V7.54864H47.2839V3.31977ZM50.7699 3.29142C50.055 3.29142 49.5555 3.51023 49.2717 3.94786V3.3104H48.3333V7.53927H49.319V5.48735C49.319 5.07057 49.4268 4.75147 49.6423 4.53005C49.8578 4.30863 50.1575 4.19793 50.5412 4.19793C50.6096 4.19793 50.6858 4.20574 50.7699 4.22137V3.29142ZM55.3776 5.44828C55.3776 5.51601 55.3723 5.61239 55.3618 5.73743H52.0579C52.1157 6.04481 52.2669 6.28836 52.5113 6.4681C52.7557 6.64784 53.0593 6.73771 53.4221 6.73771C53.8847 6.73771 54.2658 6.58663 54.5654 6.28446L55.0937 6.88619C54.9045 7.11021 54.6653 7.27953 54.3762 7.39414C54.087 7.50876 53.7611 7.56607 53.3984 7.56607C52.9358 7.56607 52.5284 7.4749 52.1762 7.29255C51.824 7.11021 51.5519 6.85623 51.36 6.53062C51.1682 6.205 51.0722 5.83641 51.0722 5.42484C51.0722 5.01847 51.1655 4.65248 51.3522 4.32687C51.5388 4.00126 51.7977 3.74728 52.1289 3.56494C52.46 3.38259 52.8333 3.29142 53.2486 3.29142C53.6586 3.29142 54.0253 3.38129 54.3486 3.56103C54.6719 3.74077 54.9242 3.99344 55.1056 4.31906C55.2869 4.64467 55.3776 5.02107 55.3776 5.44828ZM52.534 4.34964C52.7522 4.16469 53.019 4.07222 53.3344 4.07222C53.6551 4.07222 53.9232 4.16599 54.1387 4.35355C54.3542 4.5411 54.483 4.78596 54.5251 5.08813H52.1358C52.1831 4.78075 52.3159 4.53459 52.534 4.34964Z" fill="black"/>
<ellipse cx="1.83382" cy="2.23672" rx="1.07015" ry="1.06057" fill="black"/>
</svg>
