<svg width="72" height="14" viewBox="0 0 72 14" fill="none" xmlns="http://www.w3.org/2000/svg">
<path fill-rule="evenodd" clip-rule="evenodd" d="M19.6549 0.916631C19.9183 0.82882 20.494 0.721496 20.9233 0.682469C21.3526 0.643441 22.0746 0.643441 22.5331 0.682469C22.9917 0.721496 23.5771 0.82882 23.8503 0.916631C24.1137 1.00444 24.6211 1.21909 24.9723 1.40447C25.3236 1.58009 25.8992 2.00939 26.2505 2.34112C26.6115 2.68261 27.0798 3.23874 27.3042 3.58999C27.5286 3.94123 27.792 4.48761 27.8994 4.80958C28.0067 5.13156 28.1433 5.72672 28.2018 6.12675C28.2604 6.53653 28.2799 7.14145 28.2506 7.4927C28.2116 7.84394 28.1335 8.32202 28.075 8.56594C28.0262 8.80986 27.8018 9.37576 27.5774 9.83432C27.2652 10.4978 27.031 10.8198 26.3968 11.4539C25.7724 12.0784 25.4407 12.3223 24.7772 12.6443C24.3186 12.8589 23.6064 13.1126 23.1966 13.1907C22.7771 13.2785 22.1038 13.3468 21.7038 13.3468C21.3038 13.3468 20.6306 13.2785 20.2208 13.1907C19.8013 13.1126 19.1085 12.8687 18.6792 12.6638C18.2011 12.4394 17.6548 12.0686 17.2742 11.7174C16.9328 11.4052 16.4449 10.8393 16.201 10.4685C15.9473 10.0978 15.6351 9.45381 15.5083 9.05378C15.2936 8.41959 15.2643 8.1464 15.2643 6.95607C15.2643 5.80478 15.2936 5.49256 15.479 4.95594C15.5961 4.60469 15.9083 3.99002 16.1717 3.58999C16.4254 3.18996 16.923 2.60455 17.2742 2.29234C17.6157 1.98012 18.1816 1.58009 18.5329 1.40447C18.8841 1.22885 19.3817 1.00444 19.6549 0.916631ZM4.38554 1.04347C4.67825 0.926388 5.09779 0.79955 5.31244 0.760523C5.52709 0.711739 6.35641 0.682469 7.16623 0.701982C8.35655 0.731252 8.74682 0.780036 9.26393 0.945902C9.61518 1.07274 10.1811 1.33617 10.5323 1.54106C10.8836 1.75571 11.2738 2.00939 11.6543 2.30209L9.94691 4.37053L9.47858 4.0388C9.22491 3.86318 8.84439 3.61926 8.62974 3.51193C8.41509 3.40461 7.92725 3.25826 7.5565 3.19972C7.17598 3.13142 6.63936 3.10215 6.3369 3.14118C6.0442 3.1802 5.57587 3.30704 5.31244 3.43388C5.03925 3.56072 4.60995 3.88269 4.34652 4.14612C4.06357 4.41931 3.7416 4.87788 3.56598 5.24864C3.28303 5.8438 3.26352 5.95113 3.26352 7.00486C3.26352 8.06835 3.28303 8.15616 3.57573 8.78059C3.75135 9.15135 4.08308 9.62943 4.31725 9.85384C4.55141 10.088 4.95144 10.3807 5.21487 10.5075C5.48806 10.6344 5.98566 10.7807 6.3369 10.8393C6.79547 10.9076 7.16623 10.9076 7.67358 10.8295C8.06385 10.7612 8.62974 10.5954 9.46882 10.1758L9.45907 8.37081H6.72717V6.02918H12.0934V11.3954L11.83 11.6198C11.6739 11.7369 11.2933 12.0003 10.9714 12.1955C10.6494 12.3906 10.0737 12.6735 9.70299 12.8101C9.33223 12.9565 8.69804 13.1321 8.31753 13.2102C7.92725 13.2882 7.25404 13.3468 6.82474 13.3468C6.39544 13.3468 5.70271 13.2785 5.29292 13.2004C4.83436 13.1126 4.20017 12.898 3.70257 12.6443C3.06838 12.3321 2.69762 12.0589 2.13173 11.5027C1.58535 10.9466 1.3024 10.5758 1.04873 10.0295C0.853592 9.62943 0.619429 8.98548 0.531618 8.61473C0.40478 8.08786 0.37551 7.65856 0.414537 6.71216C0.453564 5.75599 0.512104 5.35596 0.697483 4.85837C0.824321 4.50712 1.04873 4.01929 1.19508 3.75585C1.34143 3.50218 1.7317 3.00458 2.06343 2.64358C2.40492 2.29234 2.94154 1.82401 3.26352 1.61912C3.58549 1.41423 4.09284 1.15079 4.38554 1.04347ZM46.9739 1.26788C46.847 1.55082 45.6567 4.2632 44.3298 7.29756C43.8677 8.36208 43.4308 9.36775 43.0567 10.2291C42.3643 11.8229 41.8867 12.9224 41.8613 12.9858C41.8028 13.1516 41.8808 13.1614 42.9151 13.1321L44.0176 13.1028L45.2372 10.2734H51.14L52.3401 13.1516C54.5256 13.1516 54.5354 13.1516 54.4866 12.9272C54.4671 12.8101 53.8524 11.3564 53.1206 9.68797C52.628 8.54958 51.9219 6.93878 51.2967 5.51263C51.0056 4.84865 50.7321 4.22469 50.5058 3.70707L49.2179 0.760523H47.208L46.9739 1.26788ZM59.0918 9.46357C59.1503 9.31721 59.8235 7.29756 60.5943 4.97545L61.9798 0.750766L63.8043 0.760523L65.2873 5.24864C66.1069 7.7171 66.7996 9.73676 66.8289 9.73676C66.8582 9.73676 67.1314 8.95621 67.4436 8.00005C67.7558 7.05364 68.4095 5.0535 69.7559 0.848334H70.878C71.4926 0.848334 72 0.867847 72 0.877604C72 0.886669 71.5031 2.33591 70.8692 4.18461L70.7219 4.61445C70.0194 6.65361 69.0632 9.41478 67.746 13.2004L65.902 13.259L65.2288 11.3271L64.9197 10.4159C64.5724 9.39191 64.1443 8.12976 63.8433 7.24878C63.4433 6.06821 63.0628 4.97545 62.9945 4.8291C62.9262 4.67299 62.8579 4.55591 62.8286 4.55591C62.7994 4.55591 62.2335 6.17553 61.5602 8.1464C60.8968 10.1173 60.2333 12.0589 59.8333 13.1907L57.999 13.259L57.7844 12.6931C57.6868 12.433 57.4539 11.7667 57.2209 11.1002L57.0819 10.7027C56.8185 9.93189 55.9794 7.4927 55.2183 5.28767C54.4671 3.09239 53.8036 1.18982 53.6573 0.848334L56.0379 0.897118L56.6916 2.94604C56.918 3.63696 57.2425 4.64786 57.5564 5.62579L57.5567 5.62686L57.5583 5.63189L57.5588 5.63343L57.5603 5.63808C57.7593 6.25781 57.9538 6.8637 58.1161 7.36586C58.5357 8.66351 58.8966 9.73676 58.9259 9.73676C58.9552 9.73676 59.0235 9.61967 59.0918 9.46357ZM31.1191 7.00486V13.1516H39.8026V11.2003L33.3144 11.1515L33.2656 0.858091H31.1191V7.00486ZM20.8744 3.20944C20.6305 3.25822 20.2402 3.39482 19.9963 3.52166C19.7622 3.63874 19.3719 3.92168 19.1475 4.15585C18.9133 4.38025 18.5816 4.85833 18.4157 5.22909C18.1425 5.78523 18.0937 6.00963 18.0645 6.76091C18.0352 7.35607 18.0742 7.81464 18.1816 8.17564C18.2596 8.46834 18.4743 8.92691 18.6499 9.19034C18.8255 9.45378 19.1475 9.82453 19.3621 10.0002C19.5768 10.1758 19.9475 10.4295 20.1915 10.5465C20.572 10.7319 20.7866 10.7612 21.7525 10.7612C22.7868 10.7612 22.9136 10.7417 23.3917 10.4978C23.6649 10.3416 24.1039 10.0197 24.3478 9.76599C24.5918 9.50256 24.904 9.08302 25.0308 8.80983C25.1674 8.5464 25.3138 8.01953 25.3723 7.63902C25.4406 7.17069 25.4406 6.75115 25.3625 6.32185C25.3138 5.97061 25.1479 5.44374 25.0015 5.15104C24.8552 4.85833 24.543 4.41928 24.2991 4.17536C24.0454 3.93144 23.6551 3.62898 23.4112 3.5119C23.1673 3.39482 22.7282 3.25822 22.4355 3.19968C22.1428 3.14114 21.7623 3.10211 21.6062 3.11187C21.4501 3.12163 21.1183 3.16066 20.8744 3.20944ZM48.008 3.71679C47.9592 3.83387 47.5202 4.86809 47.0323 6.00963C46.5445 7.14142 46.1445 8.1171 46.1445 8.17564C46.1445 8.23418 46.8957 8.2732 48.1934 8.2732C49.3154 8.2732 50.2423 8.24393 50.2423 8.20491C50.2423 8.15612 49.7935 7.08288 49.2471 5.80474C48.691 4.5266 48.2129 3.49239 48.1641 3.49239C48.1251 3.49239 48.0568 3.58995 48.008 3.71679Z" fill="black"/>
</svg>
