<svg width="85" height="24" viewBox="0 0 85 24" fill="none" xmlns="http://www.w3.org/2000/svg">
<path fill-rule="evenodd" clip-rule="evenodd" d="M14.4554 4.23869H11.7222C9.58095 4.23869 7.83799 5.99167 7.83799 8.11962C7.83799 10.2476 9.58095 12 11.7222 12H14.4554V15.8804H11.7222C9.99796 15.8804 8.3221 15.3135 6.95591 14.268C5.58976 13.2225 4.61005 11.7572 4.16951 10.1006C3.88084 11.2438 3.85771 12.4374 4.1019 13.5909C4.34607 14.7444 4.85115 15.8275 5.57889 16.7583C6.3066 17.6891 7.23794 18.4431 8.30228 18.9633C9.36663 19.4835 10.5362 19.7561 11.7222 19.7607H14.4554V23.6416H11.7222C5.25711 23.6355 0.0078125 18.4256 0.0078125 12C0.0078125 5.64303 5.1449 0.477205 11.5132 0.361401C11.5829 0.358337 14.4554 0.358337 14.4554 0.358337V4.23869ZM22.2654 10.428V13.5706C22.2654 15.7984 23.6218 17.0748 26.1275 17.076C27.1904 17.076 28.0721 16.7984 28.7577 16.228C29.4433 15.6575 29.7929 14.7954 29.7929 13.6417V13.5026H27.6103V13.6417C27.6103 14.6845 26.9247 15.1018 25.9875 15.1018C24.9521 15.1018 24.4344 14.6428 24.4344 13.725V10.2766C24.4344 9.35879 24.9521 8.89981 25.9875 8.89981C26.8969 8.89981 27.6103 9.35879 27.6103 10.36V10.499H29.7929V10.36C29.7929 9.20434 29.4433 8.35695 28.7577 7.78651C28.0721 7.21607 27.1904 6.92443 26.1275 6.92443C23.6218 6.92443 22.2654 8.20316 22.2654 10.428ZM31.0499 12.0837C31.0499 10.4845 32.2115 9.38773 34.2819 9.38773C36.3522 9.38773 37.5003 10.4863 37.5003 12.0837V14.3225C37.5003 15.9211 36.3529 17.0338 34.2819 17.0338C32.2109 17.0338 31.0499 15.9217 31.0499 14.3225V12.0837ZM35.5131 14.2527V12.1842C35.5131 11.5862 35.0655 11.1689 34.28 11.1689C33.4545 11.1689 33.0346 11.6137 33.0346 12.1842V14.2558C33.0346 14.8262 33.4545 15.257 34.28 15.257C35.0655 15.2539 35.5131 14.8231 35.5131 14.2527ZM39.0551 9.55315V16.8672H41.0422V9.55315H39.0551ZM42.9197 16.8669V9.55286H44.0528L44.5985 10.2342C44.8811 9.959 45.2158 9.74229 45.5833 9.59662C45.9507 9.45095 46.3436 9.37925 46.7392 9.38558C48.3484 9.38558 49.2997 10.4566 49.2997 12.2365V16.8669H47.3101V12.3475C47.3101 11.5687 46.8902 11.1655 46.2885 11.1655C45.7706 11.1655 45.3088 11.402 44.9031 11.861V16.8669H42.9197ZM50.6528 14.3495C50.667 15.1423 50.9746 15.7814 51.5622 16.2826C52.1671 16.7826 52.9476 17.0332 53.9261 17.0357C55.8146 17.0357 57.0039 16.1319 57.0039 14.616C57.0039 13.5732 56.4305 12.8919 55.2831 12.6002L53.3521 12.1131C52.9606 12.0163 52.7645 11.8631 52.7645 11.6682C52.7645 11.3208 53.0728 11.1401 53.6894 11.1401C54.3891 11.1401 54.8226 11.4042 54.9767 11.9324H56.8936C56.8362 10.3754 55.6204 9.38773 53.8151 9.38773C51.926 9.38773 50.8347 10.2896 50.8347 11.7773C50.8347 12.792 51.4365 13.4451 52.6258 13.7515L54.4311 14.2104C54.8645 14.3219 55.0747 14.5027 55.0747 14.7668C55.0747 15.0866 54.7109 15.2815 54.1092 15.2815C53.2134 15.2815 52.7072 14.9751 52.5839 14.3495H50.6528ZM58.6418 16.8665V7.13285H63.0355C64.7847 7.13285 65.8337 8.31481 65.8337 10.1922C65.8337 12.0696 64.7859 13.2374 63.0355 13.2374H60.8122V16.8665H58.6418ZM60.8111 11.36H62.6295C63.1752 11.36 63.6373 10.971 63.6373 10.1922C63.6373 9.41342 63.1752 9.01026 62.6295 9.01026H60.8122L60.8111 11.36ZM71.1515 16.1851L71.6971 16.8665H72.844V11.9163C72.844 10.3729 71.7658 9.38519 69.7933 9.38519C67.8214 9.38519 66.7856 10.3729 66.7856 11.8881H68.7306C68.7306 11.4016 69.0799 11.1651 69.7933 11.1651C70.5073 11.1651 70.8572 11.4574 70.8572 12.0554V12.4586H69.416C67.4435 12.4586 66.45 13.3207 66.45 14.8359C66.4494 15.5312 66.6877 16.0736 67.1635 16.4633C67.6393 16.8382 68.2267 17.0331 68.9258 17.0331C69.8076 17.0331 70.5497 16.755 71.1515 16.1851ZM70.8572 13.8488V14.6552C70.4655 15.0865 69.9616 15.2949 69.3461 15.2949C68.7449 15.2949 68.4363 15.0007 68.4363 14.5718C68.4363 14.0853 68.7587 13.8488 69.416 13.8488H70.8572ZM74.648 16.8672V9.55315H76.6355V16.8672H74.648ZM83.0737 16.1849L83.6194 16.8663L84.7507 16.8669V7.0634H82.7639V9.98295C82.2857 9.57979 81.6702 9.38498 80.9144 9.38498C80.1586 9.38498 79.5287 9.60797 79.0392 10.0663C78.5514 10.5118 78.2995 11.179 78.2995 12.0552V14.3492C78.2995 16.1139 79.4051 17.0329 80.9162 17.0329C81.3144 17.0397 81.7096 16.9683 82.0803 16.8228C82.4505 16.6773 82.7884 16.4605 83.0737 16.1849ZM82.7657 11.8616V14.5575C82.3042 15.0164 81.8147 15.253 81.3251 15.2517C81.1872 15.253 81.0511 15.2268 80.9239 15.1748C80.7973 15.1227 80.6821 15.0458 80.5854 14.9487C80.4887 14.8515 80.4129 14.7361 80.3621 14.6092C80.3114 14.4824 80.2869 14.3467 80.2899 14.2101V12.2078C80.2869 12.0713 80.3114 11.9356 80.3621 11.8088C80.4129 11.6819 80.4893 11.5665 80.5854 11.4694C80.6821 11.3722 80.7973 11.2954 80.9245 11.2433C81.0511 11.1912 81.1872 11.165 81.3251 11.1662C81.8147 11.1662 82.3042 11.4026 82.7657 11.8616Z" fill="black"/>
</svg>
