<svg width="158" height="103" viewBox="0 0 158 103" fill="none" xmlns="http://www.w3.org/2000/svg">
<g id="stand with ua">
<path id="[Linked] Ellipse 486" d="M141.541 21.0267C144.317 22.8777 146.124 25.1345 146.77 27.778C150.093 41.3773 121.435 60.0619 82.7606 69.5114C44.0864 78.9608 10.0412 75.5967 6.7184 61.9974C6.0725 59.3539 6.635 56.5183 8.24458 53.5957" stroke="black"/>
<g id="Group">
<path id="#" d="M16.0649 44.8545L14.8132 45.7188L15.9833 47.4133L17.2349 46.549L17.8998 47.5118L16.6481 48.3761L17.9246 50.2247L17.0773 50.8097L15.8009 48.9611L14.0293 50.1844L15.3058 52.033L14.4585 52.618L13.1821 50.7694L11.9304 51.6337L11.2656 50.6709L12.5173 49.8066L11.3472 48.1121L10.0956 48.9764L9.43074 48.0136L10.6824 47.1493L9.40593 45.3008L10.2532 44.7157L11.5296 46.5643L13.3012 45.341L12.0247 43.4925L12.872 42.9074L14.1484 44.756L15.4001 43.8917L16.0649 44.8545ZM15.1361 47.9983L13.966 46.3038L12.1944 47.5271L13.3645 49.2216L15.1361 47.9983Z" fill="black"/>
<path id="S" d="M23.289 46.9538C22.1551 47.6563 20.8865 47.9191 19.687 47.6713L19.8306 46.4812C20.8814 46.7111 21.9463 46.5194 22.8613 45.9525C23.9753 45.2624 24.3682 44.3859 23.8999 43.63C23.5302 43.0332 22.9674 42.9689 21.2887 43.4584C19.4858 43.9697 17.9615 44.3084 17.1235 42.9557C16.3225 41.6627 16.9312 40.157 18.622 39.1095C19.6365 38.481 20.6967 38.2372 21.81 38.3457L21.6986 39.5434C20.8657 39.3987 19.9647 39.5439 19.0895 40.0862C18.0749 40.7147 17.6896 41.559 18.1209 42.2552C18.503 42.8719 19.1776 42.8944 20.8316 42.3652C23.0769 41.6349 24.1826 41.7757 24.8604 42.8698C25.7107 44.2424 25.1191 45.8201 23.289 46.9538Z" fill="black"/>
<path id="t" d="M28.4114 36.8948L26.4729 37.983L28.4431 41.4927C28.8325 42.1865 29.2213 42.2098 29.8539 41.8547C30.1599 41.6829 30.4138 41.5135 30.7939 41.1391L31.3323 42.0982C30.9815 42.4293 30.6167 42.6877 30.229 42.9054C29.0659 43.5583 28.1215 43.3101 27.5259 42.2491L25.4527 38.5557L24.2487 39.2315L23.7562 38.3541L24.9601 37.6783L24.207 35.9542L25.064 35.4731L25.9804 37.1056L27.9189 36.0174L28.4114 36.8948Z" fill="black"/>
<path id="a" d="M37.9549 37.5904L38.1844 37.4737L38.651 38.3916C38.6198 38.4337 38.4636 38.5393 38.3175 38.6136C37.5457 39.0059 37.095 38.8937 36.6507 38.1746C36.5204 39.0545 35.9087 39.9167 34.97 40.3939C33.7601 41.0089 32.544 40.682 31.982 39.5764C31.2186 38.0745 32.4985 36.9776 33.6338 36.1643C34.6129 35.4567 34.9774 35.1926 34.7123 34.6711C34.4261 34.1079 33.6826 34.0395 32.8482 34.4637C32.1181 34.8348 31.5679 35.5082 31.322 36.3156L30.3361 35.9768C30.6745 34.9385 31.3701 34.0862 32.4339 33.5455C33.8733 32.8139 35.1626 33.1297 35.8094 34.4022L37.3257 37.3852C37.4741 37.6773 37.6629 37.7388 37.9549 37.5904ZM34.6498 39.4541C35.6928 38.924 36.2396 37.7273 35.8048 36.872L35.3171 35.9125C35.1724 36.196 34.8288 36.4494 34.1934 36.9036C33.3915 37.495 32.5479 38.1076 33.0144 39.0254C33.3431 39.6721 33.9406 39.8146 34.6498 39.4541Z" fill="black"/>
<path id="n" d="M40.7164 29.6267C42.1037 29.0031 43.5055 29.5531 44.1675 31.0258L45.9904 35.081L44.9232 35.5607L43.2442 31.8256C42.7165 30.6518 41.8429 30.2492 40.8824 30.6809C39.7726 31.1798 39.2429 32.3415 39.7418 33.4514L41.4016 37.1437L40.3344 37.6234L37.4562 31.2205L38.3526 30.8175L38.9177 31.8463C39.061 30.9096 39.7133 30.0776 40.7164 29.6267Z" fill="black"/>
<path id="d" d="M49.4358 23.6632L50.5259 23.2381L53.9266 31.9587L53.0109 32.3157L52.4987 31.2597C52.273 32.2268 51.6146 32.9859 50.6553 33.3599C48.9112 34.0401 47.2371 33.1608 46.4379 31.1115C45.6558 29.1057 46.341 27.2562 48.0198 26.6015C48.9572 26.2359 49.8866 26.3005 50.6516 26.7808L49.4358 23.6632ZM50.5428 32.2987C51.7855 31.8141 52.2181 30.5402 51.6485 29.0795C51.0789 27.6188 49.8981 26.9742 48.6554 27.4588C47.4128 27.9434 46.9802 29.2172 47.5498 30.6779C48.1194 32.1386 49.3002 32.7833 50.5428 32.2987Z" fill="black"/>
<path id="W" d="M63.1353 19.568L64.2715 19.2029L64.541 28.4562L63.3157 28.85L58.9818 22.4756L59.1942 30.1742L57.9911 30.5608L52.8203 22.8823L54.0011 22.5029L58.1306 28.6234L57.8998 21.2502L59.192 20.835L63.3358 27.0001L63.1353 19.568Z" fill="black"/>
<path id="i" d="M65.8267 19.7967L65.4883 18.5308L66.7543 18.1924L67.0927 19.4583L65.8267 19.7967ZM67.9733 27.5553L66.1604 20.7733L67.2907 20.4712L69.1036 27.2532L67.9733 27.5553Z" fill="black"/>
<path id="t_2" d="M74.9342 19.6573L72.7689 20.1606L73.6802 24.0809C73.8603 24.8559 74.2271 24.9869 74.9336 24.8226C75.2755 24.7431 75.5665 24.6515 76.0362 24.3982L76.2852 25.4694C75.8558 25.6893 75.4334 25.8356 75.0003 25.9363C73.7011 26.2383 72.8637 25.7362 72.5882 24.551L71.6292 20.4255L70.2845 20.7381L70.0567 19.758L71.4014 19.4454L71.1599 17.5796L72.1172 17.3571L72.5411 19.1805L74.7064 18.6772L74.9342 19.6573Z" fill="black"/>
<path id="h" d="M80.8934 17.3491C82.3887 17.0703 83.6212 17.9355 83.9171 19.5228L84.732 23.8935L83.5818 24.108L82.8312 20.0823C82.5953 18.8171 81.8413 18.2197 80.8061 18.4127C79.6329 18.6315 78.8441 19.6355 79.0671 20.8317L79.8091 24.8114L78.6589 25.0258L76.9434 15.8242L78.0936 15.6098L78.7112 18.9223C79.1116 18.1336 79.8812 17.5378 80.8934 17.3491Z" fill="black"/>
<path id="U" d="M90.8422 23.1657C88.6614 23.4528 87.0629 22.2471 86.7789 20.0895L86.0703 14.707L87.2767 14.5482L87.9853 19.9307C88.1838 21.4387 89.2401 22.2909 90.7017 22.0985C92.1633 21.9061 92.9631 20.8095 92.7645 19.3015L92.056 13.9191L93.2624 13.7603L93.9709 19.1427C94.255 21.3003 93.023 22.8786 90.8422 23.1657Z" fill="black"/>
<path id="k" d="M102.178 20.9313L102.435 20.9109L102.516 21.9373L101.957 21.9818C101.21 22.0411 100.732 21.6331 100.672 20.8867L100.526 19.0439L97.5401 19.2812L97.7811 22.3137L96.6148 22.4064L95.873 13.0757L97.0394 12.983L97.4548 18.2082L99.111 18.0765L100.561 15.0505L101.82 14.9503L100.285 18.0771L101.591 17.9733L101.801 20.6092C101.817 20.8191 101.968 20.948 102.178 20.9313Z" fill="black"/>
<path id="r" d="M107.906 14.605C108.069 14.5988 108.234 14.6159 108.399 14.6331L108.442 15.7789C108.184 15.7653 107.927 15.7751 107.623 15.7866C106.454 15.8312 105.55 16.6852 105.594 17.8544L105.746 21.8296L104.576 21.8741L104.309 14.8591L105.291 14.8217L105.429 15.9873C105.913 15.1727 106.83 14.646 107.906 14.605Z" fill="black"/>
<path id="a_2" d="M116.131 20.6863L116.388 20.6869L116.386 21.7165C116.339 21.7398 116.152 21.7628 115.988 21.7624C115.122 21.7605 114.772 21.4555 114.703 20.613C114.187 21.3372 113.25 21.8265 112.197 21.8242C110.84 21.8211 109.906 20.9766 109.908 19.7364C109.912 18.0516 111.551 17.6574 112.932 17.4499C114.126 17.2654 114.571 17.1962 114.572 16.6112C114.573 15.9794 113.943 15.5802 113.007 15.5781C112.188 15.5762 111.391 15.9255 110.805 16.5326L110.081 15.7821C110.855 15.0116 111.862 14.5693 113.056 14.572C114.67 14.5756 115.674 15.4436 115.671 16.871L115.664 20.2173C115.663 20.5449 115.803 20.6856 116.131 20.6863ZM112.34 20.8417C113.51 20.8443 114.541 20.0276 114.543 19.0682L114.546 17.9917C114.288 18.1784 113.866 18.2476 113.094 18.3629C112.111 18.5245 111.081 18.686 111.078 19.7156C111.077 20.441 111.544 20.8399 112.34 20.8417Z" fill="black"/>
<path id="i_2" d="M118.635 13.7753L118.686 12.4658L119.995 12.5166L119.944 13.8261L118.635 13.7753ZM118.393 21.8217L118.665 14.8068L119.834 14.8522L119.562 21.867L118.393 21.8217Z" fill="black"/>
<path id="n_2" d="M127.177 15.2056C128.693 15.3244 129.659 16.4798 129.533 18.0895L129.185 22.522L128.019 22.4306L128.339 18.348C128.439 17.0649 127.866 16.2924 126.816 16.2102C125.603 16.1151 124.581 16.88 124.486 18.0932L124.17 22.1291L123.003 22.0377L123.551 15.039L124.531 15.1158L124.533 16.2895C125.109 15.5365 126.08 15.1197 127.177 15.2056Z" fill="black"/>
<path id="e" d="M132.619 19.7815C132.586 21.1456 133.335 22.114 134.659 22.2828C135.796 22.428 136.499 22.0931 136.939 21.6066L137.683 22.4328C137.086 23.0408 136.06 23.4997 134.551 23.3071C132.3 23.0198 131.219 21.3249 131.482 19.259C131.755 17.1235 133.357 15.8418 135.354 16.0966C137.35 16.3513 138.469 17.9331 138.191 20.1151C138.173 20.2543 138.158 20.3704 138.12 20.4835L132.619 19.7815ZM135.226 17.0947C134.019 16.9407 133.106 17.6262 132.76 18.856L137.055 19.4039C137.052 18.1297 136.364 17.2398 135.226 17.0947Z" fill="black"/>
</g>
<path id="Star 1" d="M119.38 53.4865C119.287 53.0015 119.878 52.6889 120.226 53.0395L121.248 54.0695C121.366 54.1878 121.534 54.2399 121.698 54.2083L123.123 53.9333C123.608 53.8397 123.92 54.4312 123.57 54.7792L122.54 55.8013C122.421 55.9187 122.369 56.0873 122.401 56.2509L122.676 57.6757C122.769 58.1607 122.178 58.4733 121.83 58.1226L120.808 57.0926C120.69 56.9743 120.522 56.9223 120.358 56.9539L118.933 57.2289C118.448 57.3224 118.136 56.7309 118.486 56.383L119.516 55.3609C119.635 55.2435 119.687 55.0749 119.655 54.9112L119.38 53.4865Z" fill="black"/>
<path id="Ellipse 486" d="M150.95 41.9705C151.786 45.3916 150.729 49.1669 147.971 53.1023C145.213 57.0367 140.789 61.0774 135.013 64.9847C123.464 72.7971 106.601 80.0144 87.1619 84.764C67.7231 89.5136 49.4319 90.8857 35.5815 89.2793C28.6542 88.4759 22.8654 86.9305 18.6042 84.7111C14.3418 82.4911 11.6628 79.6286 10.8269 76.2075C9.99101 72.7865 11.0481 69.0111 13.8065 65.0757C16.5643 61.1413 20.9881 57.1006 26.7644 53.1933C38.3135 45.3809 55.1765 38.1636 74.6154 33.414C94.0542 28.6645 112.345 27.2924 126.196 28.8987C133.123 29.7022 138.912 31.2476 143.173 33.4669C147.436 35.6869 150.115 38.5494 150.95 41.9705Z" stroke="black"/>
</g>
</svg>
