<svg width="26" height="149" viewBox="0 0 26 149" fill="none" xmlns="http://www.w3.org/2000/svg">
<path fill-rule="evenodd" clip-rule="evenodd" d="M25.9698 118.275L0.421874 133.543L25.9698 148.811L25.9698 118.275ZM22.7655 142.969L7.05583 133.58L22.7655 124.192L22.7655 142.969Z" fill="white"/>
<path fill-rule="evenodd" clip-rule="evenodd" d="M4.35846 21.8423C5.24032 21.8423 5.95521 22.5636 5.95521 23.4535C5.95521 24.3433 5.24032 25.0646 4.35846 25.0646C3.4766 25.0646 2.76171 24.3433 2.76171 23.4535C2.76171 22.5636 3.4766 21.8423 4.35846 21.8423ZM9.26343 93.7904C8.78085 94.6711 8.53957 95.6701 8.53957 96.7871C8.53957 97.5748 8.6744 98.2945 8.94408 98.9461C9.21375 99.5977 9.61826 100.146 10.1576 100.59L8.59127 100.59L8.59127 103.146L25.9152 103.146L25.9152 100.461L18.6523 100.461C19.6742 99.5584 20.1852 98.3339 20.1852 96.7871C20.1852 95.6701 19.9439 94.6711 19.4613 93.7904C18.9787 92.9096 18.2939 92.2186 17.4068 91.7173C16.5197 91.2161 15.5014 90.9654 14.3517 90.9654C13.2021 90.9654 12.1873 91.2161 11.3073 91.7173C10.4273 92.2186 9.746 92.9096 9.26343 93.7904ZM19.8183 112.78C20.0641 111.893 20.187 110.983 20.187 110.052C20.187 108.448 19.8617 107.181 19.2109 106.25C18.5601 105.319 17.6924 104.854 16.6078 104.854C15.7834 104.854 15.1471 105.065 14.6988 105.487C14.2505 105.91 13.9323 106.415 13.7443 107.002C13.5563 107.589 13.39 108.341 13.2454 109.257C13.0863 110.174 12.9444 110.713 12.7356 111.134C12.5269 111.555 12.3038 111.782 11.8137 111.789C11.4443 111.789 11.1833 111.428 11.0303 111.134C10.8774 110.84 10.7133 110.227 10.7133 109.515C10.7133 108.298 11.0338 107.224 11.6123 106.25L9.55147 105.219C9.24778 105.72 9.00554 106.364 8.82477 107.152C8.644 107.94 8.55361 108.727 8.55361 109.515C8.55361 111.062 8.88262 112.137 9.54063 113.046C10.1986 113.955 10.8448 114.41 11.9439 114.41C12.7826 114.41 13.437 114.192 13.907 113.755C14.3771 113.318 14.7061 112.802 14.8941 112.208C15.0821 111.614 15.2484 110.997 15.393 110.052C15.5376 109.15 15.6909 108.438 15.8485 108.087C16.0062 107.735 16.3135 107.474 16.6945 107.474C17.4858 107.474 17.9744 108.276 17.9744 109.88C17.9744 110.582 17.8696 111.295 17.6599 112.018C17.4502 112.741 17.1718 113.361 16.8247 113.876L18.8855 114.907C19.2615 114.377 19.5724 113.668 19.8183 112.78ZM17.9044 97.0894C17.9044 96.1012 17.578 95.2885 16.9251 94.6512C16.2722 94.0138 15.4135 93.6952 14.349 93.6952C13.2845 93.6952 12.4258 94.0138 11.7729 94.6512C11.12 95.2885 10.7936 96.1012 10.7936 97.0894C10.7936 97.7339 10.939 98.3139 11.23 98.8295C11.521 99.345 11.9361 99.7532 12.4755 100.054C13.0148 100.355 13.6393 100.505 14.349 100.505C15.0587 100.505 15.6831 100.355 16.2225 100.054C16.7618 99.7532 17.177 99.345 17.468 98.8295C17.7589 98.3139 17.9044 97.7339 17.9044 97.0894ZM20.1122 80.1356L20.1122 77.5793L8.59127 77.5793L8.59127 80.2645L10.0512 80.2645C9.55439 80.7228 9.17827 81.2635 8.92279 81.8865C8.66731 82.5094 8.53957 83.1933 8.53957 83.938C8.53957 85.0551 8.78085 86.054 9.26343 86.9348C9.746 87.8156 10.4237 88.503 11.2966 88.9971C12.1695 89.4912 13.1879 89.7382 14.3517 89.7382C15.5156 89.7382 16.5375 89.4912 17.4175 88.9971C18.2975 88.503 18.9787 87.8156 19.4613 86.9348C19.9439 86.054 20.1852 85.0551 20.1852 83.938C20.1852 83.1503 20.0503 82.4307 19.7807 81.779C19.511 81.1274 19.1065 80.5796 18.5671 80.1356L20.1122 80.1356ZM17.9044 83.6369C17.9044 82.6487 17.578 81.8324 16.9251 81.1879C16.2722 80.5434 15.4135 80.2212 14.349 80.2212C13.2845 80.2212 12.4258 80.5434 11.7729 81.1879C11.12 81.8324 10.7936 82.6487 10.7936 83.6369C10.7936 84.6251 11.12 85.4378 11.7729 86.0751C12.4258 86.7124 13.2845 87.0311 14.349 87.0311C15.4135 87.0311 16.2722 86.7124 16.9251 86.0751C17.578 85.4378 17.9044 84.6251 17.9044 83.6369ZM19.44 72.6086C19.9368 71.6633 20.1852 70.5964 20.1852 69.4077C20.1852 68.2906 19.9545 67.306 19.4932 66.4539C19.032 65.6017 18.3755 64.9537 17.5239 64.5097L16.3317 66.572C16.8568 66.9014 17.2507 67.3132 17.5133 67.8073C17.7759 68.3014 17.9071 68.842 17.9071 69.4292C17.9071 70.446 17.5843 71.2802 16.9385 71.9319C16.2927 72.5835 15.4304 72.9093 14.3517 72.9093C13.273 72.9093 12.4108 72.5799 11.765 71.9211C11.1192 71.2623 10.7963 70.4317 10.7963 69.4292C10.7963 68.842 10.9276 68.3014 11.1902 67.8073C11.4527 67.3132 11.8466 66.9014 12.3718 66.572L11.1795 64.5097C10.3279 64.9394 9.67503 65.5803 9.22085 66.4324C8.76666 67.2845 8.53957 68.2763 8.53957 69.4077C8.53957 70.6107 8.78795 71.6812 9.28472 72.6193C9.78149 73.5574 10.4699 74.2913 11.3498 74.8212C12.2298 75.3511 13.2305 75.6161 14.3517 75.6161C15.473 75.6161 16.4772 75.3511 17.3643 74.8212C18.2513 74.2913 18.9433 73.5538 19.44 72.6086ZM14.4156 51.7317C14.6001 51.7317 14.8627 51.746 15.2033 51.7746L15.2033 60.7757C16.0407 60.6182 16.7043 60.2064 17.1939 59.5405C17.6836 58.8745 17.9284 58.0475 17.9284 57.0593C17.9284 55.799 17.5168 54.7607 16.6936 53.9444L18.3329 52.505C18.9433 53.0206 19.4045 53.6722 19.7168 54.4599C20.029 55.2476 20.1852 56.1355 20.1852 57.1237C20.1852 58.384 19.9368 59.4939 19.44 60.4535C18.9433 61.413 18.2513 62.1542 17.3643 62.6769C16.4772 63.1996 15.473 63.461 14.3517 63.461C13.2446 63.461 12.2476 63.2068 11.3605 62.6984C10.4734 62.19 9.78149 61.4846 9.28472 60.5824C8.78795 59.6801 8.53957 58.6633 8.53957 57.5319C8.53957 56.4148 8.7844 55.4159 9.27407 54.5351C9.76374 53.6543 10.4521 52.9669 11.3392 52.4728C12.2263 51.9787 13.2517 51.7317 14.4156 51.7317ZM11.4213 59.8636C10.9175 59.2692 10.6655 58.5424 10.6655 57.6831C10.6655 56.8095 10.921 56.0791 11.432 55.4919C11.9429 54.9048 12.61 54.5539 13.4332 54.4393L13.4332 60.9484C12.5958 60.8195 11.9252 60.4579 11.4213 59.8636ZM20.1871 45.9015C20.1871 46.8325 20.0641 47.7419 19.8183 48.6298C19.5724 49.5177 19.2615 50.2266 18.8855 50.7565L16.8247 49.7254C17.1718 49.2098 17.4502 48.5904 17.6599 47.8672C17.8696 47.1439 17.9744 46.4314 17.9744 45.7297C17.9744 44.1257 17.4858 43.3237 16.6945 43.3237C16.3135 43.3237 16.0062 43.5846 15.8485 43.9359C15.6909 44.2872 15.5376 44.9993 15.393 45.9015C15.2484 46.8468 15.0821 47.4631 14.8941 48.0574C14.7061 48.6518 14.2008 49.3231 13.9033 49.5598C13.4036 49.9725 12.7356 50.2594 11.9439 50.2594C11.1521 50.2594 10.1986 49.8047 9.54063 48.8953C8.88262 47.9858 8.55361 46.9112 8.55361 45.3645C8.55361 44.5768 8.61193 44.1114 8.7927 43.3237C8.97347 42.536 9.24488 41.9664 9.55147 41.3749L11.4602 42.3294C11.0303 43.121 10.7133 44.2458 10.7133 45.3645C10.7133 46.0766 10.8774 46.6889 11.0303 46.9833C11.1833 47.2778 11.4443 47.6385 11.8137 47.6385C12.3038 47.6313 12.5269 47.4042 12.7356 46.9833C12.9444 46.5625 13.0863 46.0233 13.2454 45.1067C13.39 44.1901 13.5563 43.4382 13.7443 42.8511C13.9323 42.2639 14.2505 41.759 14.6988 41.3366C15.1471 40.9141 15.7834 40.7028 16.6078 40.7028C17.6924 40.7028 18.5601 41.1683 19.2109 42.0992C19.8617 43.0301 20.1871 44.2975 20.1871 45.9015ZM9.26343 29.6546C8.78085 30.5354 8.53957 31.5343 8.53957 32.6514C8.53957 33.4391 8.6744 34.1588 8.94408 34.8104C9.21375 35.462 9.61826 36.0098 10.1576 36.4538L8.59127 36.4538L8.59127 39.0102L25.9152 39.0102L25.9152 36.3249L18.6523 36.3249C19.6742 35.4226 20.1852 34.1981 20.1852 32.6514C20.1852 31.5343 19.9439 30.5354 19.4613 29.6546C18.9787 28.7739 18.2939 28.0829 17.4068 27.5816C16.5197 27.0803 15.5014 26.8297 14.3517 26.8297C13.2021 26.8297 12.1873 27.0803 11.3073 27.5816C10.4273 28.0829 9.746 28.7739 9.26343 29.6546ZM17.9044 33.0271C17.9044 32.0389 17.578 31.2262 16.9251 30.5889C16.2722 29.9516 15.4135 29.6329 14.349 29.6329C13.2845 29.6329 12.4258 29.9516 11.7729 30.5889C11.12 31.2262 10.7936 32.0389 10.7936 33.0271C10.7936 33.6716 10.939 34.2516 11.23 34.7672C11.521 35.2828 11.9361 35.6909 12.4755 35.9917C13.0148 36.2924 13.6393 36.4428 14.349 36.4428C15.0587 36.4428 15.6831 36.2924 16.2225 35.9917C16.7618 35.6909 17.177 35.2828 17.468 34.7672C17.7589 34.2516 17.9044 33.6716 17.9044 33.0271ZM8.61763 22.0738L8.61763 24.7591L20.1385 24.7591L20.1385 22.0738L8.61763 22.0738ZM8.53957 12.5774C8.53957 14.5251 9.13568 15.8856 10.3279 16.659L8.59127 16.659L8.59127 19.2154L20.1122 19.2154L20.1122 16.5301L14.522 16.5301C13.3866 16.5301 12.5172 16.2365 11.914 15.6493C11.3108 15.0621 11.0092 14.2458 11.0092 13.2003C11.0092 13.0142 11.0305 12.8065 11.0731 12.5774L8.53957 12.5774ZM14.4156 0.0234141C14.6001 0.0234141 14.8627 0.0377421 15.2033 0.0663828L15.2033 9.06745C16.0407 8.90992 16.7043 8.49818 17.1939 7.83222C17.6836 7.16627 17.9284 6.33921 17.9284 5.35102C17.9284 4.09072 17.5168 3.05242 16.6936 2.23609L18.3329 0.796783C18.9433 1.31235 19.4045 1.96398 19.7168 2.75167C20.029 3.53935 20.1852 4.42728 20.1852 5.41547C20.1852 6.67577 19.9368 7.78567 19.44 8.74522C18.9433 9.70476 18.2513 10.4459 17.3643 10.9686C16.4772 11.4914 15.473 11.7527 14.3517 11.7527C13.2446 11.7527 12.2476 11.4985 11.3605 10.9901C10.4734 10.4817 9.78149 9.77637 9.28472 8.87411C8.78795 7.97185 8.53957 6.95504 8.53957 5.82363C8.53957 4.70655 8.7844 3.70763 9.27407 2.82685C9.76374 1.94608 10.4521 1.25865 11.3392 0.764557C12.2263 0.270462 13.2517 0.0234142 14.4156 0.0234141ZM11.4213 7.77263C10.9175 7.17828 10.6655 6.45147 10.6655 5.59218C10.6655 4.71856 10.921 3.98817 11.432 3.40099C11.9429 2.8138 12.61 2.46293 13.4332 2.34836L13.4332 8.85748C12.5958 8.72859 11.9252 8.36697 11.4213 7.77263Z" fill="white"/>
<ellipse cx="5.66669" cy="145.895" rx="2.91545" ry="2.88935" transform="rotate(-90 5.66669 145.895)" fill="white"/>
</svg>
