<svg width="61" height="61" viewBox="0 0 61 61" fill="none" xmlns="http://www.w3.org/2000/svg">
<g id="Arrow">
<path id="Arrow 1" d="M17.2929 30.7071C16.9024 30.3166 16.9024 29.6834 17.2929 29.2929L23.6569 22.9289C24.0474 22.5384 24.6805 22.5384 25.0711 22.9289C25.4616 23.3195 25.4616 23.9526 25.0711 24.3431L19.4142 30L25.0711 35.6569C25.4616 36.0474 25.4616 36.6805 25.0711 37.0711C24.6805 37.4616 24.0474 37.4616 23.6569 37.0711L17.2929 30.7071ZM42 31L18 31L18 29L42 29L42 31Z" fill="white"/>
<circle id="Ellipse 483" cx="30.5" cy="30.5" r="29.5" transform="matrix(-1 0 0 1 61 0)" stroke="white" stroke-width="2"/>
</g>
</svg>
