<svg width="13" height="13" viewBox="0 0 13 13" fill="none" xmlns="http://www.w3.org/2000/svg">
<path d="M3.51823 0H8.61359C10.5547 0 12.1318 1.57714 12.1318 3.51823V8.61359C12.1318 9.54668 11.7611 10.4416 11.1014 11.1014C10.4416 11.7611 9.54668 12.1318 8.61359 12.1318H3.51823C1.57714 12.1318 0 10.5547 0 8.61359V3.51823C0 2.58514 0.370669 1.69026 1.03046 1.03046C1.69026 0.370669 2.58514 0 3.51823 0ZM3.39691 1.21318C2.81775 1.21318 2.26231 1.44325 1.85278 1.85278C1.44325 2.26231 1.21318 2.81775 1.21318 3.39691V8.73491C1.21318 9.94202 2.18979 10.9186 3.39691 10.9186H8.73491C9.31407 10.9186 9.86951 10.6886 10.279 10.279C10.6886 9.86951 10.9186 9.31407 10.9186 8.73491V3.39691C10.9186 2.18979 9.94202 1.21318 8.73491 1.21318H3.39691ZM9.25051 2.12307C9.45161 2.12307 9.64447 2.20295 9.78667 2.34515C9.92886 2.48735 10.0087 2.68021 10.0087 2.88131C10.0087 3.0824 9.92886 3.27526 9.78667 3.41746C9.64447 3.55966 9.45161 3.63955 9.25051 3.63955C9.04941 3.63955 8.85655 3.55966 8.71435 3.41746C8.57216 3.27526 8.49227 3.0824 8.49227 2.88131C8.49227 2.68021 8.57216 2.48735 8.71435 2.34515C8.85655 2.20295 9.04941 2.12307 9.25051 2.12307ZM6.06591 3.03295C6.8703 3.03295 7.64174 3.3525 8.21053 3.92129C8.77932 4.49008 9.09886 5.26152 9.09886 6.06591C9.09886 6.8703 8.77932 7.64174 8.21053 8.21053C7.64174 8.77932 6.8703 9.09886 6.06591 9.09886C5.26152 9.09886 4.49008 8.77932 3.92129 8.21053C3.3525 7.64174 3.03295 6.8703 3.03295 6.06591C3.03295 5.26152 3.3525 4.49008 3.92129 3.92129C4.49008 3.3525 5.26152 3.03295 6.06591 3.03295ZM6.06591 4.24614C5.58327 4.24614 5.12041 4.43786 4.77913 4.77913C4.43786 5.12041 4.24614 5.58327 4.24614 6.06591C4.24614 6.54854 4.43786 7.01141 4.77913 7.35268C5.12041 7.69396 5.58327 7.88568 6.06591 7.88568C6.54854 7.88568 7.01141 7.69396 7.35268 7.35268C7.69396 7.01141 7.88568 6.54854 7.88568 6.06591C7.88568 5.58327 7.69396 5.12041 7.35268 4.77913C7.01141 4.43786 6.54854 4.24614 6.06591 4.24614Z" fill="white"/>
</svg>
