<svg width="49" height="44" viewBox="0 0 49 44" fill="none" xmlns="http://www.w3.org/2000/svg">
<mask id="mask0_130_2262" style="mask-type:alpha" maskUnits="userSpaceOnUse" x="0" y="0" width="49" height="44">
<path d="M22.3443 41.4328C21.3002 40.2718 18.6931 38.0083 16.5508 36.4029C10.2033 31.6463 9.3394 30.9579 6.76217 28.603C2.01089 24.2617 -0.00689691 19.9001 1.77072e-05 13.986C0.00339154 11.099 0.201695 9.98678 1.01644 8.28504C2.39872 5.39791 4.43489 3.25255 7.03814 1.94043C8.88192 1.01111 9.79127 0.598225 12.8703 0.581334C16.0911 0.563671 16.7691 0.936322 18.6638 1.96916C20.9698 3.22631 23.3435 5.91304 23.8341 7.82158L24.1371 9.00036L24.8845 7.37691C29.1076 -1.79712 42.5905 -1.65986 47.2826 7.60493C48.771 10.544 48.9345 16.8196 47.6146 20.3546C45.8928 24.9659 42.659 28.4815 35.1834 33.8687C30.2808 37.4018 24.7322 42.7474 24.346 43.4982C23.8976 44.3697 24.3246 43.6348 22.3443 41.4328Z" fill="#FF0000"/>
</mask>
<g mask="url(#mask0_130_2262)">
<rect x="-1" width="50" height="21" fill="#0057B7"/>
<rect x="-1" y="21" width="50" height="23" fill="#FFDD00"/>
</g>
</svg>
