<svg width="160" height="73" viewBox="0 0 160 73" fill="none" xmlns="http://www.w3.org/2000/svg">
<g id="Logo">
<g id="Logo_2">
<rect id="mid" width="122.814" height="36.8871" fill="white"/>
<g id="The Residence of freedom">
<path d="M68.0693 43.9958V45.159H65.3762V51.6167H64.0994V45.159H61.4062V43.9958H68.0693Z" fill="white"/>
<path d="M74.4531 43.9958H75.7099V51.6167H74.4531V48.2876H70.6627V51.6167H69.4059V43.9958H70.6627V47.1244H74.4531V43.9958Z" fill="white"/>
<path d="M79.2409 50.4936H83.3106V51.6167H77.9841V43.9958H83.2108V45.1189H79.2409V47.1645H82.3131V48.2475H79.2409V50.4936Z" fill="white"/>
<path d="M92.8463 51.6167L91.0709 48.6486H89.2754V51.6167H88.0386V43.9958H91.1706C92.8264 43.9958 93.8638 44.8983 93.8638 46.3222C93.8638 47.365 93.3052 48.1271 92.3676 48.4681L94.2827 51.6167H92.8463ZM89.2754 45.0988V47.6057H91.0509C92.0683 47.6057 92.567 47.1645 92.567 46.3422C92.567 45.52 92.0683 45.0988 91.0509 45.0988H89.2754Z" fill="white"/>
<path d="M97.0357 50.4936H101.105V51.6167H95.7789V43.9958H101.006V45.1189H97.0357V47.1645H100.108V48.2475H97.0357V50.4936Z" fill="white"/>
<path d="M104.956 51.717C103.779 51.717 102.681 51.3359 101.903 50.614L102.641 49.6513C103.28 50.273 104.158 50.614 105.055 50.614C106.093 50.614 106.711 50.2129 106.711 49.551C106.711 48.9895 106.252 48.7488 104.995 48.3878C103.559 47.9667 102.183 47.5255 102.183 46.0615C102.183 44.7378 103.32 43.8955 105.055 43.8955C106.113 43.8955 107.01 44.1963 107.788 44.798L107.09 45.7606C106.532 45.2994 105.813 44.9985 104.976 44.9985C104.038 44.9985 103.439 45.3996 103.439 46.0013C103.439 46.5628 103.938 46.8436 105.235 47.1845C106.97 47.6258 107.968 48.1672 107.968 49.4307C107.968 50.8346 106.831 51.717 104.956 51.717Z" fill="white"/>
<path d="M109.584 51.6167V43.9958H110.841V51.6167H109.584Z" fill="white"/>
<path d="M115.888 43.9958C118.302 43.9958 119.638 45.4999 119.638 47.8063C119.638 50.0524 118.242 51.6167 115.888 51.6167H113.115V43.9958H115.888ZM115.888 50.5137C117.424 50.5137 118.342 49.4708 118.342 47.8063C118.342 46.1417 117.424 45.0988 115.888 45.0988H114.372V50.5137H115.888Z" fill="white"/>
<path d="M122.591 50.4936H126.66V51.6167H121.334V43.9958H126.561V45.1189H122.591V47.1645H125.663V48.2475H122.591V50.4936Z" fill="white"/>
<path d="M133.343 43.9958H134.54V51.6167H133.323L129.393 45.9812V51.6167H128.196V43.9958H129.433L133.343 49.5912V43.9958Z" fill="white"/>
<path d="M139.847 51.717C137.652 51.717 136.236 50.1728 136.236 47.8063C136.236 45.4799 137.712 43.8955 139.847 43.8955C141.403 43.8955 142.58 44.6977 143.019 46.1417L141.842 46.5628C141.543 45.52 140.844 44.9985 139.827 44.9985C138.45 44.9985 137.533 46.1016 137.533 47.8063C137.533 49.551 138.411 50.614 139.827 50.614C140.844 50.614 141.543 50.0925 141.842 49.0497L143.019 49.4708C142.58 50.8747 141.403 51.717 139.847 51.717Z" fill="white"/>
<path d="M145.792 50.4936H149.861V51.6167H144.535V43.9958H149.762V45.1189H145.792V47.1645H148.864V48.2475H145.792V50.4936Z" fill="white"/>
<path d="M65.4161 64.5523C63.2017 64.5523 61.7653 63.008 61.7653 60.6415C61.7653 58.3151 63.2615 56.7308 65.4161 56.7308C67.6304 56.7308 69.0668 58.275 69.0668 60.6415C69.0668 62.9679 67.5706 64.5523 65.4161 64.5523ZM65.4161 63.4492C66.8524 63.4492 67.7701 62.3261 67.7701 60.6415C67.7701 58.9569 66.8524 57.8338 65.4161 57.8338C63.9797 57.8338 63.062 58.9569 63.062 60.6415C63.062 62.3261 63.9797 63.4492 65.4161 63.4492Z" fill="white"/>
<path d="M76.0091 57.9742H72.0193V60.0399H75.1114V61.1429H72.0193V64.452H70.7625V56.831H76.0091V57.9742Z" fill="white"/>
<path d="M85.8042 57.9742H81.8144V60.0399H84.9065V61.1429H81.8144V64.452H80.5576V56.831H85.8042V57.9742Z" fill="white"/>
<path d="M91.9686 64.452L90.1931 61.4838H88.3976V64.452H87.1608V56.831H90.2928C91.9486 56.831 92.986 57.7335 92.986 59.1574C92.986 60.2003 92.4274 60.9624 91.4898 61.3033L93.4049 64.452H91.9686ZM88.3976 57.9341V60.441H90.1731C91.1905 60.441 91.6893 59.9998 91.6893 59.1775C91.6893 58.3552 91.1905 57.9341 90.1731 57.9341H88.3976Z" fill="white"/>
<path d="M96.1579 63.3289H100.228V64.452H94.9011V56.831H100.128V57.9541H96.1579V59.9998H99.2301V61.0827H96.1579V63.3289Z" fill="white"/>
<path d="M103.02 63.3289H107.09V64.452H101.764V56.831H106.99V57.9541H103.02V59.9998H106.093V61.0827H103.02V63.3289Z" fill="white"/>
<path d="M111.501 56.831C113.915 56.831 115.252 58.3352 115.252 60.6415C115.252 62.8877 113.855 64.452 111.501 64.452H108.728V56.831H111.501ZM111.501 63.349C113.037 63.349 113.955 62.3061 113.955 60.6415C113.955 58.9769 113.037 57.9341 111.501 57.9341H109.985V63.349H111.501Z" fill="white"/>
<path d="M120.02 64.5523C117.805 64.5523 116.369 63.008 116.369 60.6415C116.369 58.3151 117.865 56.7308 120.02 56.7308C122.234 56.7308 123.67 58.275 123.67 60.6415C123.67 62.9679 122.174 64.5523 120.02 64.5523ZM120.02 63.4492C121.456 63.4492 122.374 62.3261 122.374 60.6415C122.374 58.9569 121.456 57.8338 120.02 57.8338C118.583 57.8338 117.666 58.9569 117.666 60.6415C117.666 62.3261 118.583 63.4492 120.02 63.4492Z" fill="white"/>
<path d="M133.825 56.831V64.452H132.608V58.275L130.294 64.452H128.897L126.583 58.275V64.452H125.366V56.831H127.301L129.615 62.9679L131.909 56.831H133.825Z" fill="white"/>
</g>
<g id="Ukraine">
<path d="M18.964 26.1901C14.8872 26.1901 12.4258 23.7546 12.4258 19.9835V11.0664H15.7334V19.8656C15.7334 21.9869 16.8872 23.2046 18.964 23.2046C21.0409 23.2046 22.1947 21.9869 22.1947 19.8656V11.0664H25.5023V19.9835C25.5023 23.7546 23.0408 26.1901 18.964 26.1901Z" fill="black"/>
<path d="M40.6172 22.2619C40.6172 22.6547 40.8865 22.9297 41.2711 22.9297H41.8095V25.9937H40.1173C38.3096 25.9937 37.3097 25.0116 37.3097 23.2046V19.9442H32.5406V25.9937H29.233V11.0664H32.5406V16.9588H34.7328L38.1942 11.0664H41.8095L38.0789 16.9588H40.6172V22.2619Z" fill="black"/>
<path d="M56.6937 22.9297H57.2321V25.9937H55.5399C53.7707 25.9937 52.7323 25.0116 52.7323 23.2046V20.4942H47.8478V25.9937H44.5402V11.0664H51.3092C54.6553 11.0664 56.6552 12.6377 56.6552 15.2303C56.6552 17.2337 55.1937 18.53 53.5784 19.0407H56.0399V22.2619C56.0399 22.6547 56.3091 22.9297 56.6937 22.9297ZM50.8092 13.8162H47.8478V17.9015H50.8092C52.5015 17.9015 53.3476 17.273 53.3476 15.8588C53.3476 14.484 52.5015 13.8162 50.8092 13.8162Z" fill="black"/>
<path d="M69.9241 25.9937L68.8856 23.0475H62.5012L61.4628 25.9937H58.0013L63.6935 11.0664H67.7703L73.4624 25.9937H69.9241ZM63.5396 20.1406H67.8472L65.6934 14.0126L63.5396 20.1406Z" fill="black"/>
<path d="M75.6162 25.9937V11.0664H78.9238V25.9937H75.6162Z" fill="black"/>
<path d="M92.5003 11.0664H95.6925V25.9937H92.6157L86.039 16.4874V25.9937H82.8468V11.0664H85.962L92.5003 20.5727V11.0664Z" fill="black"/>
<path d="M102.846 23.0475H110.384V25.9937H99.6155V11.0664H110.192V14.0126H102.846V16.9195H108.461V19.7478H102.846V23.0475Z" fill="black"/>
</g>
<path id="dowm" fill-rule="evenodd" clip-rule="evenodd" d="M157.541 36.8876H53.3683V70.8237H157.541V36.8876ZM51.9062 35.4121V72.2992H159.003V35.4121H51.9062Z" fill="white"/>
</g>
</g>
</svg>
