<?xml version="1.0" encoding="UTF-8"?>
<svg xmlns="http://www.w3.org/2000/svg" width="111" height="25" viewBox="0 0 111 25" fill="none">
  <path fill-rule="evenodd" clip-rule="evenodd" d="M21.1384 8.79014C20.682 10.0458 19.9848 11.8725 19.4847 13.3445C19.0873 14.5115 18.6383 15.8159 18.2837 16.6489C18.2096 16.8477 18.1269 17.0442 18.0341 17.2319C17.2142 18.8873 15.7359 20.0692 14.1449 19.9086C12.2166 19.7194 14.4232 16.3333 13.7348 17.1522C12.9488 18.065 12.0699 18.8793 10.4704 18.8643C7.26964 18.8351 11.7024 13.2855 14.6613 13.3561C14.9248 13.3625 15.0752 14.057 14.8132 14.0507C11.7289 14.1932 10.0155 17.9004 11.8566 17.7528C13.0767 17.6621 13.9406 16.4895 14.4796 15.9765C14.5775 15.8831 15.0051 15.9645 14.9535 16.1087C14.5261 16.9575 13.6597 19.3231 14.8092 19.1615C16.463 18.9132 17.9992 16.5645 17.7382 14.5041C17.3007 10.8852 11.0318 10.3556 8.45155 14.4245C5.81118 18.6146 8.06557 22.3294 13.3901 21.5867C14.1762 21.477 14.0407 22.3432 13.7286 22.407C9.71818 23.4821 5.97436 21.3866 6.00637 17.8107L6.00222 17.818C6.00222 17.818 6.00222 17.3236 6.00222 16.5743V6.05031C6.00222 5.56767 6.39383 5.17525 6.87646 5.17525C7.35988 5.17525 7.75163 5.56767 7.75163 6.05031L7.74947 10.5831C7.74947 10.8318 7.95257 11.0345 8.20372 11.0345C8.45368 11.0345 8.65705 10.8321 8.65705 10.5831H8.65585V3.16506C8.65585 2.68242 9.04732 2.28934 9.53033 2.28934C10.0127 2.28934 10.405 2.68242 10.405 3.16506V10.3354C10.405 10.5855 10.6207 10.7887 10.8711 10.7887C11.122 10.7887 11.3377 10.5857 11.3377 10.3355V2.20167C11.3377 1.63935 11.9596 1.3565 12.2417 1.3565H12.4749C12.7559 1.3565 13.3778 1.63935 13.3778 2.20167V10.1021C13.3778 10.3543 13.5944 10.556 13.844 10.556C14.0947 10.556 14.3104 10.3543 14.3104 10.1021V3.36867C14.3104 2.88604 14.7028 2.49433 15.1866 2.49433C15.6694 2.49419 16.062 2.88604 16.062 3.36895V11.1234C16.062 11.1364 16.0682 11.151 16.0694 11.1642C16.5972 11.3214 17.07 11.5478 17.4674 11.8386C17.905 10.7748 18.8804 9.00729 19.032 8.67875C19.5563 7.53797 21.6235 7.45763 21.1384 8.79014ZM21.3603 1.46334e-07H3.64327C1.63895 1.46334e-07 0 1.63935 0 3.64207L0.000133879 21.3571C0.000133879 23.3606 1.63895 25 3.64327 25H21.3603C23.364 25 25.0025 23.3606 25.0025 21.3571V3.64207C25.0025 1.63935 23.364 1.46334e-07 21.3603 1.46334e-07Z" fill="black"></path>
  <path fill-rule="evenodd" clip-rule="evenodd" d="M45.667 6.21742C45.667 7.3132 44.7821 8.19831 43.6877 8.19831C42.5917 8.19831 41.7036 7.3132 41.7036 6.21742C41.7036 5.12322 42.5917 4.23424 43.6877 4.23424C44.7821 4.23424 45.667 5.12322 45.667 6.21742ZM92.1414 18.8365C92.1414 19.9287 91.2544 20.8217 90.1618 20.8217C89.0654 20.8217 88.1784 19.9287 88.1784 18.8369C88.1791 17.7427 89.0654 16.8557 90.1618 16.8557C91.2544 16.8555 92.1407 17.7427 92.1414 18.8365ZM36.4304 17.7306H41.0607V20.3584H31.948L36.5795 12.2008H32.1969V9.57297H41.0607L36.4304 17.7306ZM42.2383 9.57297H45.1402V20.3584H42.2383V9.57297ZM53.6334 12.5725C53.6334 12.5725 53.0292 11.8464 51.8266 11.8464C49.8493 11.8464 49.5488 14.4004 49.5488 14.4004C51.8033 14.4004 52.7794 13.7671 53.6334 12.5725ZM54.3837 17.2179L55.9853 18.7187C55.9853 18.7187 54.4563 20.7112 51.8266 20.7112C48.6474 20.7112 46.6225 17.9459 46.6225 14.966C46.6229 11.9896 48.6981 9.21845 51.8266 9.21845C54.3316 9.21845 55.9068 10.5104 56.6111 12.5725C55.3077 15.107 53.13 16.4431 50.1239 16.4431C49.9244 16.4431 49.6989 16.4431 49.6989 16.4431C49.7986 16.7473 50.251 18.1316 51.8266 18.1316C53.582 18.1316 54.3837 17.2179 54.3837 17.2179ZM59.5651 14.966C59.5651 16.49 60.4929 18.039 62.1188 18.039C63.7495 18.039 64.6999 16.49 64.6999 14.966C64.6999 13.4438 63.7495 11.8928 62.1188 11.8928C60.4929 11.8928 59.5651 13.4438 59.5651 14.966ZM56.6604 14.966C56.6604 11.9393 58.9142 9.21845 62.1188 9.21845C63.4729 9.21845 64.6999 10.2062 64.6999 10.2062V4.17831H67.5538V15.7135C67.5538 17.2661 68.1539 18.3449 69.4553 19.28L67.0555 20.6144C66.6003 20.3102 65.7531 19.2318 65.7531 19.2318C65.7531 19.2318 64.4223 20.7112 62.1188 20.7112C58.9142 20.7112 56.6604 17.9924 56.6604 14.966ZM74.7926 18.039C76.4199 18.039 77.345 16.49 77.345 14.966C77.3457 13.4438 76.4199 11.8928 74.7926 11.8928C73.166 11.8928 72.2369 13.4438 72.2369 14.966C72.2369 16.49 73.166 18.039 74.7926 18.039ZM80.25 14.966C80.25 17.9924 77.9962 20.7112 74.7926 20.7112C71.5854 20.7112 69.3316 17.9924 69.3316 14.966C69.3316 11.9393 71.5854 9.21845 74.7926 9.21845C77.9962 9.21845 80.25 11.9393 80.25 14.966ZM87.1094 19.4195L84.7082 20.7556C83.0542 19.3731 82.3492 17.9459 82.3492 15.8567V12.2452H80.2267V9.57297H82.3492V6.29104H85.2076V9.57297H87.4621V12.2452H85.2076V15.8563C85.2076 17.404 85.808 18.4804 87.1094 19.4195ZM94.6704 4.17831H97.5788V20.3584H94.6704V4.17831ZM110.024 10.0899L105.391 20.3584H103.087L98.4545 10.0899L101.309 9.33666L104.233 16.5612L107.169 9.33666L110.024 10.0899Z" fill="black"></path>
</svg>
