<?xml version="1.0" encoding="UTF-8"?>
<svg xmlns="http://www.w3.org/2000/svg" width="97" height="45" viewBox="0 0 97 45" fill="none">
  <path d="M58.7339 19.5003V23.2934H61.4015C62.388 23.2934 63.1799 22.4507 63.1799 21.3968C63.1799 20.3431 62.388 19.5003 61.4015 19.5003H58.7339ZM63.3256 29.0967L60.9327 24.9633H58.7339V29.0967H56.875V17.7494H61.4015C62.4202 17.7494 63.277 18.1061 63.9723 18.8196C64.6835 19.5167 65.0392 20.3757 65.0392 21.3968C65.0392 22.8397 64.1339 24.1525 62.7919 24.6875L65.3628 29.0967H63.3256Z" fill="#0E151B"></path>
  <path d="M68.3496 17.7494H70.2085V29.0967H68.3496V17.7494Z" fill="#0E151B"></path>
  <path d="M84.8744 23.229V24.007C84.8744 25.5632 84.3574 26.8437 83.3387 27.8325C82.3203 28.8213 80.9783 29.3076 79.3292 29.3076C77.5833 29.3076 76.1443 28.7402 74.9965 27.6054C73.8647 26.471 73.2988 25.0768 73.2988 23.4233C73.2988 21.7862 73.8647 20.3919 74.9965 19.2576C76.1443 18.1064 77.5507 17.539 79.2321 17.539C81.35 17.539 83.1931 18.5928 84.1636 20.23L82.5626 21.1541C81.9645 20.068 80.7034 19.3545 79.2321 19.3545C78.0521 19.3545 77.066 19.7436 76.3059 20.5217C75.5461 21.2997 75.1582 22.2725 75.1582 23.4396C75.1582 24.6068 75.5461 25.5792 76.3059 26.3413C77.0819 27.1031 78.1007 27.4921 79.3455 27.4921C81.35 27.4921 82.6597 26.471 82.9992 24.8985H79.2162V23.229H84.8744Z" fill="#0E151B"></path>
  <path d="M89.9684 25.0603H93.5579L91.7627 19.9381L89.9684 25.0603ZM94.9636 29.0967L94.1713 26.8111H89.3541L88.5619 29.0967H86.541L90.6474 17.7494H92.8781L96.9685 29.0967H94.9636Z" fill="#0E151B"></path>
  <path d="M40.3244 41.675C39.7362 42.3076 38.8481 42.6386 37.9702 42.4778C37.3859 42.3712 36.8719 42.0788 36.4836 41.6326C36.127 41.2224 35.4293 40.0047 35.4225 39.9923L35.3784 39.9156C35.3784 39.9156 34.3995 40.517 33.5185 40.7965C32.969 40.9708 32.3773 40.9441 31.8237 40.7273C30.6773 40.2775 29.9944 39.0254 30.2343 37.8143C30.4403 36.7793 31.2395 35.9772 32.2736 35.7721C32.6636 35.6945 34.2112 35.6561 34.227 35.6557L34.3187 35.6535L34.321 35.5615C34.3213 35.5458 34.3597 33.9939 34.437 33.603C34.6416 32.5661 35.4416 31.7647 36.4738 31.5582C37.6818 31.3177 38.9305 32.0024 39.3791 33.1518C39.5954 33.7068 39.622 34.3002 39.4481 34.8511C39.1693 35.7344 38.5696 36.716 38.5696 36.716L38.6462 36.7602C38.6585 36.767 39.873 37.4665 40.282 37.8242C40.7271 38.2133 41.0187 38.7287 41.125 39.3146C41.2854 40.1949 40.9553 41.0852 40.3244 41.675ZM10.6349 40.7453C10.0012 40.7453 8.54534 40.7886 7.05088 41.1259C7.38726 39.6274 7.43051 38.1678 7.43051 37.5324C7.43051 36.897 7.38726 35.4373 7.05088 33.9389C8.54534 34.2762 10.0012 34.3195 10.6349 34.3195C11.2687 34.3195 12.7244 34.2762 14.2188 33.9389C13.8825 35.4373 13.8392 36.897 13.8392 37.5324C13.8392 38.1678 13.8825 39.6274 14.2188 41.1259C12.7244 40.7886 11.2687 40.7453 10.6349 40.7453ZM12.2621 18.8766L10.4891 17.099L12.2621 15.3213L14.0349 17.099L12.2621 18.8766ZM8.71612 11.7661L10.4891 13.5437L8.71612 15.3213L6.94322 13.5437L8.71612 11.7661ZM41.2126 35.9771C41.7571 35.1767 42.0451 33.6051 41.7478 32.5372C41.0101 29.8863 38.2737 28.4594 35.5907 29.2234C34.1518 29.6334 33.0852 30.7253 32.6367 32.1947L25.1723 24.7105L30.9955 18.8717L37.8577 25.7494L41.4029 22.1934L38.4192 19.2044L36.7109 21.0453L34.9375 19.2682L36.7661 17.5469L34.8201 15.5958L34.5415 15.3164L36.3143 13.539L38.5388 15.7695L40.2556 13.9361L42.028 15.7141L40.192 17.4269L43.173 20.4185L46.7196 16.864L39.8602 9.98367L41.6915 8.14752L39.947 6.38871L23.423 22.9565L6.88009 6.36986L5.10717 8.14752L6.94322 9.98847L5.17027 11.766L3.39736 13.5437L5.31878 15.4702L3.54583 17.2478L1.77292 15.4702L0 17.2478L1.77292 19.0255L3.54583 20.8031L5.31878 19.0255L7.09173 17.2478L8.56766 18.7277L6.79472 20.5054L5.0218 22.2829L6.79472 24.0606L8.56766 25.8383L10.3406 24.0606L8.56766 22.2829L10.3406 20.5054L12.2621 22.4319L14.0349 20.6543L15.8079 18.8766L21.65 24.7342L15.8444 30.5551L15.8362 30.5467C15.091 31.2938 12.9522 31.8157 10.6349 31.8157C8.31747 31.8157 6.1787 31.2938 5.43355 30.5467L3.66768 32.3172C4.41283 33.0644 4.93326 35.2088 4.93326 37.5324C4.93326 39.8558 4.41283 42.0003 3.66768 42.7475L5.43355 44.518C6.1787 43.7708 8.31747 43.249 10.6349 43.249C12.9522 43.249 15.0911 43.7708 15.8362 44.518L17.602 42.7475C16.8569 42.0004 16.3365 39.8558 16.3365 37.5324C16.3365 35.2088 16.8569 33.0644 17.602 32.3172L17.5938 32.309L23.3993 26.4881L30.8608 33.9694C29.3994 34.4206 28.3138 35.4888 27.9056 36.9289C27.1436 39.6189 28.5669 42.3626 31.2107 43.1022C32.2759 43.4003 33.8431 43.1117 34.6415 42.5657C34.9804 43.4558 36.0234 44.5137 37.0457 44.8048C38.3435 45.1748 39.7096 45.0136 40.89 44.3543C41.3368 44.1046 41.7361 43.7946 42.0804 43.4357C42.4384 43.0905 42.7476 42.6902 42.9966 42.2422C43.6541 41.0586 43.8149 39.689 43.4459 38.3877C43.1555 37.3626 42.1005 36.3168 41.2126 35.9771Z" fill="#0E151B"></path>
  <path d="M21.8507 12.8467H24.9939L24.6358 7.63999L29.8287 7.99879V4.84752L24.6358 5.20632L24.9939 -0.000370354H21.8507L22.2086 5.20632L17.0156 4.84752V7.99879L22.2086 7.63999L21.8507 12.8467Z" fill="#0E151B"></path>
</svg>
