<svg width="84" height="16" viewBox="0 0 84 16" fill="none" xmlns="http://www.w3.org/2000/svg">
<path fill-rule="evenodd" clip-rule="evenodd" d="M17.1109 15.136L8.58183 0.864014L0.0527344 15.136H17.1109ZM3.3165 13.3459L8.56113 4.56994L13.8058 13.3459H3.3165Z" fill="black"/>
<path fill-rule="evenodd" clip-rule="evenodd" d="M70.9828 3.06418C70.9828 3.55681 70.5798 3.95618 70.0827 3.95618C69.5856 3.95618 69.1827 3.55681 69.1827 3.06418C69.1827 2.57154 69.5856 2.17218 70.0827 2.17218C70.5798 2.17218 70.9828 2.57154 70.9828 3.06418ZM30.7906 5.80404C30.2986 5.53446 29.7406 5.39967 29.1165 5.39967C28.6765 5.39967 28.2745 5.47499 27.9104 5.62564C27.5464 5.77629 27.2404 6.00226 26.9924 6.30356V5.42855H25.5643V15.1063H27.0644V11.049C27.5684 11.6199 28.2525 11.9053 29.1165 11.9053C29.7406 11.9053 30.2986 11.7705 30.7906 11.5009C31.2827 11.2313 31.6687 10.8488 31.9487 10.3532C32.2287 9.85767 32.3687 9.28878 32.3687 8.64654C32.3687 8.0043 32.2287 7.43739 31.9487 6.9458C31.6687 6.4542 31.2827 6.07362 30.7906 5.80404ZM20.1822 11.6997C20.6782 11.837 21.1863 11.9057 21.7063 11.9057C22.6024 11.9057 23.3104 11.7239 23.8304 11.3604C24.3505 10.9968 24.6105 10.5121 24.6105 9.90616C24.6105 9.44567 24.4925 9.0902 24.2565 8.83976C24.0204 8.58931 23.7384 8.41158 23.4104 8.30656C23.0824 8.20153 22.6624 8.10862 22.1503 8.02784C21.6383 7.93897 21.3371 7.85965 21.102 7.74306C20.8669 7.62647 20.74 7.50184 20.736 7.22803C20.736 7.02168 20.9375 6.87585 21.102 6.79041C21.2665 6.70496 21.6085 6.61332 22.0063 6.61332C22.6864 6.61332 23.2864 6.79235 23.8304 7.11551L24.4065 5.96427C24.1265 5.79462 23.7664 5.6593 23.3264 5.55831C22.8864 5.45733 22.4464 5.40683 22.0063 5.40683C21.1423 5.40683 20.542 5.59062 20.0339 5.95821C19.5259 6.3258 19.2719 6.68675 19.2719 7.30074C19.2719 7.76932 19.3939 8.13488 19.6379 8.39744C19.8819 8.66001 20.1699 8.8438 20.5019 8.94882C20.834 9.05385 21.1783 9.14675 21.7063 9.22754C22.2103 9.30833 22.6081 9.39397 22.8044 9.48203C23.0006 9.57009 23.1464 9.74176 23.1464 9.95464C23.1464 10.3966 22.6984 10.6696 21.8023 10.6696C21.4103 10.6696 21.0123 10.611 20.6082 10.4939C20.2042 10.3768 19.8582 10.2212 19.5702 10.0273L18.9941 11.1786C19.2902 11.3886 19.6862 11.5623 20.1822 11.6997ZM28.948 10.6314C29.5 10.6314 29.9541 10.449 30.3101 10.0843C30.6661 9.71958 30.8441 9.23988 30.8441 8.64522C30.8441 8.05055 30.6661 7.57086 30.3101 7.20613C29.9541 6.8414 29.5 6.65903 28.948 6.65903C28.588 6.65903 28.264 6.7403 27.976 6.90285C27.6879 7.06539 27.4599 7.29731 27.2919 7.59861C27.1239 7.8999 27.0399 8.24877 27.0399 8.64522C27.0399 9.04166 27.1239 9.39053 27.2919 9.69183C27.4599 9.99312 27.6879 10.225 27.976 10.3876C28.264 10.5501 28.588 10.6314 28.948 10.6314ZM38.4182 11.8645H39.8463V5.42855H38.3462V6.24409C38.0902 5.96658 37.7882 5.75647 37.4402 5.61375C37.0922 5.47102 36.7101 5.39967 36.2941 5.39967C35.6701 5.39967 35.112 5.53446 34.62 5.80404C34.128 6.07362 33.744 6.45222 33.4679 6.93985C33.1919 7.42748 33.0539 7.99637 33.0539 8.64654C33.0539 9.29671 33.1919 9.86758 33.4679 10.3592C33.744 10.8508 34.128 11.2313 34.62 11.5009C35.112 11.7705 35.6701 11.9053 36.2941 11.9053C36.7341 11.9053 37.1362 11.83 37.5002 11.6793C37.8642 11.5287 38.1702 11.3027 38.4182 11.0014V11.8645ZM36.4601 10.6314C37.0122 10.6314 37.4682 10.449 37.8282 10.0843C38.1882 9.71958 38.3682 9.23988 38.3682 8.64522C38.3682 8.05055 38.1882 7.57086 37.8282 7.20613C37.4682 6.8414 37.0122 6.65903 36.4601 6.65903C35.9081 6.65903 35.4541 6.8414 35.098 7.20613C34.742 7.57086 34.564 8.05055 34.564 8.64522C34.564 9.23988 34.742 9.71958 35.098 10.0843C35.4541 10.449 35.9081 10.6314 36.4601 10.6314ZM42.6235 11.489C43.1515 11.7666 43.7475 11.9053 44.4116 11.9053C45.0356 11.9053 45.5857 11.7765 46.0617 11.5188C46.5377 11.2611 46.8997 10.8944 47.1478 10.4186L45.9957 9.75262C45.8117 10.046 45.5817 10.266 45.3056 10.4127C45.0296 10.5594 44.7276 10.6327 44.3996 10.6327C43.8316 10.6327 43.3655 10.4523 43.0015 10.0916C42.6375 9.73081 42.4555 9.24914 42.4555 8.64654C42.4555 8.04394 42.6395 7.56227 43.0075 7.2015C43.3755 6.84074 43.8396 6.66036 44.3996 6.66036C44.7276 6.66036 45.0296 6.7337 45.3056 6.88038C45.5817 7.02707 45.8117 7.24709 45.9957 7.54046L47.1478 6.87444C46.9077 6.3987 46.5497 6.03398 46.0737 5.78025C45.5977 5.52653 45.0436 5.39967 44.4116 5.39967C43.7395 5.39967 43.1415 5.53842 42.6175 5.81593C42.0934 6.09344 41.6834 6.47799 41.3874 6.96958C41.0914 7.46117 40.9434 8.02015 40.9434 8.64654C40.9434 9.27292 41.0914 9.83388 41.3874 10.3294C41.6834 10.825 42.0954 11.2115 42.6235 11.489ZM54.2851 8.68222C54.2851 8.78529 54.2771 8.93198 54.2611 9.12227H49.2328C49.3208 9.59008 49.5509 9.96075 49.9229 10.2343C50.2949 10.5078 50.7569 10.6446 51.309 10.6446C52.013 10.6446 52.593 10.4147 53.0491 9.9548L53.8531 10.8706C53.5651 11.2115 53.2011 11.4692 52.7611 11.6437C52.321 11.8181 51.825 11.9053 51.273 11.9053C50.5689 11.9053 49.9489 11.7666 49.4128 11.489C48.8768 11.2115 48.4628 10.825 48.1708 10.3294C47.8787 9.83388 47.7327 9.27292 47.7327 8.64654C47.7327 8.02808 47.8748 7.47109 48.1588 6.97553C48.4428 6.47997 48.8368 6.09344 49.3408 5.81593C49.8449 5.53842 50.4129 5.39967 51.0449 5.39967C51.669 5.39967 52.227 5.53644 52.7191 5.80998C53.2111 6.08353 53.5951 6.46808 53.8711 6.96364C54.1471 7.45919 54.2851 8.03205 54.2851 8.68222ZM49.7433 7.01021C50.0754 6.72873 50.4814 6.588 50.9614 6.588C51.4494 6.588 51.8575 6.73071 52.1855 7.01615C52.5135 7.30159 52.7095 7.67425 52.7735 8.13412H49.1373C49.2093 7.66632 49.4113 7.29168 49.7433 7.01021ZM57.5428 11.9062C57.0228 11.9062 56.5147 11.8376 56.0187 11.7002C55.5227 11.5629 55.1266 11.3892 54.8306 11.1792L55.4067 10.0279C55.6947 10.2218 56.0407 10.3773 56.4447 10.4945C56.8488 10.6116 57.2468 10.6702 57.6388 10.6702C58.5349 10.6702 58.9829 10.3972 58.9829 9.95521C58.9829 9.74233 58.8371 9.57066 58.6409 9.4826C58.4446 9.39454 58.0468 9.3089 57.5428 9.22811C57.0148 9.14732 56.6705 9.05442 56.3384 8.94939C56.0064 8.84437 55.6314 8.56213 55.4991 8.39594C55.2686 8.1168 55.1084 7.74363 55.1084 7.30131C55.1084 6.859 55.3624 6.32637 55.8704 5.95878C56.3784 5.5912 56.9788 5.4074 57.8428 5.4074C58.2828 5.4074 58.5429 5.43998 58.9829 5.54097C59.4229 5.64195 59.7411 5.79357 60.0715 5.96484L59.5383 7.03112C59.0961 6.79098 58.4677 6.6139 57.8428 6.6139C57.445 6.6139 57.103 6.70553 56.9385 6.79098C56.774 6.87642 56.5724 7.02225 56.5724 7.2286C56.5765 7.50241 56.7034 7.62704 56.9385 7.74363C57.1736 7.86022 57.4748 7.93954 57.9868 8.02841C58.4989 8.1092 58.9189 8.2021 59.2469 8.30713C59.5749 8.41215 59.8569 8.58988 60.0929 8.84033C60.329 9.09077 60.447 9.44624 60.447 9.90673C60.447 10.5126 60.187 10.9974 59.6669 11.3609C59.1469 11.7245 58.4389 11.9062 57.5428 11.9062ZM66.619 5.80404C66.1269 5.53446 65.5689 5.39967 64.9449 5.39967C64.5048 5.39967 64.1028 5.47499 63.7388 5.62564C63.3748 5.77629 63.0688 6.00226 62.8207 6.30356V5.42855H61.3927V15.1063H62.8927V11.049C63.3968 11.6199 64.0808 11.9053 64.9449 11.9053C65.5689 11.9053 66.1269 11.7705 66.619 11.5009C67.111 11.2313 67.497 10.8488 67.7771 10.3532C68.0571 9.85767 68.1971 9.28878 68.1971 8.64654C68.1971 8.0043 68.0571 7.43739 67.7771 6.9458C67.497 6.4542 67.111 6.07362 66.619 5.80404ZM64.7338 10.6314C65.2858 10.6314 65.7398 10.449 66.0958 10.0843C66.4519 9.71958 66.6299 9.23988 66.6299 8.64522C66.6299 8.05055 66.4519 7.57086 66.0958 7.20613C65.7398 6.8414 65.2858 6.65903 64.7338 6.65903C64.3737 6.65903 64.0497 6.7403 63.7617 6.90285C63.4737 7.06539 63.2457 7.29731 63.0776 7.59861C62.9096 7.8999 62.8256 8.24877 62.8256 8.64522C62.8256 9.04166 62.9096 9.39053 63.0776 9.69183C63.2457 9.99312 63.4737 10.225 63.7617 10.3876C64.0497 10.5501 64.3737 10.6314 64.7338 10.6314ZM70.8533 5.44292H69.3532V11.8789H70.8533V5.44292ZM76.1587 5.39967C75.0707 5.39967 74.3106 5.73267 73.8786 6.3987V5.42855H72.4505V11.8645H73.9506V8.74168C73.9506 8.10737 74.1146 7.62173 74.4426 7.28475C74.7706 6.94778 75.2267 6.77929 75.8107 6.77929C75.9147 6.77929 76.0307 6.79118 76.1587 6.81497V5.39967ZM83.1719 8.68222C83.1719 8.78529 83.1639 8.93198 83.1479 9.12227H78.1196C78.2076 9.59008 78.4376 9.96075 78.8096 10.2343C79.1817 10.5078 79.6437 10.6446 80.1957 10.6446C80.8998 10.6446 81.4798 10.4147 81.9358 9.9548L82.7399 10.8706C82.4519 11.2115 82.0878 11.4692 81.6478 11.6437C81.2078 11.8181 80.7118 11.9053 80.1597 11.9053C79.4557 11.9053 78.8357 11.7666 78.2996 11.489C77.7636 11.2115 77.3496 10.825 77.0575 10.3294C76.7655 9.83388 76.6195 9.27292 76.6195 8.64654C76.6195 8.02808 76.7615 7.47109 77.0455 6.97553C77.3296 6.47997 77.7236 6.09344 78.2276 5.81593C78.7316 5.53842 79.2997 5.39967 79.9317 5.39967C80.5558 5.39967 81.1138 5.53644 81.6058 5.80998C82.0979 6.08353 82.4819 6.46808 82.7579 6.96364C83.0339 7.45919 83.1719 8.03205 83.1719 8.68222ZM78.8432 7.01033C79.1752 6.72886 79.5813 6.58812 80.0613 6.58812C80.5493 6.58812 80.9574 6.73084 81.2854 7.01628C81.6134 7.30172 81.8094 7.67437 81.8734 8.13425H78.2372C78.3092 7.66645 78.5112 7.29181 78.8432 7.01033Z" fill="black"/>
<ellipse cx="1.68141" cy="3.79451" rx="1.62867" ry="1.61409" fill="black"/>
</svg>
