<svg width="85" height="36" viewBox="0 0 85 36" fill="none" xmlns="http://www.w3.org/2000/svg">
<g id="Group">
<path id="Vector" d="M12.0862 11.6872C12.0862 10.4855 11.8512 9.42621 11.3745 8.50593C10.9011 7.58897 10.2556 6.86731 9.43464 6.34096C8.61367 5.81462 7.68015 5.5531 6.62746 5.5531C5.96538 5.5531 5.3298 5.6822 4.72069 5.9371C4.11159 6.192 3.59518 6.52634 3.17476 6.94014C3.05559 7.056 2.95297 7.17517 2.86359 7.29435L2.8371 5.75503H0.109375V22.6014H2.90662V16.2157C2.95628 16.2687 2.99931 16.325 3.05228 16.378C3.49587 16.8149 4.03545 17.1658 4.67766 17.4373C5.31656 17.7087 5.98194 17.8444 6.6738 17.8444C7.6967 17.8444 8.61698 17.5763 9.43795 17.0433C10.2556 16.5104 10.9044 15.7821 11.3778 14.8552C11.8479 13.9316 12.0862 12.8756 12.0862 11.6872ZM8.96125 13.6039C8.68318 14.16 8.29587 14.597 7.79932 14.9115C7.30277 15.2259 6.74001 15.3848 6.10773 15.3848C5.44566 15.3848 4.86966 15.2259 4.38304 14.9115C3.89311 14.597 3.5058 14.16 3.22111 13.6039C2.93642 13.0477 2.79407 12.4088 2.79407 11.6872C2.79407 10.9655 2.93642 10.3266 3.22111 9.77049C3.5058 9.21435 3.89311 8.78069 4.38304 8.47283C4.87297 8.16497 5.44566 8.00938 6.10773 8.00938C6.75325 8.00938 7.32594 8.16828 7.82249 8.48276C8.31905 8.79724 8.70305 9.2309 8.97118 9.78042C9.24263 10.3299 9.37836 10.9655 9.37836 11.6872C9.37836 12.4088 9.23932 13.0477 8.96125 13.6039Z" fill="black"/>
<path id="Vector_2" d="M17.3871 0.954773H14.5898V17.6423H17.3871V0.954773Z" fill="black"/>
<path id="Vector_3" d="M29.0199 17.0662C29.9534 16.5332 30.685 15.7983 31.218 14.8681C31.7509 13.9346 32.0191 12.8753 32.0191 11.6902C32.0191 10.5018 31.7509 9.44246 31.218 8.50895C30.685 7.57543 29.9501 6.84384 29.0199 6.31087C28.0864 5.77791 27.037 5.50977 25.8618 5.50977C24.6734 5.50977 23.6141 5.77791 22.6806 6.31087C21.747 6.84384 21.0121 7.57874 20.4692 8.50895C19.9297 9.44246 19.6582 10.5018 19.6582 11.6902C19.6582 12.8786 19.9297 13.9379 20.4692 14.8681C21.0088 15.8016 21.747 16.5332 22.6806 17.0662C23.6141 17.5992 24.6734 17.8673 25.8618 17.8673C27.037 17.8673 28.0897 17.5992 29.0199 17.0662ZM22.909 13.5837C22.6243 13.0276 22.4819 12.3953 22.4819 11.6902C22.4819 10.9851 22.6243 10.3495 22.909 9.78343C23.1937 9.22067 23.5975 8.77708 24.1139 8.45267C24.6337 8.12826 25.2163 7.96936 25.8618 7.96936C26.5073 7.96936 27.0833 8.13157 27.5865 8.45267C28.0897 8.77708 28.4869 9.21736 28.7815 9.7735C29.0762 10.3296 29.2119 10.9685 29.1986 11.6902C29.2119 12.3986 29.0762 13.0276 28.7815 13.5837C28.4869 14.1399 28.0897 14.5834 27.5865 14.9145C27.0833 15.2455 26.5073 15.411 25.8618 15.411C25.2163 15.411 24.6337 15.2455 24.1139 14.9145C23.5975 14.5834 23.197 14.1399 22.909 13.5837Z" fill="black"/>
<path id="Vector_4" d="M49.7224 17.6424H52.5197V10.4722C52.5197 9.38972 52.3707 8.47937 52.0695 7.74448C51.7682 7.00958 51.318 6.46006 50.7155 6.09923C50.113 5.7384 49.3616 5.55964 48.4612 5.55964C48.054 5.55964 47.6468 5.61923 47.233 5.74171C46.8192 5.86089 46.4253 6.03965 46.0479 6.27137C45.6705 6.50309 45.3329 6.76792 45.0316 7.05923C44.7701 7.31413 44.5616 7.59882 44.4027 7.90668C44.2504 7.48958 44.0617 7.12544 43.8267 6.82089C43.489 6.38392 43.0686 6.06613 42.5621 5.86089C42.059 5.65896 41.483 5.55634 40.8374 5.55634C40.4005 5.55634 39.9734 5.62916 39.553 5.77151C39.1326 5.91385 38.732 6.10916 38.358 6.35744C37.9806 6.60572 37.6595 6.89703 37.388 7.23799C37.3285 7.31413 37.2722 7.39027 37.2159 7.46972L37.1828 5.76158H34.4551V17.6457H37.2523V10.5186C37.2523 10.1577 37.3218 9.82669 37.4543 9.52545C37.59 9.2242 37.7787 8.96268 38.017 8.73758C38.2587 8.51248 38.5434 8.33703 38.8744 8.20793C39.2054 8.07882 39.5596 8.01592 39.9337 8.01592C40.3839 8.01592 40.7679 8.11855 41.0824 8.32048C41.3969 8.52241 41.6385 8.81703 41.8041 9.20103C41.9696 9.58503 42.0523 10.0617 42.0523 10.6344V17.649H44.8496V10.545C44.8496 10.1842 44.9158 9.85317 45.0515 9.55193C45.1872 9.25069 45.3759 8.98586 45.6143 8.75082C45.8559 8.5191 46.1439 8.33703 46.4816 8.21124C46.8192 8.08213 47.1768 8.01924 47.5541 8.01924C48.0341 8.01924 48.438 8.11192 48.7591 8.30061C49.0835 8.4893 49.3219 8.77731 49.4808 9.16793C49.6397 9.55855 49.7158 10.0551 49.7158 10.6576V17.6424H49.7224Z" fill="black"/>
<path id="Vector_5" d="M64.9288 17.0662C65.7464 16.5333 66.392 15.7984 66.8554 14.8682C67.3222 13.9347 67.5539 12.8687 67.5539 11.6671C67.5539 10.4787 67.3155 9.41934 66.8422 8.48582C66.3688 7.5523 65.7233 6.82403 64.9023 6.29768C64.0813 5.77133 63.1412 5.50981 62.0719 5.50981C61.5919 5.50981 61.1186 5.58927 60.6518 5.74485C60.185 5.90375 59.758 6.1123 59.3674 6.37713C58.9768 6.64196 58.649 6.93327 58.3875 7.25768C58.3842 7.2643 58.3809 7.26761 58.3776 7.27423V0.954773H55.6035V17.5959H58.2882L58.3213 16.1658C58.5795 16.4671 58.8874 16.7418 59.2581 16.9868C59.6653 17.2583 60.1188 17.4734 60.622 17.629C61.1252 17.7879 61.6416 17.864 62.1679 17.864C63.1908 17.8674 64.1111 17.5992 64.9288 17.0662ZM59.8672 14.9476C59.3707 14.6232 58.9801 14.1796 58.6954 13.6169C58.4107 13.0541 58.2684 12.402 58.2684 11.6671C58.2684 10.9454 58.4107 10.3065 58.6954 9.75038C58.9801 9.19424 59.3707 8.75727 59.8672 8.44279C60.3638 8.1283 60.9332 7.96941 61.582 7.96941C62.2275 7.96941 62.8002 8.1283 63.2968 8.44279C63.7933 8.75727 64.1806 9.19424 64.4587 9.75038C64.7368 10.3065 64.8758 10.9454 64.8758 11.6671C64.8758 12.4053 64.7335 13.0541 64.4488 13.6169C64.1641 14.1796 63.7735 14.6232 63.2769 14.9476C62.7804 15.272 62.2176 15.4342 61.5853 15.4342C60.9365 15.4309 60.3638 15.2687 59.8672 14.9476Z" fill="black"/>
<path id="Vector_6" d="M71.7051 0.00823975C71.1655 0.00823975 70.7351 0.157206 70.4206 0.458448C70.1062 0.75969 69.9473 1.15031 69.9473 1.63031C69.9473 2.14011 70.1029 2.53735 70.4107 2.81542C70.7186 3.09349 71.1522 3.23252 71.7084 3.23252C72.2645 3.23252 72.7015 3.08356 73.016 2.78231C73.3304 2.48107 73.4893 2.09707 73.4893 1.63362C73.4893 1.10728 73.3338 0.706723 73.0259 0.428653C72.718 0.147273 72.2778 0.00823975 71.7051 0.00823975Z" fill="black"/>
<path id="Vector_7" d="M73.1295 5.75806H70.3555V17.6422H73.1295V5.75806Z" fill="black"/>
<path id="Vector_8" d="M83.716 5.57597C83.4843 5.52963 83.2394 5.50977 82.9845 5.50977C82.3985 5.50977 81.8391 5.6488 81.3028 5.92687C80.7698 6.20494 80.2998 6.58563 79.8926 7.06563C79.7006 7.29405 79.5351 7.5357 79.3993 7.7906L79.3762 5.75473H76.6484V17.6389H79.4457V11.3029C79.4457 10.8825 79.5152 10.5018 79.6609 10.1641C79.8032 9.82647 80.0018 9.52853 80.2567 9.27364C80.5116 9.01874 80.8095 8.82012 81.1472 8.67446C81.4849 8.53212 81.8424 8.45929 82.2198 8.45929C82.4614 8.45929 82.6998 8.48908 82.9414 8.54867C83.1831 8.60825 83.385 8.68439 83.5505 8.77377L84.2954 5.72825C84.1398 5.67528 83.9478 5.62232 83.716 5.57597Z" fill="black"/>
<path id="Vector_9" d="M20.6215 25.4449C20.1315 24.9351 19.5555 24.5313 18.8868 24.2333C18.2182 23.9387 17.4998 23.7897 16.7318 23.7897C15.8579 23.7897 15.0535 23.942 14.3186 24.2466C13.5837 24.5511 12.9547 24.9815 12.4283 25.5343C11.902 26.0904 11.4915 26.7459 11.1936 27.5006C10.8957 28.2554 10.75 29.0929 10.75 30.0132C10.75 31.1685 11.0115 32.1947 11.5379 33.0918C12.0642 33.9889 12.7991 34.6973 13.7392 35.2138C14.6794 35.7335 15.7652 35.9917 16.9966 35.9917C17.5461 35.9917 18.099 35.9189 18.665 35.7699C19.2278 35.6209 19.7641 35.419 20.2772 35.1575C20.787 34.8993 21.2438 34.5815 21.6444 34.214L20.2871 32.3238C19.7542 32.784 19.2576 33.1018 18.7975 33.2805C18.3373 33.4593 17.8341 33.5486 17.2846 33.5486C16.5001 33.5486 15.8148 33.3964 15.2289 33.0918C14.643 32.7873 14.1928 32.3536 13.8717 31.7909C13.6565 31.4135 13.5208 30.9897 13.4512 30.523H22.0846L22.1078 29.5663C22.1211 28.7354 21.9986 27.9707 21.7404 27.2656C21.4855 26.5638 21.1114 25.9547 20.6215 25.4449ZM14.8979 26.6333C15.3944 26.3519 16.0068 26.2096 16.7318 26.2096C17.2052 26.2096 17.6388 26.3089 18.0328 26.5108C18.4267 26.7095 18.7478 26.9842 18.9994 27.3318C19.251 27.6794 19.3999 28.0833 19.443 28.5434V28.6559H13.5108C13.5737 28.358 13.6598 28.0866 13.7757 27.8449C14.0272 27.3186 14.4013 26.9147 14.8979 26.6333Z" fill="black"/>
<path id="Vector_10" d="M29.1941 32.1453L26.1121 24.0548H23.1328L28.0685 35.7701H30.1143L35.2917 24.0548H32.3819L29.1941 32.1453Z" fill="black"/>
<path id="Vector_11" d="M45.6957 25.4449C45.2058 24.9351 44.6298 24.5313 43.9611 24.2333C43.2924 23.9387 42.574 23.7897 41.806 23.7897C40.9321 23.7897 40.1277 23.942 39.3928 24.2466C38.6579 24.5511 38.0289 24.9815 37.5026 25.5343C36.9762 26.0904 36.5657 26.7459 36.2678 27.5006C35.9699 28.2554 35.8242 29.0929 35.8242 30.0132C35.8242 31.1685 36.0857 32.1947 36.6121 33.0918C37.1384 33.9889 37.8733 34.6973 38.8135 35.2138C39.7536 35.7335 40.8394 35.9917 42.0709 35.9917C42.6204 35.9917 43.1732 35.9189 43.7393 35.7699C44.302 35.6209 44.8383 35.419 45.3514 35.1575C45.8612 34.8993 46.318 34.5815 46.7186 34.214L45.3613 32.3238C44.8284 32.784 44.3318 33.1018 43.8717 33.2805C43.4115 33.4593 42.9084 33.5486 42.3588 33.5486C41.5743 33.5486 40.8891 33.3964 40.3031 33.0918C39.7172 32.7873 39.267 32.3536 38.9459 31.7909C38.7307 31.4135 38.595 30.9897 38.5255 30.523H47.1655L47.1887 29.5663C47.2019 28.7354 47.0794 27.9707 46.8212 27.2656C46.5597 26.5638 46.1856 25.9547 45.6957 25.4449ZM39.9721 26.6333C40.4686 26.3519 41.0811 26.2096 41.806 26.2096C42.2794 26.2096 42.7131 26.3089 43.107 26.5108C43.5009 26.7095 43.822 26.9842 44.0736 27.3318C44.3252 27.6794 44.4742 28.0833 44.5172 28.5434V28.6559H38.5851C38.6479 28.358 38.734 28.0866 38.8499 27.8449C39.1015 27.3186 39.4755 26.9147 39.9721 26.6333Z" fill="black"/>
<path id="Vector_12" d="M58.2693 24.3428C57.6701 23.9886 56.9253 23.8098 56.0348 23.8098C55.4124 23.8098 54.8033 23.9422 54.2108 24.2104C53.6182 24.4785 53.1051 24.8294 52.6781 25.2664C52.539 25.4087 52.4199 25.5577 52.3073 25.71L52.2775 24.0548H49.6094V35.7701C49.8014 35.7701 50.0132 35.7701 50.2417 35.7701C50.4701 35.7701 50.7183 35.7701 50.9865 35.7701H52.3437V28.6992C52.3437 28.345 52.4132 28.0173 52.5556 27.7193C52.6946 27.4214 52.8899 27.1599 53.1349 26.9315C53.3799 26.7031 53.6679 26.5243 54.0022 26.3985C54.3366 26.2727 54.704 26.2098 55.1012 26.2098C55.5912 26.1966 56.005 26.2793 56.3459 26.4647C56.6869 26.6501 56.9385 26.9381 57.1007 27.332C57.2629 27.726 57.3457 28.2192 57.3457 28.8118V35.7701H60.08V28.6131C60.08 27.5472 59.9277 26.6567 59.6232 25.945C59.3219 25.2333 58.8684 24.7003 58.2693 24.3428Z" fill="black"/>
<path id="Vector_13" d="M67.1498 21.0755H64.4155V24.0548H62.1016V26.5905H64.4155V35.7702H67.1498V26.5905H69.7054V24.0548H67.1498V21.0755Z" fill="black"/>
</g>
</svg>
