<svg width="61" height="26" viewBox="0 0 61 26" fill="none" xmlns="http://www.w3.org/2000/svg">
<path d="M9.49564 8.50874C9.49564 7.65381 9.32843 6.90015 8.98928 6.24541C8.65249 5.59303 8.19323 5.0796 7.60915 4.70512C7.02506 4.33065 6.3609 4.14459 5.61195 4.14459C5.14092 4.14459 4.68873 4.23644 4.25537 4.41779C3.82202 4.59914 3.45461 4.83701 3.1555 5.13141C3.07072 5.21384 2.99771 5.29863 2.93412 5.38342L2.91528 4.28826H0.974609V16.2738H2.96474V11.7306C3.00006 11.7683 3.03068 11.8083 3.06836 11.846C3.38396 12.1569 3.76785 12.4066 4.22475 12.5997C4.6793 12.7928 5.15269 12.8894 5.64493 12.8894C6.37268 12.8894 7.02742 12.6986 7.6115 12.3194C8.19323 11.9402 8.65485 11.4221 8.99164 10.7626C9.32607 10.1055 9.49564 9.35424 9.49564 8.50874ZM7.27235 9.87239C7.07452 10.2681 6.79897 10.5789 6.44569 10.8027C6.09241 11.0264 5.69203 11.1395 5.24219 11.1395C4.77116 11.1395 4.36135 11.0264 4.01514 10.8027C3.66658 10.5789 3.39102 10.2681 3.18848 9.87239C2.98593 9.47672 2.88466 9.02216 2.88466 8.50874C2.88466 7.99531 2.98593 7.54076 3.18848 7.14509C3.39102 6.74942 3.66658 6.44089 4.01514 6.22186C4.36371 6.00283 4.77116 5.89213 5.24219 5.89213C5.70145 5.89213 6.1089 6.00518 6.46217 6.22892C6.81545 6.45267 7.08865 6.76119 7.27942 7.15215C7.47254 7.54311 7.56911 7.99531 7.56911 8.50874C7.56911 9.02216 7.47019 9.47672 7.27235 9.87239Z" fill="black"/>
<path d="M13.2675 0.873047H11.2773V12.7455H13.2675V0.873047Z" fill="black"/>
<path d="M21.5433 12.3357C22.2074 11.9565 22.7279 11.4337 23.1071 10.7719C23.4863 10.1077 23.6771 9.35404 23.6771 8.51089C23.6771 7.66538 23.4863 6.91172 23.1071 6.24756C22.7279 5.5834 22.2051 5.06291 21.5433 4.68372C20.8791 4.30454 20.1325 4.11377 19.2964 4.11377C18.4509 4.11377 17.6973 4.30454 17.0331 4.68372C16.3689 5.06291 15.8461 5.58576 15.4598 6.24756C15.0759 6.91172 14.8828 7.66538 14.8828 8.51089C14.8828 9.3564 15.0759 10.1101 15.4598 10.7719C15.8437 11.436 16.3689 11.9565 17.0331 12.3357C17.6973 12.7149 18.4509 12.9057 19.2964 12.9057C20.1325 12.9057 20.8815 12.7149 21.5433 12.3357ZM17.1956 9.85805C16.9931 9.46238 16.8918 9.01254 16.8918 8.51089C16.8918 8.00924 16.9931 7.55704 17.1956 7.15431C17.3981 6.75392 17.6855 6.43833 18.0529 6.20752C18.4226 5.97672 18.8372 5.86367 19.2964 5.86367C19.7557 5.86367 20.1655 5.97907 20.5235 6.20752C20.8815 6.43833 21.1641 6.75157 21.3737 7.14724C21.5833 7.54291 21.6799 7.99746 21.6704 8.51089C21.6799 9.0149 21.5833 9.46238 21.3737 9.85805C21.1641 10.2537 20.8815 10.5693 20.5235 10.8048C20.1655 11.0403 19.7557 11.1581 19.2964 11.1581C18.8372 11.1581 18.4226 11.0403 18.0529 10.8048C17.6855 10.5693 17.4005 10.2537 17.1956 9.85805Z" fill="black"/>
<path d="M36.2722 12.7456H38.2624V7.64429C38.2624 6.87415 38.1564 6.22647 37.9421 5.70362C37.7277 5.18077 37.4074 4.78981 36.9788 4.5331C36.5501 4.27639 36.0155 4.1492 35.3749 4.1492C35.0852 4.1492 34.7955 4.1916 34.5011 4.27874C34.2067 4.36353 33.9265 4.49071 33.658 4.65557C33.3895 4.82043 33.1493 5.00884 32.9349 5.2161C32.7489 5.39745 32.6005 5.6 32.4875 5.81903C32.3791 5.52227 32.2449 5.26321 32.0777 5.04653C31.8374 4.73565 31.5383 4.50955 31.178 4.36353C30.82 4.21986 30.4102 4.14685 29.9509 4.14685C29.6401 4.14685 29.3362 4.19866 29.0371 4.29994C28.738 4.40121 28.453 4.54016 28.1869 4.7168C27.9184 4.89344 27.69 5.1007 27.4968 5.34328C27.4545 5.39745 27.4144 5.45162 27.3744 5.50814L27.3508 4.29287H25.4102V12.748H27.4003V7.67726C27.4003 7.42055 27.4497 7.18503 27.5439 6.97071C27.6405 6.75639 27.7748 6.57033 27.9443 6.41018C28.1163 6.25002 28.3188 6.1252 28.5543 6.03335C28.7898 5.9415 29.0418 5.89675 29.308 5.89675C29.6283 5.89675 29.9015 5.96976 30.1252 6.11342C30.349 6.25709 30.5209 6.4667 30.6387 6.7399C30.7564 7.0131 30.8153 7.35225 30.8153 7.75969V12.7503H32.8054V7.6961C32.8054 7.43939 32.8525 7.20387 32.9491 6.98955C33.0456 6.77523 33.1799 6.58681 33.3495 6.4196C33.5214 6.25473 33.7263 6.1252 33.9665 6.0357C34.2067 5.94385 34.4611 5.8991 34.7296 5.8991C35.0711 5.8991 35.3584 5.96505 35.5869 6.09929C35.8177 6.23354 35.9873 6.43844 36.1003 6.71635C36.2134 6.99426 36.2675 7.34754 36.2675 7.77618V12.7456H36.2722Z" fill="black"/>
<path d="M47.0916 12.3357C47.6733 11.9565 48.1326 11.4337 48.4623 10.7719C48.7944 10.1077 48.9592 9.34933 48.9592 8.4944C48.9592 7.64889 48.7897 6.89524 48.4529 6.23108C48.1161 5.56692 47.6568 5.04878 47.0727 4.6743C46.4886 4.29983 45.8198 4.11377 45.0591 4.11377C44.7176 4.11377 44.3808 4.1703 44.0487 4.28099C43.7166 4.39404 43.4128 4.54241 43.1349 4.73083C42.857 4.91924 42.6238 5.1265 42.4377 5.35731C42.4354 5.36202 42.433 5.36437 42.4307 5.36908V0.873047H40.457V12.7125H42.3671L42.3906 11.6951C42.5743 11.9094 42.7934 12.1049 43.0572 12.2792C43.3468 12.4723 43.6695 12.6254 44.0275 12.7361C44.3855 12.8491 44.7529 12.9033 45.1274 12.9033C45.8551 12.9057 46.5098 12.7149 47.0916 12.3357ZM43.4905 10.8284C43.1372 10.5976 42.8593 10.282 42.6568 9.8816C42.4542 9.48122 42.353 9.01725 42.353 8.4944C42.353 7.98097 42.4542 7.52643 42.6568 7.13076C42.8593 6.73509 43.1372 6.4242 43.4905 6.20046C43.8438 5.97672 44.2489 5.86367 44.7105 5.86367C45.1697 5.86367 45.5772 5.97672 45.9305 6.20046C46.2837 6.4242 46.5593 6.73509 46.7571 7.13076C46.955 7.52643 47.0539 7.98097 47.0539 8.4944C47.0539 9.01961 46.9526 9.48122 46.7501 9.8816C46.5475 10.282 46.2696 10.5976 45.9163 10.8284C45.5631 11.0592 45.1627 11.1746 44.7128 11.1746C44.2512 11.1722 43.8438 11.0568 43.4905 10.8284Z" fill="black"/>
<path d="M51.9127 0.199646C51.5288 0.199646 51.2226 0.305629 50.9989 0.51995C50.7752 0.734272 50.6621 1.01218 50.6621 1.35368C50.6621 1.71638 50.7728 1.999 50.9918 2.19684C51.2109 2.39467 51.5194 2.49359 51.9151 2.49359C52.3107 2.49359 52.6216 2.38761 52.8454 2.17328C53.0691 1.95896 53.1821 1.68576 53.1821 1.35604C53.1821 0.981564 53.0715 0.696588 52.8524 0.498753C52.6334 0.298563 52.3202 0.199646 51.9127 0.199646Z" fill="black"/>
<path d="M52.9248 4.29041H50.9512V12.7455H52.9248V4.29041Z" fill="black"/>
<path d="M60.456 4.16087C60.2912 4.1279 60.1169 4.11377 59.9355 4.11377C59.5187 4.11377 59.1207 4.21269 58.7391 4.41052C58.3599 4.60836 58.0255 4.8792 57.7358 5.2207C57.5992 5.38321 57.4814 5.55514 57.3849 5.73649L57.3684 4.28805H55.4277V12.7431H57.4179V8.23533C57.4179 7.93623 57.4673 7.66538 57.5709 7.42515C57.6722 7.18492 57.8135 6.97296 57.9949 6.79161C58.1762 6.61026 58.3882 6.46895 58.6284 6.36532C58.8686 6.26405 59.123 6.21223 59.3915 6.21223C59.5634 6.21223 59.733 6.23343 59.9049 6.27582C60.0769 6.31822 60.2205 6.37239 60.3383 6.43598L60.8682 4.26921C60.7575 4.23153 60.6209 4.19385 60.456 4.16087Z" fill="black"/>
<path d="M15.5681 18.2968C15.2195 17.9341 14.8097 17.6468 14.334 17.4348C13.8582 17.2252 13.3471 17.1192 12.8007 17.1192C12.179 17.1192 11.6067 17.2275 11.0838 17.4442C10.561 17.6609 10.1135 17.9671 9.739 18.3604C9.36452 18.756 9.07248 19.2224 8.86051 19.7594C8.64855 20.2963 8.54492 20.8922 8.54492 21.5469C8.54492 22.3689 8.73098 23.099 9.10545 23.7373C9.47993 24.3755 10.0028 24.8795 10.6716 25.2469C11.3405 25.6167 12.113 25.8004 12.9891 25.8004C13.3801 25.8004 13.7734 25.7486 14.1762 25.6426C14.5765 25.5366 14.9581 25.3929 15.3231 25.2069C15.6858 25.0232 16.0108 24.7971 16.2958 24.5357L15.3302 23.1909C14.951 23.5182 14.5977 23.7443 14.2704 23.8715C13.943 23.9987 13.585 24.0623 13.194 24.0623C12.6359 24.0623 12.1483 23.9539 11.7315 23.7373C11.3146 23.5206 10.9943 23.212 10.7659 22.8117C10.6128 22.5432 10.5162 22.2417 10.4667 21.9096H16.609L16.6255 21.229C16.635 20.6378 16.5478 20.0938 16.3641 19.5921C16.1828 19.0928 15.9166 18.6595 15.5681 18.2968ZM11.496 19.1423C11.8492 18.9421 12.2849 18.8408 12.8007 18.8408C13.1375 18.8408 13.446 18.9115 13.7263 19.0552C14.0066 19.1965 14.235 19.3919 14.414 19.6392C14.593 19.8865 14.699 20.1739 14.7296 20.5012V20.5813H10.5091C10.5539 20.3693 10.6151 20.1762 10.6976 20.0043C10.8765 19.6298 11.1427 19.3425 11.496 19.1423Z" fill="black"/>
<path d="M21.6678 23.0639L19.4751 17.3078H17.3555L20.867 25.6428H22.3225L26.006 17.3078H23.9358L21.6678 23.0639Z" fill="black"/>
<path d="M33.4079 18.2968C33.0593 17.9341 32.6495 17.6468 32.1738 17.4348C31.698 17.2252 31.187 17.1192 30.6406 17.1192C30.0188 17.1192 29.4465 17.2275 28.9236 17.4442C28.4008 17.6609 27.9533 17.9671 27.5788 18.3604C27.2044 18.756 26.9123 19.2224 26.7004 19.7594C26.4884 20.2963 26.3848 20.8922 26.3848 21.5469C26.3848 22.3689 26.5708 23.099 26.9453 23.7373C27.3198 24.3755 27.8426 24.8795 28.5115 25.2469C29.1804 25.6167 29.9529 25.8004 30.829 25.8004C31.2199 25.8004 31.6133 25.7486 32.016 25.6426C32.4164 25.5366 32.7979 25.3929 33.163 25.2069C33.5257 25.0232 33.8507 24.7971 34.1357 24.5357L33.17 23.1909C32.7908 23.5182 32.4376 23.7443 32.1102 23.8715C31.7828 23.9987 31.4248 24.0623 31.0339 24.0623C30.4757 24.0623 29.9882 23.9539 29.5713 23.7373C29.1545 23.5206 28.8341 23.212 28.6057 22.8117C28.4526 22.5432 28.356 22.2417 28.3066 21.9096H34.4536L34.4701 21.229C34.4795 20.6378 34.3924 20.0938 34.2087 19.5921C34.0226 19.0928 33.7565 18.6595 33.4079 18.2968ZM29.3358 19.1423C29.6891 18.9421 30.1248 18.8408 30.6406 18.8408C30.9774 18.8408 31.2859 18.9115 31.5662 19.0552C31.8464 19.1965 32.0749 19.3919 32.2539 19.6392C32.4329 19.8865 32.5388 20.1739 32.5695 20.5012V20.5813H28.349C28.3937 20.3693 28.455 20.1762 28.5374 20.0043C28.7164 19.6298 28.9825 19.3425 29.3358 19.1423Z" fill="black"/>
<path d="M42.3526 17.5127C41.9263 17.2607 41.3964 17.1335 40.7628 17.1335C40.32 17.1335 39.8867 17.2277 39.4651 17.4185C39.0435 17.6092 38.6785 17.8589 38.3747 18.1698C38.2757 18.271 38.191 18.377 38.1109 18.4854L38.0897 17.3078H36.1914V25.6427C36.328 25.6427 36.4787 25.6427 36.6412 25.6427C36.8038 25.6427 36.9804 25.6427 37.1712 25.6427H38.1368V20.6121C38.1368 20.3601 38.1862 20.1269 38.2875 19.9149C38.3864 19.703 38.5254 19.5169 38.6997 19.3544C38.874 19.1919 39.0789 19.0647 39.3167 18.9752C39.5546 18.8857 39.816 18.841 40.0986 18.841C40.4472 18.8316 40.7416 18.8904 40.9842 19.0223C41.2268 19.1542 41.4058 19.3591 41.5212 19.6394C41.6366 19.9197 41.6955 20.2706 41.6955 20.6922V25.6427H43.6408V20.5508C43.6408 19.7925 43.5325 19.1589 43.3158 18.6526C43.1015 18.1462 42.7788 17.767 42.3526 17.5127Z" fill="black"/>
<path d="M48.6717 15.1881H46.7263V17.3078H45.0801V19.1118H46.7263V25.6427H48.6717V19.1118H50.4899V17.3078H48.6717V15.1881Z" fill="black"/>
</svg>
