<svg width="91" height="16" viewBox="0 0 91 16" fill="none" xmlns="http://www.w3.org/2000/svg">
<g id="Group">
<path id="Subtract" fill-rule="evenodd" clip-rule="evenodd" d="M24.2724 0.332052C24.6045 0.221368 25.3301 0.0860877 25.8712 0.0368947C26.4123 -0.0122982 27.3224 -0.0122982 27.9004 0.0368947C28.4784 0.0860877 29.2163 0.221368 29.5607 0.332052C29.8927 0.442737 30.5322 0.713298 30.975 0.946964C31.4177 1.16833 32.1433 1.70945 32.586 2.12759C33.0411 2.55803 33.6314 3.25903 33.9142 3.70177C34.1971 4.14451 34.5291 4.83321 34.6644 5.23905C34.7997 5.64489 34.9719 6.39508 35.0457 6.89931C35.1195 7.41584 35.1441 8.17833 35.1072 8.62106C35.058 9.0638 34.9596 9.66641 34.8858 9.97387C34.8243 10.2813 34.5414 10.9946 34.2586 11.5726C33.865 12.4089 33.5699 12.8148 32.7705 13.6141C31.9834 14.4012 31.5653 14.7087 30.729 15.1145C30.151 15.3851 29.2532 15.7048 28.7367 15.8032C28.2079 15.9139 27.3593 16 26.855 16C26.3508 16 25.5022 15.9139 24.9857 15.8032C24.4569 15.7048 23.5837 15.3974 23.0426 15.1391C22.44 14.8563 21.7513 14.3889 21.2716 13.9462C20.8412 13.5527 20.2263 12.8394 19.9188 12.372C19.5991 11.9047 19.2055 11.093 19.0457 10.5888C18.7751 9.7894 18.7382 9.44505 18.7382 7.94466C18.7382 6.49347 18.7751 6.09993 19.0088 5.42352C19.1564 4.98079 19.5499 4.206 19.8819 3.70177C20.2017 3.19754 20.8289 2.45965 21.2716 2.0661C21.7021 1.67256 22.4154 1.16833 22.8581 0.946964C23.3009 0.725596 23.9281 0.442737 24.2724 0.332052ZM5.02568 0.49193C5.39462 0.344351 5.92345 0.184474 6.19401 0.135281C6.46457 0.0737894 7.50992 0.0368947 8.53067 0.0614912C10.0311 0.0983859 10.523 0.159877 11.1748 0.368947C11.6175 0.528824 12.3308 0.860877 12.7736 1.11914C13.2163 1.3897 13.7082 1.70946 14.1879 2.0784L12.0357 4.68563L11.4454 4.26749C11.1256 4.04612 10.646 3.73866 10.3754 3.60338C10.1048 3.4681 9.48994 3.28363 9.0226 3.20984C8.54297 3.12375 7.86657 3.08686 7.48532 3.13605C7.11638 3.18524 6.52606 3.34512 6.19401 3.505C5.84966 3.66487 5.30854 4.07072 4.97648 4.40277C4.61983 4.74712 4.21399 5.32514 3.99262 5.79247C3.63597 6.54266 3.61138 6.67794 3.61138 8.00615C3.61138 9.34666 3.63597 9.45735 4.00492 10.2444C4.22629 10.7118 4.64443 11.3144 4.93959 11.5972C5.23475 11.8924 5.73897 12.2613 6.07103 12.4212C6.41538 12.5811 7.04259 12.7656 7.48532 12.8394C8.06334 12.9254 8.53067 12.9254 9.17018 12.8271C9.66211 12.741 10.3754 12.5319 11.4331 12.0031L11.4208 9.72791H7.97725V6.77633H14.7413V13.5404L14.4092 13.8232C14.2125 13.9708 13.7328 14.3029 13.327 14.5488C12.9211 14.7948 12.1955 15.1514 11.7282 15.3236C11.2609 15.5081 10.4615 15.7294 9.98187 15.8278C9.48994 15.9262 8.64136 16 8.10023 16C7.55911 16 6.68594 15.9139 6.16941 15.8155C5.59139 15.7049 4.79201 15.4343 4.1648 15.1145C3.36541 14.721 2.89808 14.3766 2.18478 13.6756C1.49608 12.9746 1.13943 12.5073 0.819678 11.8186C0.573713 11.3144 0.278556 10.5027 0.167872 10.0354C0.00799449 9.37126 -0.0289002 8.83013 0.0202927 7.63721C0.0694857 6.43198 0.143275 5.92775 0.376942 5.30054C0.536819 4.8578 0.819678 4.24289 1.00415 3.91084C1.18863 3.59109 1.68055 2.96388 2.09869 2.50884C2.52913 2.0661 3.20554 1.47579 3.61138 1.21753C4.01722 0.959262 4.65673 0.62721 5.02568 0.49193ZM58.7075 0.774789C58.5476 1.13144 57.0472 4.55035 55.3747 8.3751C54.7967 9.70665 54.25 10.9652 53.7807 12.0453L53.7709 12.0679C52.8977 14.0782 52.2952 15.4651 52.2632 15.545C52.1894 15.754 52.2878 15.7663 53.5914 15.7294L54.9811 15.6926L56.5184 12.1261H63.9588L65.4715 15.754C68.2263 15.754 68.2386 15.754 68.1771 15.4712C68.1525 15.3236 67.3777 13.4912 66.4554 11.3882C65.8342 9.95282 64.9438 7.92164 64.1556 6.12362L64.1516 6.11453L64.1499 6.11051C63.7854 5.27907 63.443 4.49797 63.1594 3.84935L61.5361 0.135281H59.0026L58.7075 0.774789ZM73.9819 11.1053C74.0557 10.9208 74.9043 8.3751 75.8758 5.44812L77.6222 0.122982L79.9219 0.135281L81.7913 5.79247C82.8243 8.90392 83.6975 11.4497 83.7344 11.4497C83.7713 11.4497 84.1156 10.4658 84.5092 9.26057C84.9027 8.06764 85.7267 5.5465 87.4239 0.245965H88.8382C89.613 0.245965 90.2525 0.270561 90.2525 0.282859C90.2525 0.294273 89.6275 2.11713 88.8297 4.44383L88.6414 4.99308C87.7559 7.56342 86.5507 11.0438 84.8904 15.8155L82.5661 15.8893L81.7175 13.4543L81.3289 12.3089C80.891 11.0176 80.3509 9.42499 79.9711 8.31361C79.4669 6.82552 78.9873 5.44812 78.9012 5.26365C78.8151 5.06687 78.729 4.91929 78.6921 4.91929C78.6552 4.91929 77.9419 6.9608 77.0934 9.44505C76.2571 11.9293 75.4208 14.3766 74.9166 15.8032L72.6045 15.8893L72.3339 15.176C72.2111 14.8485 71.918 14.0101 71.6246 13.1709L71.6244 13.1703L71.624 13.1692L71.4485 12.6672C71.1164 11.6956 70.0588 8.62106 69.0995 5.84166C68.1525 3.07456 67.3163 0.676403 67.1318 0.245965L70.1326 0.307456L70.9565 2.89009C71.2421 3.76181 71.6516 5.03762 72.0477 6.27138L72.0496 6.27734L72.052 6.28481C72.3026 7.06546 72.5476 7.82862 72.7521 8.46119C73.2809 10.0969 73.7359 11.4497 73.7728 11.4497C73.8097 11.4497 73.8958 11.3021 73.9819 11.1053ZM38.7228 8.00615V15.754H49.6683V13.2944L41.49 13.2329L41.4285 0.258263H38.7228V8.00615ZM25.8104 3.2221C25.503 3.28359 25.0111 3.45577 24.7036 3.61565C24.4084 3.76323 23.9165 4.11987 23.6337 4.41503C23.3385 4.69789 22.9204 5.30051 22.7113 5.76784C22.3669 6.46884 22.3054 6.7517 22.2686 7.69866C22.2317 8.44885 22.2809 9.02687 22.4161 9.48191C22.5145 9.85085 22.7851 10.4289 23.0064 10.7609C23.2278 11.093 23.6337 11.5603 23.9042 11.7817C24.1748 12.003 24.6421 12.3228 24.9496 12.4704C25.4292 12.704 25.6998 12.7409 26.9173 12.7409C28.2209 12.7409 28.3808 12.7163 28.9834 12.4089C29.3277 12.2121 29.8812 11.8063 30.1886 11.4865C30.4961 11.1545 30.8896 10.6256 31.0495 10.2813C31.2217 9.94924 31.4061 9.28513 31.4799 8.8055C31.566 8.21519 31.566 7.68636 31.4676 7.14524C31.4061 6.7025 31.1971 6.0384 31.0126 5.66945C30.8281 5.30051 30.4346 4.74708 30.1271 4.43963C29.8074 4.13217 29.3154 3.75093 29.008 3.60335C28.7005 3.45577 28.1471 3.28359 27.7782 3.20981C27.4092 3.13602 26.9296 3.08682 26.7328 3.09912C26.536 3.11142 26.1179 3.16061 25.8104 3.2221ZM60.0118 3.86161C59.9504 4.00919 59.3969 5.3128 58.782 6.7517C58.1671 8.17829 57.6629 9.40812 57.6629 9.48191C57.6629 9.5557 58.6098 9.60489 60.2455 9.60489C61.6598 9.60489 62.8281 9.56799 62.8281 9.5188C62.8281 9.45731 62.2624 8.1045 61.5737 6.49343C60.8727 4.88237 60.2701 3.57875 60.2086 3.57875C60.1594 3.57875 60.0733 3.70173 60.0118 3.86161Z" fill="black"/>
</g>
</svg>
