<svg width="57" height="16" viewBox="0 0 57 16" fill="none" xmlns="http://www.w3.org/2000/svg">
<path fill-rule="evenodd" clip-rule="evenodd" d="M9.82508 2.9003H8.02921C6.62224 2.9003 5.47699 4.05213 5.47699 5.45034C5.47699 6.84856 6.62224 8.00001 8.02921 8.00001H9.82508V10.5497H8.02921C6.89624 10.5497 5.79509 10.1772 4.8974 9.49026C3.99975 8.80331 3.35601 7.84051 3.06655 6.75194C2.87688 7.50315 2.86168 8.28743 3.02212 9.04534C3.18256 9.80325 3.51444 10.515 3.99261 11.1266C4.47077 11.7381 5.08272 12.2336 5.78206 12.5754C6.48141 12.9172 7.24988 13.0963 8.02921 13.0993H9.82508V15.6494H8.02921C3.78117 15.6453 0.332031 12.2221 0.332031 8.00001C0.332031 3.82305 3.70745 0.428751 7.89187 0.35266C7.93765 0.350647 9.82508 0.350647 9.82508 0.350647V2.9003ZM14.9563 6.96706V9.03199C14.9563 10.4958 15.8476 11.3345 17.494 11.3352C18.1924 11.3352 18.7717 11.1529 19.2222 10.778C19.6727 10.4032 19.9024 9.83679 19.9024 9.07868V8.98728H18.4683V9.07868C18.4683 9.7639 18.0178 10.0381 17.402 10.0381C16.7217 10.0381 16.3815 9.73652 16.3815 9.13344V6.86762C16.3815 6.26454 16.7217 5.96295 17.402 5.96295C17.9995 5.96295 18.4683 6.26454 18.4683 6.92238V7.01374H19.9024V6.92238C19.9024 6.16305 19.6727 5.60626 19.2222 5.23144C18.7717 4.85662 18.1924 4.665 17.494 4.665C15.8476 4.665 14.9563 5.50521 14.9563 6.96706ZM20.7296 8.055C20.7296 7.00421 21.4928 6.28356 22.8531 6.28356C24.2135 6.28356 24.9679 7.00543 24.9679 8.055V9.52607C24.9679 10.5765 24.2139 11.3076 22.8531 11.3076C21.4924 11.3076 20.7296 10.5769 20.7296 9.52607V8.055ZM23.6622 9.48017V8.12102C23.6622 7.72807 23.368 7.45391 22.8519 7.45391C22.3095 7.45391 22.0336 7.7462 22.0336 8.12102V9.48221C22.0336 9.85703 22.3095 10.1401 22.8519 10.1401C23.368 10.138 23.6622 9.85499 23.6622 9.48017ZM25.9884 6.39229V11.1981H27.2941V6.39229H25.9884ZM28.5292 11.1978V6.39205H29.2738L29.6323 6.83971C29.818 6.65891 30.0379 6.51651 30.2793 6.4208C30.5208 6.32508 30.7789 6.27797 31.0389 6.28213C32.0962 6.28213 32.7213 6.98587 32.7213 8.1554V11.1978H31.414V8.22828C31.414 7.71656 31.1381 7.45166 30.7427 7.45166C30.4024 7.45166 30.099 7.60708 29.8324 7.90862V11.1978H28.5292ZM33.609 9.5438C33.6183 10.0647 33.8204 10.4847 34.2065 10.814C34.604 11.1425 35.1168 11.3072 35.7598 11.3088C37.0006 11.3088 37.7821 10.7149 37.7821 9.71891C37.7821 9.03368 37.4053 8.58602 36.6514 8.39439L35.3826 8.0743C35.1253 8.01071 34.9965 7.91005 34.9965 7.78201C34.9965 7.55375 35.1991 7.43497 35.6042 7.43497C36.064 7.43497 36.3488 7.60851 36.4501 7.95555H37.7096C37.6719 6.93254 36.873 6.28356 35.6869 6.28356C34.4456 6.28356 33.7285 6.87617 33.7285 7.85368C33.7285 8.52039 34.1239 8.94954 34.9054 9.15086L36.0916 9.4524C36.3764 9.52567 36.5145 9.64445 36.5145 9.81796C36.5145 10.0281 36.2755 10.1561 35.8801 10.1561C35.2914 10.1561 34.9588 9.95486 34.8778 9.5438H33.609ZM38.8591 11.1976V4.80196H41.7461C42.8955 4.80196 43.5847 5.57859 43.5847 6.81213C43.5847 8.04572 42.8963 8.81305 41.7461 8.81305H40.2853V11.1976H38.8591ZM40.2845 7.5795H41.4794C41.8379 7.5795 42.1415 7.32386 42.1415 6.81213C42.1415 6.30045 41.8379 6.03555 41.4794 6.03555H40.2853L40.2845 7.5795ZM47.0785 10.7499L47.4371 11.1976H48.1906V7.94501C48.1906 6.93086 47.4822 6.28188 46.1861 6.28188C44.8904 6.28188 44.2098 6.93086 44.2098 7.92649H45.4879C45.4879 7.60683 45.7174 7.45141 46.1861 7.45141C46.6553 7.45141 46.8852 7.64346 46.8852 8.03637V8.30131H45.9382C44.6421 8.30131 43.9894 8.86775 43.9894 9.86339C43.989 10.3202 44.1455 10.6766 44.4581 10.9326C44.7708 11.179 45.1568 11.3071 45.6161 11.3071C46.1955 11.3071 46.6831 11.1243 47.0785 10.7499ZM46.8852 9.2148V9.74461C46.6278 10.028 46.2967 10.1649 45.8923 10.1649C45.4973 10.1649 45.2945 9.97165 45.2945 9.68984C45.2945 9.37018 45.5063 9.2148 45.9382 9.2148H46.8852ZM49.3768 11.1981V6.39229H50.6827V11.1981H49.3768ZM54.9121 10.7498L55.2707 11.1975L56.014 11.1979V4.75634H54.7085V6.67468C54.3943 6.40978 53.9899 6.28178 53.4933 6.28178C52.9966 6.28178 52.5828 6.4283 52.2611 6.72945C51.9406 7.02216 51.7751 7.46057 51.7751 8.03627V9.54362C51.7751 10.7031 52.5016 11.307 53.4944 11.307C53.7561 11.3115 54.0158 11.2645 54.2594 11.1689C54.5026 11.0733 54.7246 10.9309 54.9121 10.7498ZM54.7097 7.90905V9.68049C54.4065 9.98203 54.0848 10.1375 53.7631 10.1366C53.6725 10.1375 53.5831 10.1203 53.4995 10.0861C53.4164 10.0519 53.3407 10.0013 53.2771 9.93751C53.2136 9.87365 53.1637 9.79782 53.1304 9.71446C53.0971 9.6311 53.081 9.54194 53.0829 9.45222V8.13654C53.081 8.04686 53.0971 7.9577 53.1304 7.87438C53.1637 7.79102 53.214 7.71519 53.2771 7.65137C53.3407 7.58755 53.4164 7.53702 53.4999 7.50282C53.5831 7.46857 53.6725 7.45135 53.7631 7.45213C54.0848 7.45213 54.4065 7.60751 54.7097 7.90905Z" fill="black"/>
</svg>
