<svg width="239" height="200" viewBox="0 0 239 200" fill="none" xmlns="http://www.w3.org/2000/svg">
<g id="stand with ua">
<path id="[Linked] Ellipse 486" d="M196.207 30.8414C200.936 32.3256 204.451 34.7915 206.472 38.2919C216.869 56.2996 183.782 94.8662 132.571 124.433C81.3604 153.999 31.4176 163.37 21.0208 145.362C18.9999 141.862 18.6219 137.585 19.7007 132.748" stroke="black"/>
<g id="Group">
<path id="#" d="M27.2143 117.03L25.7893 118.783L28.1628 120.712L29.5878 118.959L30.9363 120.055L29.5114 121.808L32.1006 123.913L31.136 125.099L28.5468 122.995L26.5299 125.476L29.1191 127.581L28.1545 128.767L25.5653 126.663L24.1403 128.416L22.7917 127.32L24.2167 125.567L21.8432 123.638L20.4183 125.391L19.0697 124.295L20.4947 122.541L17.9054 120.437L18.87 119.25L21.4593 121.355L23.4762 118.873L20.8869 116.769L21.8515 115.582L24.4408 117.687L25.8658 115.933L27.2143 117.03ZM27.1982 121.899L24.8247 119.969L22.8078 122.451L25.1813 124.38L27.1982 121.899Z" fill="black"/>
<path id="S" d="M38.3873 117.017C37.0629 118.49 35.3636 119.393 33.5501 119.539L33.2596 117.782C34.8536 117.673 36.2921 116.956 37.3609 115.767C38.6621 114.32 38.8576 112.906 37.8753 112.023C37.0998 111.326 36.2706 111.469 34.0807 112.865C31.7229 114.344 29.6904 115.462 27.9327 113.882C26.2525 112.371 26.4939 109.971 28.4689 107.774C29.6539 106.456 31.0639 105.667 32.6965 105.359L33.036 107.113C31.7883 107.253 30.5641 107.835 29.5417 108.972C28.3567 110.29 28.1587 111.655 29.0634 112.468C29.8647 113.188 30.8359 112.94 32.9741 111.497C35.8716 109.521 37.5068 109.262 38.9285 110.54C40.712 112.143 40.525 114.639 38.3873 117.017Z" fill="black"/>
<path id="t" d="M41.5064 100.542L39.1953 102.9L43.4649 107.085C44.3089 107.912 44.8729 107.783 45.627 107.014C45.992 106.642 46.2834 106.294 46.6697 105.602L47.8364 106.746C47.4739 107.364 47.0613 107.884 46.5991 108.356C45.2124 109.771 43.7627 109.81 42.4719 108.545L37.9789 104.142L36.5435 105.606L35.4761 104.56L36.9115 103.095L35.1202 100.951L36.142 99.908L38.1279 101.854L40.439 99.4961L41.5064 100.542Z" fill="black"/>
<path id="a" d="M55.4027 97.5631L55.6814 97.3013L56.7285 98.4159C56.7016 98.4888 56.5228 98.7045 56.3455 98.8711C55.4082 99.7517 54.7189 99.7794 53.7861 98.9389C53.9666 100.248 53.4531 101.732 52.3132 102.803C50.844 104.183 48.974 104.223 47.7127 102.88C45.9992 101.057 47.3678 98.96 48.6481 97.3279C49.7496 95.9115 50.1595 95.3833 49.5645 94.75C48.9219 94.0661 47.8334 94.278 46.8202 95.23C45.9336 96.063 45.4293 97.2521 45.4148 98.5057L43.868 98.4328C43.9185 96.8116 44.5556 95.3069 45.8475 94.0932C47.5953 92.451 49.5651 92.3649 51.0169 93.9101L54.4201 97.5325C54.7533 97.8871 55.0481 97.8963 55.4027 97.5631ZM51.4657 101.596C52.7322 100.406 53.0138 98.4722 52.0381 97.4336L50.9433 96.2684C50.8551 96.7328 50.4705 97.2372 49.7536 98.1492C48.8563 99.3261 47.9083 100.551 48.9554 101.665C49.6932 102.45 50.6044 102.405 51.4657 101.596Z" fill="black"/>
<path id="n" d="M56.0278 85.0587C57.7464 83.5922 59.974 83.7932 61.5307 85.6175L65.8173 90.641L64.4953 91.7691L60.5471 87.1422C59.3063 85.688 57.893 85.4775 56.7032 86.4928C55.3284 87.6659 55.0566 89.5428 56.2297 90.9176L60.1328 95.4917L58.8108 96.6197L52.0425 88.6879L53.153 87.7403L54.3868 88.972C54.2014 87.5767 54.7852 86.1191 56.0278 85.0587Z" fill="black"/>
<path id="d" d="M65.9775 72.928L67.3549 71.8683L75.8326 82.8873L74.6756 83.7774L73.5057 82.4848C73.5864 83.9577 72.9635 85.314 71.7514 86.2465C69.5476 87.9421 66.7947 87.385 64.8025 84.7955C62.8526 82.2612 63.06 79.3388 65.1812 77.7069C66.3657 76.7955 67.7177 76.5008 69.0083 76.8673L65.9775 72.928ZM71.1494 84.7801C72.7196 83.572 72.8063 81.5758 71.3863 79.7301C69.9663 77.8844 68.0145 77.4565 66.4443 78.6646C64.8741 79.8727 64.7874 81.869 66.2074 83.7146C67.6274 85.5603 69.5792 85.9882 71.1494 84.7801Z" fill="black"/>
<path id="W" d="M83.8069 61.3878L85.275 60.3944L89.5098 73.476L87.9265 74.5472L79.0945 67.2619L82.6009 78.1505L81.0464 79.2023L70.4785 70.4058L72.0042 69.3735L80.4391 76.3819L77.0419 65.9649L78.7116 64.8353L87.1854 71.9013L83.8069 61.3878Z" fill="black"/>
<path id="i" d="M87.7378 60.5944L86.7285 58.9302L88.3928 57.9209L89.4021 59.5851L87.7378 60.5944ZM94.0271 70.7636L88.62 61.848L90.106 60.9468L95.513 69.8625L94.0271 70.7636Z" fill="black"/>
<path id="t_2" d="M100.668 56.6047L97.7904 58.2234L100.721 63.434C101.3 64.464 101.878 64.4981 102.817 63.9699C103.271 63.7143 103.648 63.4625 104.212 62.9059L105.013 64.3297C104.493 64.822 103.951 65.2063 103.375 65.5301C101.649 66.5013 100.246 66.1339 99.3597 64.5586L96.2757 59.0754L94.4884 60.0807L93.7557 58.778L95.543 57.7727L94.4223 55.2129L95.6946 54.4973L97.0577 56.9208L99.9357 55.3021L100.668 56.6047Z" fill="black"/>
<path id="h" d="M108.202 50.8352C110.218 49.8155 112.336 50.5362 113.418 52.6763L116.399 58.5692L114.848 59.3536L112.103 53.9259C111.24 52.2201 109.916 51.6822 108.52 52.3881C106.939 53.1882 106.232 54.948 107.047 56.5607L109.761 61.9264L108.211 62.7108L101.936 50.3047L103.486 49.5203L105.745 53.9865C105.988 52.6952 106.838 51.5255 108.202 50.8352Z" fill="black"/>
<path id="U" d="M124.808 54.9886C121.818 56.3054 119.037 55.2515 117.734 52.2932L114.484 44.9136L116.138 44.1851L119.388 51.5648C120.299 53.6323 122.16 54.408 124.164 53.5254C126.168 52.6428 126.852 50.7465 125.941 48.6789L122.691 41.2993L124.345 40.5708L127.595 47.9505C128.898 50.9087 127.798 53.6718 124.808 54.9886Z" fill="black"/>
<path id="k" d="M140.042 47.0848L140.4 46.949L140.943 48.3785L140.163 48.6749C139.124 49.0701 138.272 48.6875 137.877 47.6479L136.901 45.0813L132.742 46.6622L134.348 50.8857L132.724 51.5033L127.783 38.5078L129.408 37.8903L132.174 45.1677L134.481 44.2908L135.289 39.373L137.043 38.706L136.155 43.8032L137.974 43.1116L139.37 46.7828C139.481 47.0752 139.75 47.196 140.042 47.0848Z" fill="black"/>
<path id="r" d="M145.577 35.6809C145.808 35.6039 146.05 35.5599 146.292 35.5158L146.831 37.1314C146.457 37.2194 146.094 37.3404 145.666 37.4834C144.017 38.0335 143.084 39.6274 143.634 41.276L145.504 46.8809L143.855 47.4309L140.555 37.5399L141.94 37.0778L142.622 38.6823C142.973 37.3193 144.061 36.1869 145.577 35.6809Z" fill="black"/>
<path id="a_2" d="M159.835 40.9303L160.202 40.824L160.627 42.293C160.57 42.3457 160.312 42.4564 160.079 42.524C158.843 42.8816 158.217 42.5925 157.769 41.4195C157.334 42.6671 156.201 43.7548 154.699 44.1896C152.763 44.75 151.079 43.9346 150.567 42.1651C149.871 39.7613 152.044 38.5173 153.927 37.6467C155.553 36.8868 156.158 36.603 155.916 35.7684C155.655 34.8669 154.59 34.5602 153.254 34.9468C152.086 35.285 151.095 36.1143 150.512 37.2239L149.168 36.4551C149.951 35.0345 151.203 33.9846 152.905 33.4918C155.209 32.8251 157.002 33.6449 157.592 35.6815L158.974 40.4558C159.109 40.9232 159.367 41.0655 159.835 40.9303ZM154.494 42.7294C156.163 42.2462 157.294 40.6525 156.898 39.2836L156.453 37.7479C156.163 38.1212 155.591 38.3953 154.538 38.8811C153.203 39.5207 151.802 40.1796 152.227 41.6486C152.526 42.6836 153.358 43.0579 154.494 42.7294Z" fill="black"/>
<path id="i_2" d="M160.529 30.0337L160.057 28.1455L161.945 27.6731L162.417 29.5613L160.529 30.0337ZM163.532 41.6073L161.001 31.492L162.687 31.0702L165.218 41.1855L163.532 41.6073Z" fill="black"/>
<path id="n_2" d="M173.305 28.5183C175.516 28.0567 177.374 29.3022 177.864 31.6498L179.214 38.1143L177.513 38.4694L176.27 32.5153C175.879 30.644 174.74 29.781 173.209 30.1006C171.44 30.4699 170.301 31.9859 170.67 33.7552L171.899 39.6413L170.197 39.9964L168.067 29.7893L169.496 29.491L169.987 31.1637C170.494 29.8507 171.706 28.8521 173.305 28.5183Z" fill="black"/>
<path id="e" d="M182.967 32.7782C183.489 34.7366 184.96 35.8057 186.917 35.4959C188.599 35.2295 189.462 34.4594 189.887 33.5829L191.291 34.4514C190.693 35.5665 189.422 36.6476 187.19 37.0009C183.86 37.5282 181.613 35.5614 181.13 32.5061C180.63 29.3478 182.381 26.8535 185.334 26.386C188.286 25.9185 190.54 27.7082 191.051 30.9352C191.083 31.1412 191.111 31.3128 191.103 31.4899L182.967 32.7782ZM185.567 27.8622C183.782 28.1448 182.765 29.5023 182.784 31.3995L189.135 30.3939C188.601 28.5782 187.249 27.5958 185.567 27.8622Z" fill="black"/>
</g>
<path id="Star 1" d="M177.751 85.6368C177.526 85.1974 178.006 84.7317 178.438 84.9708L181.135 86.4626C181.281 86.5433 181.457 86.546 181.605 86.4698L184.347 85.0615C184.786 84.8357 185.252 85.316 185.013 85.7482L183.521 88.4451C183.44 88.5909 183.437 88.7673 183.514 88.9156L184.922 91.6569C185.148 92.0963 184.667 92.562 184.235 92.3229L181.538 90.8311C181.393 90.7504 181.216 90.7477 181.068 90.8239L178.327 92.2323C177.887 92.458 177.421 91.9777 177.661 91.5455L179.152 88.8487C179.233 88.7028 179.236 88.5264 179.16 88.3781L177.751 85.6368Z" fill="black"/>
<path id="Ellipse 486" d="M218.548 56.6671C221.211 61.2798 221.26 67.1821 218.952 73.9786C216.644 80.7739 211.998 88.402 205.377 96.3898C192.138 112.362 171.073 129.687 145.315 144.559C119.556 159.431 94.0198 169.011 73.5677 172.49C63.3397 174.23 54.4107 174.439 47.3719 173.04C40.3319 171.641 35.2446 168.648 32.5815 164.035C29.9183 159.422 29.8699 153.52 32.1781 146.724C34.4859 139.928 39.1315 132.3 45.7523 124.312C58.9912 108.34 80.0563 91.0148 105.815 76.1431C131.573 61.2714 157.11 51.6911 177.562 48.212C187.79 46.4722 196.719 46.263 203.758 47.6621C210.798 49.0614 215.885 52.0545 218.548 56.6671Z" stroke="black"/>
</g>
</svg>
