<svg width="37" height="86" viewBox="0 0 37 86" fill="none" xmlns="http://www.w3.org/2000/svg">
<path d="M11.8058 73.2989C10.598 73.2989 9.53335 73.5351 8.60842 74.0142C7.6868 74.49 6.96149 75.1388 6.43248 75.9639C5.90347 76.7891 5.64062 77.7273 5.64062 78.7853C5.64062 79.4508 5.77038 80.0896 6.02657 80.7017C6.28276 81.3139 6.6188 81.833 7.03469 82.2555C7.15114 82.3753 7.27091 82.4784 7.39069 82.5683L5.84358 82.5949V85.3364H22.7753V82.525H16.3573C16.4105 82.4751 16.4671 82.4318 16.5203 82.3786C16.9595 81.9328 17.3122 81.3905 17.585 80.745C17.8578 80.1029 17.9942 79.4341 17.9942 78.7387C17.9942 77.7107 17.7247 76.7857 17.1891 75.9606C16.6534 75.1388 15.9214 74.4867 14.9898 74.0109C14.0616 73.5385 13.0002 73.2989 11.8058 73.2989ZM13.7322 76.4397C14.2911 76.7192 14.7303 77.1085 15.0464 77.6075C15.3625 78.1066 15.5222 78.6722 15.5222 79.3077C15.5222 79.9731 15.3625 80.552 15.0464 81.0411C14.7303 81.5335 14.2911 81.9228 13.7322 82.2089C13.1732 82.4951 12.5311 82.6381 11.8058 82.6381C11.0805 82.6381 10.4383 82.4951 9.87938 82.2089C9.32042 81.9228 8.88457 81.5335 8.57515 81.0411C8.26572 80.5487 8.10935 79.9731 8.10935 79.3077C8.10935 78.6589 8.26905 78.0833 8.58513 77.5842C8.9012 77.0852 9.33705 76.6992 9.88936 76.4297C10.4417 76.1569 11.0805 76.0205 11.8058 76.0205C12.5311 76.0205 13.1732 76.1602 13.7322 76.4397Z" fill="white"/>
<path d="M1.02344 67.9703V70.7817H17.7954V67.9703H1.02344Z" fill="white"/>
<path d="M17.2165 56.2794C16.6809 55.3411 15.9423 54.6058 15.0073 54.0702C14.0691 53.5345 13.0044 53.265 11.8133 53.265C10.6189 53.265 9.55418 53.5345 8.61593 54.0702C7.67769 54.6058 6.94239 55.3445 6.40673 56.2794C5.87106 57.2176 5.60156 58.2723 5.60156 59.4535C5.60156 60.6479 5.87106 61.7126 6.40673 62.6508C6.94239 63.5891 7.68101 64.3277 8.61593 64.8733C9.55418 65.4156 10.6189 65.6885 11.8133 65.6885C13.0077 65.6885 14.0724 65.4156 15.0073 64.8733C15.9456 64.331 16.6809 63.5891 17.2165 62.6508C17.7522 61.7126 18.0217 60.6479 18.0217 59.4535C18.0217 58.2723 17.7522 57.2143 17.2165 56.2794ZM13.7164 62.4212C13.1575 62.7074 12.522 62.8504 11.8133 62.8504C11.1046 62.8504 10.4658 62.7074 9.89688 62.4212C9.33127 62.1351 8.88543 61.7292 8.55937 61.2102C8.23332 60.6878 8.07361 60.1022 8.07361 59.4535C8.07361 58.8047 8.23664 58.2257 8.55937 57.72C8.88543 57.2143 9.32794 56.815 9.88689 56.5189C10.4459 56.2228 11.088 56.0864 11.8133 56.0997C12.5253 56.0864 13.1575 56.2228 13.7164 56.5189C14.2754 56.815 14.7212 57.2143 15.0539 57.72C15.3866 58.2257 15.553 58.8047 15.553 59.4535C15.553 60.1022 15.3866 60.6878 15.0539 61.2102C14.7212 61.7292 14.2754 62.1318 13.7164 62.4212Z" fill="white"/>
<path d="M17.7958 35.4722V32.6608H10.5892C9.50124 32.6608 8.58628 32.8105 7.84766 33.1133C7.10904 33.4161 6.55674 33.8685 6.19408 34.4741C5.83143 35.0796 5.65176 35.8349 5.65176 36.7399C5.65176 37.1491 5.71165 37.5583 5.83476 37.9742C5.95453 38.3901 6.1342 38.786 6.36709 39.1653C6.59999 39.5446 6.86616 39.884 7.15895 40.1868C7.41514 40.4496 7.70127 40.6592 8.01069 40.8189C7.59148 40.9719 7.22549 41.1616 6.9194 41.3978C6.48022 41.7372 6.16081 42.1597 5.95453 42.6688C5.75158 43.1745 5.64844 43.7534 5.64844 44.4022C5.64844 44.8414 5.72163 45.2706 5.8647 45.6931C6.00776 46.1157 6.20407 46.5183 6.4536 46.8942C6.70313 47.2735 6.99592 47.5962 7.33861 47.8691C7.41514 47.929 7.49166 47.9855 7.57151 48.0421L5.85472 48.0754V50.8169H17.7991V48.0055H10.6358C10.2731 48.0055 9.94042 47.9356 9.63765 47.8025C9.33489 47.6661 9.07204 47.4765 8.8458 47.2369C8.61955 46.994 8.44322 46.7079 8.31346 46.3752C8.1837 46.0425 8.12049 45.6865 8.12049 45.3105C8.12049 44.858 8.22363 44.4721 8.42658 44.156C8.62954 43.8399 8.92565 43.597 9.31159 43.4307C9.69754 43.2643 10.1766 43.1812 10.7522 43.1812H17.8024V40.3697H10.6624C10.2998 40.3697 9.96704 40.3032 9.66427 40.1668C9.3615 40.0304 9.09533 39.8407 8.85911 39.6012C8.62621 39.3583 8.44322 39.0688 8.31679 38.7295C8.18703 38.3901 8.12381 38.0308 8.12381 37.6515C8.12381 37.169 8.21697 36.7631 8.40662 36.4404C8.59626 36.1144 8.88572 35.8748 9.27832 35.7151C9.67092 35.5554 10.17 35.4789 10.7755 35.4789H17.7958V35.4722Z" fill="white"/>
<path d="M17.2165 20.1885C16.6809 19.3667 15.9422 18.7179 15.0073 18.2521C14.0691 17.783 12.9977 17.5501 11.79 17.5501C10.5956 17.5501 9.53088 17.7897 8.59264 18.2655C7.65439 18.7412 6.92242 19.39 6.39341 20.2152C5.8644 21.0403 5.60155 21.9852 5.60155 23.0598C5.60155 23.5423 5.68141 24.0181 5.83778 24.4872C5.99748 24.9563 6.20709 25.3855 6.47326 25.7781C6.73943 26.1707 7.03222 26.5001 7.35827 26.7629C7.36493 26.7663 7.36825 26.7696 7.37491 26.7729H1.02344V29.561H17.7489V26.8627L16.3116 26.8295C16.6143 26.5699 16.8905 26.2605 17.1367 25.8879C17.4095 25.4787 17.6258 25.0228 17.7821 24.5171C17.9418 24.0114 18.0184 23.4924 18.0184 22.9634C18.0217 21.9353 17.7522 21.0103 17.2165 20.1885ZM15.0872 25.2757C14.7611 25.7748 14.3153 26.1674 13.7497 26.4535C13.1841 26.7396 12.5286 26.8827 11.79 26.8827C11.0647 26.8827 10.4226 26.7396 9.8636 26.4535C9.30464 26.1674 8.86546 25.7748 8.54938 25.2757C8.23331 24.7766 8.0736 24.2044 8.0736 23.5523C8.0736 22.9035 8.23331 22.3279 8.54938 21.8288C8.86546 21.3297 9.30464 20.9405 9.8636 20.661C10.4226 20.3815 11.0647 20.2418 11.79 20.2418C12.5319 20.2418 13.1841 20.3848 13.7497 20.671C14.3153 20.9571 14.7611 21.3497 15.0872 21.8488C15.4132 22.3478 15.5763 22.9134 15.5763 23.5489C15.5729 24.201 15.4099 24.7766 15.0872 25.2757Z" fill="white"/>
<path d="M0.0703125 13.3778C0.0703125 13.9202 0.220033 14.3527 0.522801 14.6688C0.825569 14.9848 1.21817 15.1445 1.7006 15.1445C2.21298 15.1445 2.61223 14.9882 2.89171 14.6787C3.17119 14.3693 3.31093 13.9335 3.31093 13.3745C3.31093 12.8155 3.16121 12.3764 2.85844 12.0603C2.55567 11.7442 2.16972 11.5845 1.70393 11.5845C1.17491 11.5845 0.772334 11.7409 0.492856 12.0503C0.21005 12.3597 0.0703125 12.8022 0.0703125 13.3778Z" fill="white"/>
<path d="M5.84766 11.9467V14.7349H17.792V11.9467H5.84766Z" fill="white"/>
<path d="M5.66811 1.30675C5.62153 1.53965 5.60156 1.78585 5.60156 2.04204C5.60156 2.63094 5.7413 3.19323 6.02078 3.73223C6.30026 4.26789 6.68288 4.74035 7.16531 5.14958C7.39488 5.34256 7.63776 5.50891 7.89395 5.64532L5.84777 5.66861V8.41016H17.7921V5.59874H11.424C11.0015 5.59874 10.6189 5.52887 10.2795 5.38247C9.94013 5.23941 9.64069 5.03979 9.3845 4.7836C9.12831 4.52741 8.92868 4.22797 8.78229 3.8886C8.63922 3.54923 8.56603 3.1899 8.56603 2.81061C8.56603 2.56773 8.59597 2.32818 8.65586 2.0853C8.71575 1.84242 8.79227 1.63946 8.8821 1.47311L5.82115 0.724506C5.76792 0.880881 5.71469 1.07385 5.66811 1.30675Z" fill="white"/>
<path d="M25.6362 64.7211C25.1238 65.2135 24.7179 65.7924 24.4185 66.4645C24.1224 67.1366 23.9727 67.8586 23.9727 68.6305C23.9727 69.5088 24.1257 70.3173 24.4318 71.0559C24.7379 71.7946 25.1704 72.4267 25.726 72.9557C26.285 73.4847 26.9438 73.8973 27.7024 74.1967C28.4609 74.4962 29.3027 74.6426 30.2276 74.6426C31.3888 74.6426 32.4202 74.3797 33.3219 73.8507C34.2235 73.3217 34.9355 72.5831 35.4545 71.6382C35.9769 70.6933 36.2364 69.602 36.2364 68.3643C36.2364 67.812 36.1632 67.2564 36.0135 66.6874C35.8638 66.1218 35.6608 65.5828 35.398 65.0671C35.1385 64.5547 34.8191 64.0956 34.4498 63.693L32.55 65.0571C33.0124 65.5928 33.3318 66.0919 33.5115 66.5543C33.6912 67.0168 33.781 67.5225 33.781 68.0748C33.781 68.8634 33.628 69.5521 33.3219 70.141C33.0158 70.7299 32.5799 71.1824 32.0143 71.5051C31.635 71.7214 31.2091 71.8578 30.74 71.9277V63.2505L29.7785 63.2272C28.9434 63.2139 28.1748 63.337 27.4661 63.5965C26.7608 63.8527 26.1486 64.2287 25.6362 64.7211ZM26.8307 70.4737C26.5478 69.9746 26.4048 69.3591 26.4048 68.6305C26.4048 68.1547 26.5046 67.7188 26.7075 67.3229C26.9072 66.927 27.1833 66.6043 27.5327 66.3514C27.882 66.0985 28.2879 65.9488 28.7504 65.9056H28.8635V71.8678C28.5641 71.8045 28.2913 71.718 28.0484 71.6016C27.5194 71.3487 27.1135 70.9728 26.8307 70.4737Z" fill="white"/>
<path d="M32.3698 56.1043L24.2383 59.2019V62.1963L36.013 57.2356V55.1794L24.2383 49.9758V52.9003L32.3698 56.1043Z" fill="white"/>
<path d="M25.6362 39.5194C25.1238 40.0119 24.7179 40.5908 24.4185 41.2629C24.1224 41.9349 23.9727 42.6569 23.9727 43.4288C23.9727 44.3072 24.1257 45.1157 24.4318 45.8543C24.7379 46.5929 25.1704 47.2251 25.726 47.7541C26.285 48.2831 26.9438 48.6956 27.7024 48.9951C28.4609 49.2945 29.3027 49.4409 30.2276 49.4409C31.3888 49.4409 32.4202 49.1781 33.3219 48.6491C34.2235 48.1201 34.9355 47.3814 35.4545 46.4365C35.9769 45.4916 36.2364 44.4003 36.2364 43.1626C36.2364 42.6103 36.1632 42.0547 36.0135 41.4858C35.8638 40.9202 35.6608 40.3812 35.398 39.8655C35.1385 39.3531 34.8191 38.8939 34.4498 38.4914L32.55 39.8555C33.0124 40.3912 33.3318 40.8902 33.5115 41.3527C33.6912 41.8152 33.781 42.3209 33.781 42.8732C33.781 43.6617 33.628 44.3504 33.3219 44.9393C33.0158 45.5282 32.5799 45.9807 32.0143 46.3034C31.635 46.5197 31.2091 46.6561 30.74 46.726V38.0422L29.7785 38.0189C28.9434 38.0056 28.1748 38.1287 27.4661 38.3882C26.7608 38.6511 26.1486 39.027 25.6362 39.5194ZM26.8307 45.272C26.5478 44.773 26.4048 44.1575 26.4048 43.4288C26.4048 42.953 26.5046 42.5172 26.7075 42.1213C26.9072 41.7253 27.1833 41.4026 27.5327 41.1497C27.882 40.8969 28.2879 40.7472 28.7504 40.7039H28.8635V46.6661C28.5641 46.6029 28.2913 46.5164 28.0484 46.3999C27.5194 46.1471 27.1135 45.7711 26.8307 45.272Z" fill="white"/>
<path d="M24.5279 26.8812C24.1719 27.4834 23.9922 28.232 23.9922 29.127C23.9922 29.7525 24.1253 30.3647 24.3948 30.9603C24.6643 31.5558 25.0169 32.0715 25.4561 32.5007C25.5992 32.6405 25.7489 32.7602 25.902 32.8734L24.2384 32.9033V35.585H36.0131C36.0131 35.392 36.0131 35.1791 36.0131 34.9495C36.0131 34.7199 36.0131 34.4704 36.0131 34.2009V32.8368H28.9063C28.5503 32.8368 28.221 32.7669 27.9215 32.6238C27.6221 32.4841 27.3592 32.2878 27.1297 32.0416C26.9001 31.7954 26.7204 31.5059 26.594 31.1699C26.4676 30.8338 26.4043 30.4645 26.4043 30.0653C26.391 29.5729 26.4742 29.157 26.6605 28.8143C26.8469 28.4716 27.1363 28.2187 27.5322 28.0557C27.9282 27.8927 28.4239 27.8095 29.0195 27.8095H36.0131V25.0613H28.8198C27.7485 25.0613 26.8535 25.2143 26.1382 25.5204C25.4228 25.8232 24.8872 26.279 24.5279 26.8812Z" fill="white"/>
<path d="M21.2461 17.9569V20.7051H24.2405V23.0308H26.7891V20.7051H36.0152V17.9569H26.7891V15.3884H24.2405V17.9569H21.2461Z" fill="white"/>
</svg>
